<?xml version="1.0" encoding="UTF-8" standalone="no"?>
<!DOCTYPE svg PUBLIC "-//W3C//DTD SVG 1.1//EN"
 "http://www.w3.org/Graphics/SVG/1.1/DTD/svg11.dtd">
<!-- Generated by graphviz version 2.43.0 (0)
 -->
<!-- Title: %3 Pages: 1 -->
<svg width="961pt" height="598pt"
 viewBox="0.00 0.00 961.00 598.00" xmlns="http://www.w3.org/2000/svg" xmlns:xlink="http://www.w3.org/1999/xlink">
<g id="graph0" class="graph" transform="scale(1 1) rotate(0) translate(4 594)">
<title>%3</title>
<polygon fill="#242424" stroke="transparent" points="-4,4 -4,-594 957,-594 957,4 -4,4"/>
<!-- cli -->
<g id="node1" class="node">
<title>cli</title>
<polygon fill="#343434" stroke="#343434" points="68.5,-405 14.5,-405 14.5,-369 68.5,-369 68.5,-405"/>
<text text-anchor="middle" x="41.5" y="-383.3" font-family="Courier,monospace" font-size="14.00" fill="#b6ecf3">cli</text>
</g>
<!-- cv_depot\.command -->
<g id="node2" class="node">
<title>cv_depot\.command</title>
<polygon fill="#343434" stroke="#343434" points="288.5,-590 139.5,-590 139.5,-554 288.5,-554 288.5,-590"/>
<text text-anchor="middle" x="214" y="-568.3" font-family="Courier,monospace" font-size="14.00" fill="#b6ecf3">cv_depot.command</text>
</g>
<!-- cv_depot\.core\.channel -->
<g id="node3" class="node">
<title>cv_depot\.core\.channel</title>
<polygon fill="#343434" stroke="#343434" points="535,-536 345,-536 345,-500 535,-500 535,-536"/>
<text text-anchor="middle" x="440" y="-514.3" font-family="Courier,monospace" font-size="14.00" fill="#b6ecf3">cv_depot.core.channel</text>
</g>
<!-- cv_depot\.core\.color -->
<g id="node4" class="node">
<title>cv_depot\.core\.color</title>
<polygon fill="#343434" stroke="#343434" points="953,-282 780,-282 780,-246 953,-246 953,-282"/>
<text text-anchor="middle" x="866.5" y="-260.3" font-family="Courier,monospace" font-size="14.00" fill="#b6ecf3">cv_depot.core.color</text>
</g>
<!-- cv_depot\.core\.enum -->
<g id="node5" class="node">
<title>cv_depot\.core\.enum</title>
<polygon fill="#343434" stroke="#343434" points="522.5,-282 357.5,-282 357.5,-246 522.5,-246 522.5,-282"/>
<text text-anchor="middle" x="440" y="-260.3" font-family="Courier,monospace" font-size="14.00" fill="#b6ecf3">cv_depot.core.enum</text>
</g>
<!-- cv_depot\.core\.image -->
<g id="node6" class="node">
<title>cv_depot\.core\.image</title>
<polygon fill="#343434" stroke="#343434" points="744,-282 571,-282 571,-246 744,-246 744,-282"/>
<text text-anchor="middle" x="657.5" y="-260.3" font-family="Courier,monospace" font-size="14.00" fill="#b6ecf3">cv_depot.core.image</text>
</g>
<!-- cv_depot\.core\.enum&#45;&gt;cv_depot\.core\.image -->
<g id="edge1" class="edge">
<title>cv_depot\.core\.enum&#45;&gt;cv_depot\.core\.image</title>
<path fill="none" stroke="#b6ecf3" d="M522.78,-264C535.18,-264 548.07,-264 560.74,-264"/>
<polygon fill="#b6ecf3" stroke="#b6ecf3" points="560.83,-267.5 570.83,-264 560.83,-260.5 560.83,-267.5"/>
</g>
<!-- cv_depot\.core\.image&#45;&gt;cv_depot\.core\.color -->
<g id="edge2" class="edge">
<title>cv_depot\.core\.image&#45;&gt;cv_depot\.core\.color</title>
<path fill="none" stroke="#b6ecf3" d="M744.19,-264C752.66,-264 761.3,-264 769.87,-264"/>
<polygon fill="#b6ecf3" stroke="#b6ecf3" points="769.88,-267.5 779.88,-264 769.88,-260.5 769.88,-267.5"/>
</g>
<!-- cv_depot\.core\.tools -->
<g id="node7" class="node">
<title>cv_depot\.core\.tools</title>
<polygon fill="#343434" stroke="#343434" points="526.5,-114 353.5,-114 353.5,-78 526.5,-78 526.5,-114"/>
<text text-anchor="middle" x="440" y="-92.3" font-family="Courier,monospace" font-size="14.00" fill="#b6ecf3">cv_depot.core.tools</text>
</g>
<!-- cv_depot\.core\.tools&#45;&gt;cv_depot\.core\.image -->
<g id="edge3" class="edge">
<title>cv_depot\.core\.tools&#45;&gt;cv_depot\.core\.image</title>
<path fill="none" stroke="#b6ecf3" d="M465.94,-114.16C485,-128.14 511.84,-148.05 535,-166 566.56,-190.46 602.04,-219.23 626.47,-239.24"/>
<polygon fill="#b6ecf3" stroke="#b6ecf3" points="624.36,-242.04 634.31,-245.68 628.8,-236.63 624.36,-242.04"/>
</g>
<!-- click -->
<g id="node8" class="node">
<title>click</title>
<polygon fill="#343434" stroke="#343434" points="70.5,-590 12.5,-590 12.5,-554 70.5,-554 70.5,-590"/>
<text text-anchor="middle" x="41.5" y="-568.3" font-family="Courier,monospace" font-size="14.00" fill="#de958e">click</text>
</g>
<!-- click&#45;&gt;cv_depot\.command -->
<g id="edge4" class="edge">
<title>click&#45;&gt;cv_depot\.command</title>
<path fill="none" stroke="#de958e" d="M70.65,-572C86.82,-572 108.06,-572 129.18,-572"/>
<polygon fill="#de958e" stroke="#de958e" points="129.18,-575.5 139.18,-572 129.18,-568.5 129.18,-575.5"/>
</g>
<!-- cv_depot -->
<g id="node9" class="node">
<title>cv_depot</title>
<polygon fill="#343434" stroke="#343434" points="83,-459 0,-459 0,-423 83,-423 83,-459"/>
<text text-anchor="middle" x="41.5" y="-437.3" font-family="Courier,monospace" font-size="14.00" fill="#a0d17b">cv_depot</text>
</g>
<!-- cv_depot&#45;&gt;cv_depot\.command -->
<g id="edge5" class="edge">
<title>cv_depot&#45;&gt;cv_depot\.command</title>
<path fill="none" stroke="#a0d17b" d="M51.17,-459.32C63.15,-482.68 86.99,-522.72 119,-545 122.53,-547.46 126.28,-549.69 130.17,-551.72"/>
<polygon fill="#a0d17b" stroke="#a0d17b" points="128.93,-555.01 139.47,-556.11 131.92,-548.68 128.93,-555.01"/>
</g>
<!-- cv_depot\.core -->
<g id="node10" class="node">
<title>cv_depot\.core</title>
<polygon fill="#343434" stroke="#343434" points="276,-382 152,-382 152,-346 276,-346 276,-382"/>
<text text-anchor="middle" x="214" y="-360.3" font-family="Courier,monospace" font-size="14.00" fill="#a0d17b">cv_depot.core</text>
</g>
<!-- cv_depot&#45;&gt;cv_depot\.core -->
<g id="edge6" class="edge">
<title>cv_depot&#45;&gt;cv_depot\.core</title>
<path fill="none" stroke="#a0d17b" d="M82.47,-422.95C106.76,-411.98 137.94,-397.9 163.74,-386.25"/>
<polygon fill="#a0d17b" stroke="#a0d17b" points="165.31,-389.38 172.98,-382.07 162.43,-383 165.31,-389.38"/>
</g>
<!-- cv_depot\.core&#45;&gt;cv_depot\.core\.channel -->
<g id="edge7" class="edge">
<title>cv_depot\.core&#45;&gt;cv_depot\.core\.channel</title>
<path fill="none" stroke="#a0d17b" d="M229.94,-382.29C252.37,-408.65 297.24,-457.31 345,-486 351.1,-489.66 357.67,-492.97 364.4,-495.95"/>
<polygon fill="#a0d17b" stroke="#a0d17b" points="363.09,-499.2 373.66,-499.82 365.78,-492.74 363.09,-499.2"/>
</g>
<!-- cv_depot\.core&#45;&gt;cv_depot\.core\.color -->
<g id="edge8" class="edge">
<title>cv_depot\.core&#45;&gt;cv_depot\.core\.color</title>
<path fill="none" stroke="#a0d17b" d="M233.7,-382.35C257.33,-404.11 300.32,-439.17 345,-453 425.67,-477.97 453.39,-474.69 535,-453 656.52,-420.71 779.94,-332.04 835.33,-288.62"/>
<polygon fill="#a0d17b" stroke="#a0d17b" points="837.64,-291.25 843.32,-282.3 833.3,-285.76 837.64,-291.25"/>
</g>
<!-- cv_depot\.core&#45;&gt;cv_depot\.core\.enum -->
<g id="edge9" class="edge">
<title>cv_depot\.core&#45;&gt;cv_depot\.core\.enum</title>
<path fill="none" stroke="#a0d17b" d="M242.95,-345.79C268.65,-329.66 308.22,-306.36 345,-291 349.73,-289.03 354.64,-287.14 359.64,-285.35"/>
<polygon fill="#a0d17b" stroke="#a0d17b" points="361,-288.59 369.32,-282.04 358.73,-281.97 361,-288.59"/>
</g>
<!-- cv_depot\.core&#45;&gt;cv_depot\.core\.image -->
<g id="edge10" class="edge">
<title>cv_depot\.core&#45;&gt;cv_depot\.core\.image</title>
<path fill="none" stroke="#a0d17b" d="M226.65,-345.67C246.65,-316.15 290.65,-259.14 345,-237 427.48,-203.4 532.2,-223.96 596.76,-243.06"/>
<polygon fill="#a0d17b" stroke="#a0d17b" points="595.79,-246.42 606.38,-245.98 597.83,-239.72 595.79,-246.42"/>
</g>
<!-- cv_depot\.core&#45;&gt;cv_depot\.core\.tools -->
<g id="edge11" class="edge">
<title>cv_depot\.core&#45;&gt;cv_depot\.core\.tools</title>
<path fill="none" stroke="#a0d17b" d="M229.62,-345.6C253.47,-315.67 302.38,-254.67 345,-204 368.94,-175.54 397.01,-143.45 416.2,-121.7"/>
<polygon fill="#a0d17b" stroke="#a0d17b" points="418.84,-123.99 422.84,-114.18 413.6,-119.36 418.84,-123.99"/>
</g>
<!-- lunchbox\.enforce -->
<g id="node11" class="node">
<title>lunchbox\.enforce</title>
<polygon fill="#343434" stroke="#343434" points="288.5,-536 139.5,-536 139.5,-500 288.5,-500 288.5,-536"/>
<text text-anchor="middle" x="214" y="-514.3" font-family="Courier,monospace" font-size="14.00" fill="#de958e">lunchbox.enforce</text>
</g>
<!-- lunchbox\.enforce&#45;&gt;cv_depot\.core\.channel -->
<g id="edge12" class="edge">
<title>lunchbox\.enforce&#45;&gt;cv_depot\.core\.channel</title>
<path fill="none" stroke="#de958e" d="M288.66,-518C303.41,-518 319.16,-518 334.72,-518"/>
<polygon fill="#de958e" stroke="#de958e" points="334.9,-521.5 344.9,-518 334.9,-514.5 334.9,-521.5"/>
</g>
<!-- lunchbox\.enforce&#45;&gt;cv_depot\.core\.color -->
<g id="edge13" class="edge">
<title>lunchbox\.enforce&#45;&gt;cv_depot\.core\.color</title>
<path fill="none" stroke="#de958e" d="M287.24,-536.11C294.72,-538.76 302.1,-541.72 309,-545 326.6,-553.36 326.41,-564.18 345,-570 425.59,-595.24 454.9,-596.73 535,-570 686.25,-519.52 806.24,-355.32 848.8,-290.58"/>
<polygon fill="#de958e" stroke="#de958e" points="851.78,-292.42 854.29,-282.13 845.91,-288.61 851.78,-292.42"/>
</g>
<!-- lunchbox\.enforce&#45;&gt;cv_depot\.core\.enum -->
<g id="edge14" class="edge">
<title>lunchbox\.enforce&#45;&gt;cv_depot\.core\.enum</title>
<path fill="none" stroke="#de958e" d="M231.17,-499.8C251.55,-476.13 286.61,-432.84 309,-391 331.29,-349.35 310.52,-323.28 345,-291 346.28,-289.8 347.61,-288.66 348.98,-287.57"/>
<polygon fill="#de958e" stroke="#de958e" points="351.03,-290.4 357.26,-281.83 347.05,-284.64 351.03,-290.4"/>
</g>
<!-- lunchbox\.enforce&#45;&gt;cv_depot\.core\.image -->
<g id="edge15" class="edge">
<title>lunchbox\.enforce&#45;&gt;cv_depot\.core\.image</title>
<path fill="none" stroke="#de958e" d="M288.84,-536.07C307.08,-539.77 326.66,-543.12 345,-545 429,-553.63 464.43,-591.37 535,-545 622.81,-487.3 647.46,-351.14 654.13,-292.11"/>
<polygon fill="#de958e" stroke="#de958e" points="657.62,-292.33 655.18,-282.02 650.66,-291.61 657.62,-292.33"/>
</g>
<!-- numpy -->
<g id="node12" class="node">
<title>numpy</title>
<polygon fill="#343434" stroke="#343434" points="243,-198 185,-198 185,-162 243,-162 243,-198"/>
<text text-anchor="middle" x="214" y="-176.3" font-family="Courier,monospace" font-size="14.00" fill="#de958e">numpy</text>
</g>
<!-- numpy&#45;&gt;cv_depot\.core\.color -->
<g id="edge16" class="edge">
<title>numpy&#45;&gt;cv_depot\.core\.color</title>
<path fill="none" stroke="#de958e" d="M243.14,-178.61C269.46,-177.37 309.89,-175.68 345,-175 429.43,-173.38 451.28,-163.93 535,-175 631.52,-187.77 739.86,-220.65 805.37,-242.67"/>
<polygon fill="#de958e" stroke="#de958e" points="804.51,-246.07 815.11,-245.97 806.76,-239.44 804.51,-246.07"/>
</g>
<!-- numpy&#45;&gt;cv_depot\.core\.enum -->
<g id="edge17" class="edge">
<title>numpy&#45;&gt;cv_depot\.core\.enum</title>
<path fill="none" stroke="#de958e" d="M243.37,-190.64C277.92,-203.59 337.13,-225.8 381.39,-242.4"/>
<polygon fill="#de958e" stroke="#de958e" points="380.28,-245.72 390.87,-245.95 382.74,-239.16 380.28,-245.72"/>
</g>
<!-- numpy&#45;&gt;cv_depot\.core\.image -->
<g id="edge18" class="edge">
<title>numpy&#45;&gt;cv_depot\.core\.image</title>
<path fill="none" stroke="#de958e" d="M243.43,-178.54C300.06,-176.42 430.47,-175.43 535,-204 564.65,-212.1 595.68,-227.56 618.97,-240.76"/>
<polygon fill="#de958e" stroke="#de958e" points="617.4,-243.9 627.81,-245.87 620.9,-237.84 617.4,-243.9"/>
</g>
<!-- numpy&#45;&gt;cv_depot\.core\.tools -->
<g id="edge19" class="edge">
<title>numpy&#45;&gt;cv_depot\.core\.tools</title>
<path fill="none" stroke="#de958e" d="M243.01,-174.49C262.17,-170.11 287.83,-163.05 309,-153 326.6,-144.64 327.61,-136.78 345,-128 352.41,-124.26 360.36,-120.79 368.38,-117.63"/>
<polygon fill="#de958e" stroke="#de958e" points="369.69,-120.88 377.81,-114.06 367.21,-114.33 369.69,-120.88"/>
</g>
<!-- numpy\.typing -->
<g id="node13" class="node">
<title>numpy\.typing</title>
<polygon fill="#343434" stroke="#343434" points="272,-36 156,-36 156,0 272,0 272,-36"/>
<text text-anchor="middle" x="214" y="-14.3" font-family="Courier,monospace" font-size="14.00" fill="#de958e">numpy.typing</text>
</g>
<!-- numpy\.typing&#45;&gt;cv_depot\.core\.color -->
<g id="edge20" class="edge">
<title>numpy\.typing&#45;&gt;cv_depot\.core\.color</title>
<path fill="none" stroke="#de958e" d="M272.24,-9.5C337.66,-2.02 447.04,3.59 535,-26 666.63,-70.29 790.83,-186.72 841.52,-238.52"/>
<polygon fill="#de958e" stroke="#de958e" points="839.26,-241.22 848.73,-245.97 844.29,-236.35 839.26,-241.22"/>
</g>
<!-- numpy\.typing&#45;&gt;cv_depot\.core\.image -->
<g id="edge21" class="edge">
<title>numpy\.typing&#45;&gt;cv_depot\.core\.image</title>
<path fill="none" stroke="#de958e" d="M272.04,-21.44C352.14,-27.2 492.87,-41.05 535,-69 596.23,-109.63 632.26,-192.77 647.64,-236.19"/>
<polygon fill="#de958e" stroke="#de958e" points="644.39,-237.51 650.95,-245.83 651.02,-235.24 644.39,-237.51"/>
</g>
<!-- numpy\.typing&#45;&gt;cv_depot\.core\.tools -->
<g id="edge22" class="edge">
<title>numpy\.typing&#45;&gt;cv_depot\.core\.tools</title>
<path fill="none" stroke="#de958e" d="M272.3,-32.42C284.57,-36.07 297.34,-40.31 309,-45 325.78,-51.76 328.39,-56.84 345,-64 353.58,-67.7 362.73,-71.26 371.84,-74.59"/>
<polygon fill="#de958e" stroke="#de958e" points="370.69,-77.89 381.29,-77.96 373.05,-71.3 370.69,-77.89"/>
</g>
<!-- openexr_tools\.enum -->
<g id="node14" class="node">
<title>openexr_tools\.enum</title>
<polygon fill="#343434" stroke="#343434" points="522.5,-444 357.5,-444 357.5,-408 522.5,-408 522.5,-444"/>
<text text-anchor="middle" x="440" y="-422.3" font-family="Courier,monospace" font-size="14.00" fill="#de958e">openexr_tools.enum</text>
</g>
<!-- openexr_tools\.enum&#45;&gt;cv_depot\.core\.image -->
<g id="edge23" class="edge">
<title>openexr_tools\.enum&#45;&gt;cv_depot\.core\.image</title>
<path fill="none" stroke="#de958e" d="M517.98,-407.84C523.92,-405.26 529.67,-402.33 535,-399 580.02,-370.85 618.38,-321.33 639.36,-290.73"/>
<polygon fill="#de958e" stroke="#de958e" points="642.38,-292.51 645.06,-282.26 636.58,-288.6 642.38,-292.51"/>
</g>
<!-- pandas -->
<g id="node15" class="node">
<title>pandas</title>
<polygon fill="#343434" stroke="#343434" points="247,-144 181,-144 181,-108 247,-108 247,-144"/>
<text text-anchor="middle" x="214" y="-122.3" font-family="Courier,monospace" font-size="14.00" fill="#de958e">pandas</text>
</g>
<!-- pandas&#45;&gt;cv_depot\.core\.tools -->
<g id="edge24" class="edge">
<title>pandas&#45;&gt;cv_depot\.core\.tools</title>
<path fill="none" stroke="#de958e" d="M247.09,-121.7C272.31,-118.32 308.8,-113.44 343.2,-108.83"/>
<polygon fill="#de958e" stroke="#de958e" points="343.87,-112.27 353.31,-107.48 342.94,-105.33 343.87,-112.27"/>
</g>
<!-- sklearn\.preprocessing -->
<g id="node16" class="node">
<title>sklearn\.preprocessing</title>
<polygon fill="#343434" stroke="#343434" points="309,-90 119,-90 119,-54 309,-54 309,-90"/>
<text text-anchor="middle" x="214" y="-68.3" font-family="Courier,monospace" font-size="14.00" fill="#de958e">sklearn.preprocessing</text>
</g>
<!-- sklearn\.preprocessing&#45;&gt;cv_depot\.core\.tools -->
<g id="edge25" class="edge">
<title>sklearn\.preprocessing&#45;&gt;cv_depot\.core\.tools</title>
<path fill="none" stroke="#de958e" d="M309.02,-82.07C320.41,-83.29 332.06,-84.54 343.47,-85.76"/>
<polygon fill="#de958e" stroke="#de958e" points="343.11,-89.25 353.42,-86.83 343.85,-82.29 343.11,-89.25"/>
</g>
<!-- openexr_tools\.tools -->
<g id="node17" class="node">
<title>openexr_tools\.tools</title>
<polygon fill="#343434" stroke="#343434" points="526.5,-390 353.5,-390 353.5,-354 526.5,-354 526.5,-390"/>
<text text-anchor="middle" x="440" y="-368.3" font-family="Courier,monospace" font-size="14.00" fill="#de958e">openexr_tools.tools</text>
</g>
<!-- openexr_tools\.tools&#45;&gt;cv_depot\.core\.image -->
<g id="edge26" class="edge">
<title>openexr_tools\.tools&#45;&gt;cv_depot\.core\.image</title>
<path fill="none" stroke="#de958e" d="M512.68,-353.93C520.34,-351.26 527.91,-348.28 535,-345 567.98,-329.72 602.14,-306.14 625.8,-288.36"/>
<polygon fill="#de958e" stroke="#de958e" points="628.19,-290.94 634.02,-282.1 623.95,-285.37 628.19,-290.94"/>
</g>
<!-- skimage\.io -->
<g id="node18" class="node">
<title>skimage\.io</title>
<polygon fill="#343434" stroke="#343434" points="489.5,-336 390.5,-336 390.5,-300 489.5,-300 489.5,-336"/>
<text text-anchor="middle" x="440" y="-314.3" font-family="Courier,monospace" font-size="14.00" fill="#de958e">skimage.io</text>
</g>
<!-- skimage\.io&#45;&gt;cv_depot\.core\.image -->
<g id="edge27" class="edge">
<title>skimage\.io&#45;&gt;cv_depot\.core\.image</title>
<path fill="none" stroke="#de958e" d="M489.63,-305.81C514.62,-299.55 545.74,-291.75 574.33,-284.59"/>
<polygon fill="#de958e" stroke="#de958e" points="575.46,-287.91 584.31,-282.09 573.76,-281.12 575.46,-287.91"/>
</g>
</g>
</svg>
