<?xml version="1.0" encoding="UTF-8" standalone="no"?>
<!DOCTYPE svg PUBLIC "-//W3C//DTD SVG 1.1//EN"
 "http://www.w3.org/Graphics/SVG/1.1/DTD/svg11.dtd">
<!-- Generated by graphviz version 2.43.0 (0)
 -->
<!-- Title: %3 Pages: 1 -->
<svg width="1783pt" height="1424pt"
 viewBox="0.00 0.00 1783.00 1424.14" xmlns="http://www.w3.org/2000/svg" xmlns:xlink="http://www.w3.org/1999/xlink">
<g id="graph0" class="graph" transform="scale(1 1) rotate(0) translate(4 1420.14)">
<title>%3</title>
<polygon fill="#242424" stroke="transparent" points="-4,4 -4,-1420.14 1779,-1420.14 1779,4 -4,4"/>
<!-- cli -->
<g id="node1" class="node">
<title>cli</title>
<polygon fill="#343434" stroke="#343434" points="68.5,-100.14 14.5,-100.14 14.5,-64.14 68.5,-64.14 68.5,-100.14"/>
<text text-anchor="middle" x="41.5" y="-78.44" font-family="Courier,monospace" font-size="14.00" fill="#b6ecf3">cli</text>
</g>
<!-- cv_depot\.api -->
<g id="node2" class="node">
<title>cv_depot\.api</title>
<polygon fill="#343434" stroke="#343434" points="1356,-835.14 1240,-835.14 1240,-799.14 1356,-799.14 1356,-835.14"/>
<text text-anchor="middle" x="1298" y="-813.44" font-family="Courier,monospace" font-size="14.00" fill="#b6ecf3">cv_depot.api</text>
</g>
<!-- cv_depot\.command -->
<g id="node3" class="node">
<title>cv_depot\.command</title>
<polygon fill="#343434" stroke="#343434" points="268,-154.14 119,-154.14 119,-118.14 268,-118.14 268,-154.14"/>
<text text-anchor="middle" x="193.5" y="-132.44" font-family="Courier,monospace" font-size="14.00" fill="#b6ecf3">cv_depot.command</text>
</g>
<!-- cv_depot\.core\.channel_map -->
<g id="node4" class="node">
<title>cv_depot\.core\.channel_map</title>
<polygon fill="#343434" stroke="#343434" points="1171,-1054.14 948,-1054.14 948,-1018.14 1171,-1018.14 1171,-1054.14"/>
<text text-anchor="middle" x="1059.5" y="-1032.44" font-family="Courier,monospace" font-size="14.00" fill="#b6ecf3">cv_depot.core.channel_map</text>
</g>
<!-- cv_depot\.core\.channel_map&#45;&gt;cv_depot\.api -->
<g id="edge1" class="edge">
<title>cv_depot\.core\.channel_map&#45;&gt;cv_depot\.api</title>
<path fill="none" stroke="#b6ecf3" d="M1152.26,-1018.06C1159.13,-1014.26 1165.51,-1009.67 1171,-1004.14 1212.63,-962.19 1172.07,-923.81 1207,-876.14 1217.62,-861.65 1232.95,-849.73 1247.96,-840.48"/>
<polygon fill="#b6ecf3" stroke="#b6ecf3" points="1249.87,-843.42 1256.73,-835.35 1246.33,-837.38 1249.87,-843.42"/>
</g>
<!-- cv_depot\.ops\.channel -->
<g id="node13" class="node">
<title>cv_depot\.ops\.channel</title>
<polygon fill="#343434" stroke="#343434" points="1389,-645.14 1207,-645.14 1207,-609.14 1389,-609.14 1389,-645.14"/>
<text text-anchor="middle" x="1298" y="-623.44" font-family="Courier,monospace" font-size="14.00" fill="#b6ecf3">cv_depot.ops.channel</text>
</g>
<!-- cv_depot\.core\.channel_map&#45;&gt;cv_depot\.ops\.channel -->
<g id="edge2" class="edge">
<title>cv_depot\.core\.channel_map&#45;&gt;cv_depot\.ops\.channel</title>
<path fill="none" stroke="#b6ecf3" d="M1153.95,-1018.07C1160.28,-1014.25 1166.08,-1009.66 1171,-1004.14 1235.16,-932.13 1175.24,-881.21 1207,-790.14 1224.83,-739.02 1257.85,-685.03 1278.55,-653.8"/>
<polygon fill="#b6ecf3" stroke="#b6ecf3" points="1281.63,-655.49 1284.3,-645.24 1275.82,-651.59 1281.63,-655.49"/>
</g>
<!-- cv_depot\.ops\.draw -->
<g id="node14" class="node">
<title>cv_depot\.ops\.draw</title>
<polygon fill="#343434" stroke="#343434" points="1582,-606.14 1425,-606.14 1425,-570.14 1582,-570.14 1582,-606.14"/>
<text text-anchor="middle" x="1503.5" y="-584.44" font-family="Courier,monospace" font-size="14.00" fill="#b6ecf3">cv_depot.ops.draw</text>
</g>
<!-- cv_depot\.core\.channel_map&#45;&gt;cv_depot\.ops\.draw -->
<g id="edge3" class="edge">
<title>cv_depot\.core\.channel_map&#45;&gt;cv_depot\.ops\.draw</title>
<path fill="none" stroke="#b6ecf3" d="M1136.14,-1018.09C1148.07,-1014.16 1160.07,-1009.52 1171,-1004.14 1278.82,-951.05 1313.66,-937.78 1389,-844.14 1446.9,-772.17 1481.37,-666.03 1495.3,-616.07"/>
<polygon fill="#b6ecf3" stroke="#b6ecf3" points="1498.71,-616.87 1497.96,-606.3 1491.96,-615.03 1498.71,-616.87"/>
</g>
<!-- cv_depot\.core\.color -->
<g id="node5" class="node">
<title>cv_depot\.core\.color</title>
<polygon fill="#343434" stroke="#343434" points="703,-466.14 530,-466.14 530,-430.14 703,-430.14 703,-466.14"/>
<text text-anchor="middle" x="616.5" y="-444.44" font-family="Courier,monospace" font-size="14.00" fill="#b6ecf3">cv_depot.core.color</text>
</g>
<!-- cv_depot\.core\.color&#45;&gt;cv_depot\.api -->
<g id="edge4" class="edge">
<title>cv_depot\.core\.color&#45;&gt;cv_depot\.api</title>
<path fill="none" stroke="#b6ecf3" d="M659.75,-466.14C718.13,-491.66 825.99,-541.18 912,-594.14 929.03,-604.63 930.52,-611.42 948,-621.14 1040.97,-672.87 1079.89,-653.21 1171,-708.14 1209.89,-731.59 1248.47,-767.28 1272.5,-791.37"/>
<polygon fill="#b6ecf3" stroke="#b6ecf3" points="1270.26,-794.08 1279.77,-798.75 1275.24,-789.17 1270.26,-794.08"/>
</g>
<!-- cv_depot\.core\.types -->
<g id="node10" class="node">
<title>cv_depot\.core\.types</title>
<polygon fill="#343434" stroke="#343434" points="912,-298.14 739,-298.14 739,-262.14 912,-262.14 912,-298.14"/>
<text text-anchor="middle" x="825.5" y="-276.44" font-family="Courier,monospace" font-size="14.00" fill="#b6ecf3">cv_depot.core.types</text>
</g>
<!-- cv_depot\.core\.color&#45;&gt;cv_depot\.core\.types -->
<g id="edge5" class="edge">
<title>cv_depot\.core\.color&#45;&gt;cv_depot\.core\.types</title>
<path fill="none" stroke="#b6ecf3" d="M679.86,-430.02C688.4,-425.53 696.46,-419.98 703,-413.14 735.91,-378.67 705.57,-346.1 739,-312.14 742.06,-309.03 745.46,-306.21 749.08,-303.67"/>
<polygon fill="#b6ecf3" stroke="#b6ecf3" points="751.23,-306.46 757.88,-298.22 747.54,-300.51 751.23,-306.46"/>
</g>
<!-- cv_depot\.core\.color&#45;&gt;cv_depot\.ops\.channel -->
<g id="edge6" class="edge">
<title>cv_depot\.core\.color&#45;&gt;cv_depot\.ops\.channel</title>
<path fill="none" stroke="#b6ecf3" d="M703.15,-449.71C766.81,-455.01 852.56,-471.3 912,-518.14 939.79,-540.04 918.9,-569.02 948,-589.14 987.1,-616.18 1108.13,-624.37 1196.72,-626.65"/>
<polygon fill="#b6ecf3" stroke="#b6ecf3" points="1196.74,-630.15 1206.82,-626.89 1196.9,-623.16 1196.74,-630.15"/>
</g>
<!-- cv_depot\.core\.color&#45;&gt;cv_depot\.ops\.draw -->
<g id="edge7" class="edge">
<title>cv_depot\.core\.color&#45;&gt;cv_depot\.ops\.draw</title>
<path fill="none" stroke="#b6ecf3" d="M670.07,-429.93C681.81,-424.21 693.57,-417.01 703,-408.14 727.34,-385.25 710.68,-359.88 739,-342.14 820.38,-291.16 1077.62,-309.74 1171,-332.14 1276.72,-357.51 1305.06,-374.03 1389,-443.14 1430.78,-477.54 1466.94,-529.85 1486.64,-561.34"/>
<polygon fill="#b6ecf3" stroke="#b6ecf3" points="1483.76,-563.34 1491.98,-570.02 1489.72,-559.67 1483.76,-563.34"/>
</g>
<!-- cv_depot\.ops\.edit -->
<g id="node15" class="node">
<title>cv_depot\.ops\.edit</title>
<polygon fill="#343434" stroke="#343434" points="1775,-478.14 1618,-478.14 1618,-442.14 1775,-442.14 1775,-478.14"/>
<text text-anchor="middle" x="1696.5" y="-456.44" font-family="Courier,monospace" font-size="14.00" fill="#b6ecf3">cv_depot.ops.edit</text>
</g>
<!-- cv_depot\.core\.color&#45;&gt;cv_depot\.ops\.edit -->
<g id="edge8" class="edge">
<title>cv_depot\.core\.color&#45;&gt;cv_depot\.ops\.edit</title>
<path fill="none" stroke="#b6ecf3" d="M623.6,-429.87C637.52,-391.03 675.44,-300.02 739,-253.14 972.33,-81.06 1101.87,-158.03 1389,-198.14 1477.33,-210.48 1512.28,-197.51 1582,-253.14 1641.32,-300.47 1674.2,-387.62 1687.86,-432.23"/>
<polygon fill="#b6ecf3" stroke="#b6ecf3" points="1684.59,-433.5 1690.78,-442.1 1691.3,-431.52 1684.59,-433.5"/>
</g>
<!-- cv_depot\.ops\.filter -->
<g id="node16" class="node">
<title>cv_depot\.ops\.filter</title>
<polygon fill="#343434" stroke="#343434" points="1384.5,-488.14 1211.5,-488.14 1211.5,-452.14 1384.5,-452.14 1384.5,-488.14"/>
<text text-anchor="middle" x="1298" y="-466.44" font-family="Courier,monospace" font-size="14.00" fill="#b6ecf3">cv_depot.ops.filter</text>
</g>
<!-- cv_depot\.core\.color&#45;&gt;cv_depot\.ops\.filter -->
<g id="edge9" class="edge">
<title>cv_depot\.core\.color&#45;&gt;cv_depot\.ops\.filter</title>
<path fill="none" stroke="#b6ecf3" d="M659.97,-429.99C673.93,-423.58 689.37,-415.99 703,-408.14 719.88,-398.42 720.91,-390.36 739,-383.14 828.42,-347.48 1081.55,-315.58 1171,-351.14 1217.82,-369.76 1257.31,-414.94 1279.02,-443.97"/>
<polygon fill="#b6ecf3" stroke="#b6ecf3" points="1276.19,-446.04 1284.91,-452.05 1281.85,-441.91 1276.19,-446.04"/>
</g>
<!-- cv_depot\.core\.enforce -->
<g id="node6" class="node">
<title>cv_depot\.core\.enforce</title>
<polygon fill="#343434" stroke="#343434" points="494,-1008.14 304,-1008.14 304,-972.14 494,-972.14 494,-1008.14"/>
<text text-anchor="middle" x="399" y="-986.44" font-family="Courier,monospace" font-size="14.00" fill="#b6ecf3">cv_depot.core.enforce</text>
</g>
<!-- cv_depot\.core\.enforce&#45;&gt;cv_depot\.ops\.edit -->
<g id="edge10" class="edge">
<title>cv_depot\.core\.enforce&#45;&gt;cv_depot\.ops\.edit</title>
<path fill="none" stroke="#b6ecf3" d="M411.79,-1008.26C456.71,-1074.85 624.65,-1302.14 824.5,-1302.14 824.5,-1302.14 824.5,-1302.14 1299,-1302.14 1667.07,-1302.14 1694.05,-635.43 1695.53,-488.54"/>
<polygon fill="#b6ecf3" stroke="#b6ecf3" points="1699.03,-488.53 1695.59,-478.51 1692.03,-488.49 1699.03,-488.53"/>
</g>
<!-- cv_depot\.core\.enum -->
<g id="node7" class="node">
<title>cv_depot\.core\.enum</title>
<polygon fill="#343434" stroke="#343434" points="481.5,-569.14 316.5,-569.14 316.5,-533.14 481.5,-533.14 481.5,-569.14"/>
<text text-anchor="middle" x="399" y="-547.44" font-family="Courier,monospace" font-size="14.00" fill="#b6ecf3">cv_depot.core.enum</text>
</g>
<!-- cv_depot\.core\.enum&#45;&gt;cv_depot\.api -->
<g id="edge11" class="edge">
<title>cv_depot\.core\.enum&#45;&gt;cv_depot\.api</title>
<path fill="none" stroke="#b6ecf3" d="M481.64,-567.99C604.73,-593.63 831.99,-641.89 912,-665.14 928.34,-669.89 931.85,-672.8 948,-678.14 1046.26,-710.62 1075.9,-704.32 1171,-745.14 1202.55,-758.68 1236.21,-778.21 1260.8,-793.51"/>
<polygon fill="#b6ecf3" stroke="#b6ecf3" points="1259.1,-796.58 1269.42,-798.94 1262.82,-790.65 1259.1,-796.58"/>
</g>
<!-- cv_depot\.core\.enum&#45;&gt;cv_depot\.core\.color -->
<g id="edge12" class="edge">
<title>cv_depot\.core\.enum&#45;&gt;cv_depot\.core\.color</title>
<path fill="none" stroke="#b6ecf3" d="M433.54,-533.05C451.5,-523.33 473.98,-511.13 494,-500.14 510.04,-491.33 513.38,-487.81 530,-480.14 537.65,-476.61 545.82,-473.16 553.95,-469.92"/>
<polygon fill="#b6ecf3" stroke="#b6ecf3" points="555.4,-473.11 563.45,-466.21 552.86,-466.58 555.4,-473.11"/>
</g>
<!-- cv_depot\.core\.image -->
<g id="node8" class="node">
<title>cv_depot\.core\.image</title>
<polygon fill="#343434" stroke="#343434" points="1146,-790.14 973,-790.14 973,-754.14 1146,-754.14 1146,-790.14"/>
<text text-anchor="middle" x="1059.5" y="-768.44" font-family="Courier,monospace" font-size="14.00" fill="#b6ecf3">cv_depot.core.image</text>
</g>
<!-- cv_depot\.core\.enum&#45;&gt;cv_depot\.core\.image -->
<g id="edge13" class="edge">
<title>cv_depot\.core\.enum&#45;&gt;cv_depot\.core\.image</title>
<path fill="none" stroke="#b6ecf3" d="M431.75,-569.24C457.88,-583.95 496.02,-605 530,-622.14 621.43,-668.26 641.15,-688.93 739,-719.14 812.43,-741.81 898.54,-755.38 962.84,-763.11"/>
<polygon fill="#b6ecf3" stroke="#b6ecf3" points="962.63,-766.61 972.97,-764.3 963.45,-759.66 962.63,-766.61"/>
</g>
<!-- cv_depot\.core\.enum&#45;&gt;cv_depot\.core\.types -->
<g id="edge14" class="edge">
<title>cv_depot\.core\.enum&#45;&gt;cv_depot\.core\.types</title>
<path fill="none" stroke="#b6ecf3" d="M413.47,-532.8C435.02,-504.74 479.94,-451.24 530,-421.14 598.92,-379.7 638.9,-416.7 703,-368.14 726.58,-350.27 715.97,-330.72 739,-312.14 743.24,-308.72 747.88,-305.64 752.75,-302.87"/>
<polygon fill="#b6ecf3" stroke="#b6ecf3" points="754.43,-305.94 761.69,-298.22 751.2,-299.73 754.43,-305.94"/>
</g>
<!-- cv_depot\.core\.video -->
<g id="node11" class="node">
<title>cv_depot\.core\.video</title>
<polygon fill="#343434" stroke="#343434" points="1146,-580.14 973,-580.14 973,-544.14 1146,-544.14 1146,-580.14"/>
<text text-anchor="middle" x="1059.5" y="-558.44" font-family="Courier,monospace" font-size="14.00" fill="#b6ecf3">cv_depot.core.video</text>
</g>
<!-- cv_depot\.core\.enum&#45;&gt;cv_depot\.core\.video -->
<g id="edge15" class="edge">
<title>cv_depot\.core\.enum&#45;&gt;cv_depot\.core\.video</title>
<path fill="none" stroke="#b6ecf3" d="M481.59,-551.15C582.64,-551.35 760.04,-552.29 912,-556.14 928.33,-556.55 945.68,-557.14 962.51,-557.78"/>
<polygon fill="#b6ecf3" stroke="#b6ecf3" points="962.79,-561.29 972.91,-558.19 963.06,-554.3 962.79,-561.29"/>
</g>
<!-- cv_depot\.core\.enum&#45;&gt;cv_depot\.ops\.channel -->
<g id="edge16" class="edge">
<title>cv_depot\.core\.enum&#45;&gt;cv_depot\.ops\.channel</title>
<path fill="none" stroke="#b6ecf3" d="M481.69,-555.52C616.09,-563.09 872.89,-579.26 912,-594.14 930.69,-601.25 929.08,-614.65 948,-621.14 1028.31,-648.68 1125.26,-647.87 1196.57,-641.5"/>
<polygon fill="#b6ecf3" stroke="#b6ecf3" points="1197.27,-644.95 1206.9,-640.52 1196.61,-637.98 1197.27,-644.95"/>
</g>
<!-- cv_depot\.core\.enum&#45;&gt;cv_depot\.ops\.edit -->
<g id="edge17" class="edge">
<title>cv_depot\.core\.enum&#45;&gt;cv_depot\.ops\.edit</title>
<path fill="none" stroke="#b6ecf3" d="M405.08,-533.1C431.69,-442.78 563.9,-44.14 824.5,-44.14 824.5,-44.14 824.5,-44.14 1299,-44.14 1442.41,-44.14 1485.31,-93.23 1582,-199.14 1645.9,-269.12 1677.76,-380.74 1689.72,-432.32"/>
<polygon fill="#b6ecf3" stroke="#b6ecf3" points="1686.31,-433.11 1691.91,-442.1 1693.14,-431.57 1686.31,-433.11"/>
</g>
<!-- cv_depot\.core\.image&#45;&gt;cv_depot\.api -->
<g id="edge18" class="edge">
<title>cv_depot\.core\.image&#45;&gt;cv_depot\.api</title>
<path fill="none" stroke="#b6ecf3" d="M1146.22,-788.45C1173.76,-793.69 1203.85,-799.42 1229.86,-804.37"/>
<polygon fill="#b6ecf3" stroke="#b6ecf3" points="1229.51,-807.86 1239.99,-806.29 1230.82,-800.98 1229.51,-807.86"/>
</g>
<!-- cv_depot\.core\.image&#45;&gt;cv_depot\.ops\.channel -->
<g id="edge19" class="edge">
<title>cv_depot\.core\.image&#45;&gt;cv_depot\.ops\.channel</title>
<path fill="none" stroke="#b6ecf3" d="M1086.22,-754.03C1115.11,-733.95 1163.63,-700.98 1207,-675.14 1221.35,-666.59 1237.35,-657.82 1251.83,-650.16"/>
<polygon fill="#b6ecf3" stroke="#b6ecf3" points="1253.86,-653.04 1261.09,-645.3 1250.61,-646.85 1253.86,-653.04"/>
</g>
<!-- cv_depot\.core\.image&#45;&gt;cv_depot\.ops\.draw -->
<g id="edge20" class="edge">
<title>cv_depot\.core\.image&#45;&gt;cv_depot\.ops\.draw</title>
<path fill="none" stroke="#b6ecf3" d="M1120.85,-754.1C1187.76,-733.28 1298.22,-696.41 1389,-654.14 1415.7,-641.71 1444.36,-625.02 1466.2,-611.53"/>
<polygon fill="#b6ecf3" stroke="#b6ecf3" points="1468.18,-614.42 1474.81,-606.15 1464.48,-608.48 1468.18,-614.42"/>
</g>
<!-- cv_depot\.core\.image&#45;&gt;cv_depot\.ops\.edit -->
<g id="edge21" class="edge">
<title>cv_depot\.core\.image&#45;&gt;cv_depot\.ops\.edit</title>
<path fill="none" stroke="#b6ecf3" d="M1146.34,-769.59C1257.88,-762.11 1453.51,-734.26 1582,-633.14 1632.14,-593.68 1667.34,-525.69 1684.2,-487.76"/>
<polygon fill="#b6ecf3" stroke="#b6ecf3" points="1687.51,-488.92 1688.28,-478.35 1681.09,-486.14 1687.51,-488.92"/>
</g>
<!-- cv_depot\.core\.image&#45;&gt;cv_depot\.ops\.filter -->
<g id="edge22" class="edge">
<title>cv_depot\.core\.image&#45;&gt;cv_depot\.ops\.filter</title>
<path fill="none" stroke="#b6ecf3" d="M1074.94,-753.7C1115.28,-702.19 1229.28,-556.62 1276.31,-496.56"/>
<polygon fill="#b6ecf3" stroke="#b6ecf3" points="1279.34,-498.37 1282.75,-488.34 1273.83,-494.05 1279.34,-498.37"/>
</g>
<!-- cv_depot\.core\.tools -->
<g id="node9" class="node">
<title>cv_depot\.core\.tools</title>
<polygon fill="#343434" stroke="#343434" points="703,-840.14 530,-840.14 530,-804.14 703,-804.14 703,-840.14"/>
<text text-anchor="middle" x="616.5" y="-818.44" font-family="Courier,monospace" font-size="14.00" fill="#b6ecf3">cv_depot.core.tools</text>
</g>
<!-- cv_depot\.core\.tools&#45;&gt;cv_depot\.core\.image -->
<g id="edge23" class="edge">
<title>cv_depot\.core\.tools&#45;&gt;cv_depot\.core\.image</title>
<path fill="none" stroke="#b6ecf3" d="M628.99,-840.21C647.94,-868.12 688.7,-920.61 739,-941.14 810.19,-970.19 842.06,-973.07 912,-941.14 976.26,-911.8 1023.17,-838.82 1044.94,-799.04"/>
<polygon fill="#b6ecf3" stroke="#b6ecf3" points="1048.06,-800.62 1049.69,-790.15 1041.89,-797.32 1048.06,-800.62"/>
</g>
<!-- cv_depot\.core\.types&#45;&gt;cv_depot\.core\.image -->
<g id="edge24" class="edge">
<title>cv_depot\.core\.types&#45;&gt;cv_depot\.core\.image</title>
<path fill="none" stroke="#b6ecf3" d="M846.97,-298.49C866.9,-317.59 896.4,-349.39 912,-383.14 950.99,-467.51 915.42,-502.09 948,-589.14 970.55,-649.38 1013.21,-711.93 1038.42,-746.05"/>
<polygon fill="#b6ecf3" stroke="#b6ecf3" points="1035.64,-748.18 1044.43,-754.1 1041.25,-743.99 1035.64,-748.18"/>
</g>
<!-- cv_depot\.core\.types&#45;&gt;cv_depot\.core\.video -->
<g id="edge25" class="edge">
<title>cv_depot\.core\.types&#45;&gt;cv_depot\.core\.video</title>
<path fill="none" stroke="#b6ecf3" d="M846.13,-298.36C865.69,-317.6 895.17,-349.72 912,-383.14 942.25,-443.22 901.44,-481.6 948,-530.14 952.74,-535.08 958.19,-539.27 964.07,-542.82"/>
<polygon fill="#b6ecf3" stroke="#b6ecf3" points="962.5,-545.95 972.97,-547.59 965.81,-539.78 962.5,-545.95"/>
</g>
<!-- cv_depot\.core\.types&#45;&gt;cv_depot\.ops\.draw -->
<g id="edge26" class="edge">
<title>cv_depot\.core\.types&#45;&gt;cv_depot\.ops\.draw</title>
<path fill="none" stroke="#b6ecf3" d="M895.86,-262.08C1011.69,-236.38 1245.84,-204.09 1389,-318.14 1466.37,-379.78 1491.69,-503.65 1499.39,-559.58"/>
<polygon fill="#b6ecf3" stroke="#b6ecf3" points="1495.96,-560.35 1500.71,-569.82 1502.91,-559.45 1495.96,-560.35"/>
</g>
<!-- cv_depot\.core\.types&#45;&gt;cv_depot\.ops\.edit -->
<g id="edge27" class="edge">
<title>cv_depot\.core\.types&#45;&gt;cv_depot\.ops\.edit</title>
<path fill="none" stroke="#b6ecf3" d="M863.52,-262.11C887.09,-251.65 918.6,-239.52 948,-234.14 1140.83,-198.86 1203.38,-179.09 1389,-242.14 1508.73,-282.81 1622.69,-386.68 1671.11,-434.88"/>
<polygon fill="#b6ecf3" stroke="#b6ecf3" points="1668.78,-437.49 1678.31,-442.11 1673.74,-432.56 1668.78,-437.49"/>
</g>
<!-- cv_depot\.core\.types&#45;&gt;cv_depot\.ops\.filter -->
<g id="edge28" class="edge">
<title>cv_depot\.core\.types&#45;&gt;cv_depot\.ops\.filter</title>
<path fill="none" stroke="#b6ecf3" d="M838.55,-298.55C857.96,-326.56 898.98,-379.36 948,-405.14 1036.98,-451.94 1072.27,-424.16 1171,-443.14 1182.13,-445.28 1193.79,-447.63 1205.33,-450.02"/>
<polygon fill="#b6ecf3" stroke="#b6ecf3" points="1204.92,-453.51 1215.43,-452.13 1206.36,-446.66 1204.92,-453.51"/>
</g>
<!-- cv_depot\.core\.viewer -->
<g id="node12" class="node">
<title>cv_depot\.core\.viewer</title>
<polygon fill="#343434" stroke="#343434" points="490,-954.14 308,-954.14 308,-918.14 490,-918.14 490,-954.14"/>
<text text-anchor="middle" x="399" y="-932.44" font-family="Courier,monospace" font-size="14.00" fill="#b6ecf3">cv_depot.core.viewer</text>
</g>
<!-- cv_depot\.core\.viewer&#45;&gt;cv_depot\.core\.image -->
<g id="edge29" class="edge">
<title>cv_depot\.core\.viewer&#45;&gt;cv_depot\.core\.image</title>
<path fill="none" stroke="#b6ecf3" d="M472.8,-954.3C480.1,-956.93 487.28,-959.87 494,-963.14 511.75,-971.77 511.58,-982.05 530,-989.14 688.73,-1050.26 767.8,-1102.34 912,-1012.14 943.01,-992.74 929.83,-969.88 948,-938.14 977.09,-887.34 1015.96,-831.22 1039,-798.98"/>
<polygon fill="#b6ecf3" stroke="#b6ecf3" points="1042.07,-800.7 1045.06,-790.54 1036.39,-796.62 1042.07,-800.7"/>
</g>
<!-- cv_depot\.ops\.channel&#45;&gt;cv_depot\.ops\.draw -->
<g id="edge30" class="edge">
<title>cv_depot\.ops\.channel&#45;&gt;cv_depot\.ops\.draw</title>
<path fill="none" stroke="#b6ecf3" d="M1360.33,-609.13C1377.42,-605.42 1396.31,-601.65 1414.6,-598.29"/>
<polygon fill="#b6ecf3" stroke="#b6ecf3" points="1415.47,-601.69 1424.68,-596.47 1414.22,-594.8 1415.47,-601.69"/>
</g>
<!-- cv_depot\.ops\.draw&#45;&gt;cv_depot\.ops\.channel -->
<g id="edge31" class="edge">
<title>cv_depot\.ops\.draw&#45;&gt;cv_depot\.ops\.channel</title>
<path fill="none" stroke="#b6ecf3" d="M1441.05,-606.17C1427.76,-609.06 1413.38,-611.98 1399.05,-614.72"/>
<polygon fill="#b6ecf3" stroke="#b6ecf3" points="1398.33,-611.29 1389.15,-616.58 1399.62,-618.17 1398.33,-611.29"/>
</g>
<!-- cv_depot\.ops\.draw&#45;&gt;cv_depot\.ops\.draw -->
<g id="edge32" class="edge">
<title>cv_depot\.ops\.draw&#45;&gt;cv_depot\.ops\.draw</title>
<path fill="none" stroke="#b6ecf3" d="M1468.77,-606.29C1463.42,-615.68 1475,-624.14 1503.5,-624.14 1520.87,-624.14 1531.95,-621 1536.75,-616.42"/>
<polygon fill="#b6ecf3" stroke="#b6ecf3" points="1540.25,-616.7 1538.23,-606.29 1533.32,-615.68 1540.25,-616.7"/>
</g>
<!-- cv_depot\.ops\.draw&#45;&gt;cv_depot\.ops\.edit -->
<g id="edge33" class="edge">
<title>cv_depot\.ops\.draw&#45;&gt;cv_depot\.ops\.edit</title>
<path fill="none" stroke="#b6ecf3" d="M1531.46,-570.07C1565.07,-547.55 1622.6,-508.99 1659.83,-484.05"/>
<polygon fill="#b6ecf3" stroke="#b6ecf3" points="1662.01,-486.8 1668.37,-478.32 1658.11,-480.98 1662.01,-486.8"/>
</g>
<!-- cv_depot\.ops\.filter&#45;&gt;cv_depot\.ops\.draw -->
<g id="edge34" class="edge">
<title>cv_depot\.ops\.filter&#45;&gt;cv_depot\.ops\.draw</title>
<path fill="none" stroke="#b6ecf3" d="M1330.35,-488.32C1365.86,-508.91 1423.8,-542.5 1462.52,-564.96"/>
<polygon fill="#b6ecf3" stroke="#b6ecf3" points="1461.04,-568.15 1471.45,-570.13 1464.55,-562.09 1461.04,-568.15"/>
</g>
<!-- click -->
<g id="node17" class="node">
<title>click</title>
<polygon fill="#343434" stroke="#343434" points="70.5,-154.14 12.5,-154.14 12.5,-118.14 70.5,-118.14 70.5,-154.14"/>
<text text-anchor="middle" x="41.5" y="-132.44" font-family="Courier,monospace" font-size="14.00" fill="#de958e">click</text>
</g>
<!-- click&#45;&gt;cv_depot\.command -->
<g id="edge35" class="edge">
<title>click&#45;&gt;cv_depot\.command</title>
<path fill="none" stroke="#de958e" d="M70.71,-136.14C81.78,-136.14 95.1,-136.14 108.82,-136.14"/>
<polygon fill="#de958e" stroke="#de958e" points="108.85,-139.64 118.85,-136.14 108.85,-132.64 108.85,-139.64"/>
</g>
<!-- cv_depot -->
<g id="node18" class="node">
<title>cv_depot</title>
<polygon fill="#343434" stroke="#343434" points="83,-1076.14 0,-1076.14 0,-1040.14 83,-1040.14 83,-1076.14"/>
<text text-anchor="middle" x="41.5" y="-1054.44" font-family="Courier,monospace" font-size="14.00" fill="#a0d17b">cv_depot</text>
</g>
<!-- cv_depot&#45;&gt;cv_depot\.api -->
<g id="edge36" class="edge">
<title>cv_depot&#45;&gt;cv_depot\.api</title>
<path fill="none" stroke="#a0d17b" d="M48.06,-1076.44C58.25,-1107.81 82.3,-1172.76 119,-1217.14 210.23,-1327.47 254.84,-1378.14 398,-1378.14 398,-1378.14 398,-1378.14 617.5,-1378.14 889.48,-1378.14 991.6,-1321.56 1171,-1117.14 1243.99,-1033.97 1279.05,-902.44 1291.49,-845.25"/>
<polygon fill="#a0d17b" stroke="#a0d17b" points="1294.98,-845.66 1293.62,-835.15 1288.13,-844.21 1294.98,-845.66"/>
</g>
<!-- cv_depot&#45;&gt;cv_depot\.command -->
<g id="edge37" class="edge">
<title>cv_depot&#45;&gt;cv_depot\.command</title>
<path fill="none" stroke="#a0d17b" d="M42.9,-1039.9C45.69,-918.98 63.82,-235.42 119,-163.14 119.48,-162.51 119.98,-161.9 120.49,-161.3"/>
<polygon fill="#a0d17b" stroke="#a0d17b" points="123.04,-163.7 127.9,-154.29 118.23,-158.62 123.04,-163.7"/>
</g>
<!-- cv_depot\.ops -->
<g id="node20" class="node">
<title>cv_depot\.ops</title>
<polygon fill="#343434" stroke="#343434" points="1117.5,-1108.14 1001.5,-1108.14 1001.5,-1072.14 1117.5,-1072.14 1117.5,-1108.14"/>
<text text-anchor="middle" x="1059.5" y="-1086.44" font-family="Courier,monospace" font-size="14.00" fill="#a0d17b">cv_depot.ops</text>
</g>
<!-- cv_depot&#45;&gt;cv_depot\.ops -->
<g id="edge38" class="edge">
<title>cv_depot&#45;&gt;cv_depot\.ops</title>
<path fill="none" stroke="#a0d17b" d="M52.37,-1076.4C65.13,-1098.47 89.28,-1135.48 119,-1158.14 224.48,-1238.57 265.35,-1264.14 398,-1264.14 398,-1264.14 398,-1264.14 617.5,-1264.14 748.9,-1264.14 793.08,-1294.02 912,-1238.14 969.37,-1211.18 1016.88,-1151.73 1041.12,-1116.94"/>
<polygon fill="#a0d17b" stroke="#a0d17b" points="1044.31,-1118.47 1047.05,-1108.24 1038.52,-1114.53 1044.31,-1118.47"/>
</g>
<!-- cv_depot\.core -->
<g id="node21" class="node">
<title>cv_depot\.core</title>
<polygon fill="#343434" stroke="#343434" points="255.5,-851.14 131.5,-851.14 131.5,-815.14 255.5,-815.14 255.5,-851.14"/>
<text text-anchor="middle" x="193.5" y="-829.44" font-family="Courier,monospace" font-size="14.00" fill="#a0d17b">cv_depot.core</text>
</g>
<!-- cv_depot&#45;&gt;cv_depot\.core -->
<g id="edge39" class="edge">
<title>cv_depot&#45;&gt;cv_depot\.core</title>
<path fill="none" stroke="#a0d17b" d="M47.04,-1040C56.13,-1006.47 79.18,-933.81 119,-885.14 127.75,-874.44 139.23,-864.93 150.51,-857.06"/>
<polygon fill="#a0d17b" stroke="#a0d17b" points="152.67,-859.82 159.05,-851.37 148.78,-854 152.67,-859.82"/>
</g>
<!-- IPython\.display -->
<g id="node19" class="node">
<title>IPython\.display</title>
<polygon fill="#343434" stroke="#343434" points="263.5,-984.14 123.5,-984.14 123.5,-948.14 263.5,-948.14 263.5,-984.14"/>
<text text-anchor="middle" x="193.5" y="-962.44" font-family="Courier,monospace" font-size="14.00" fill="#de958e">IPython.display</text>
</g>
<!-- IPython\.display&#45;&gt;cv_depot\.core\.viewer -->
<g id="edge40" class="edge">
<title>IPython\.display&#45;&gt;cv_depot\.core\.viewer</title>
<path fill="none" stroke="#de958e" d="M263.68,-955.94C274.64,-954.33 286.17,-952.63 297.67,-950.93"/>
<polygon fill="#de958e" stroke="#de958e" points="298.37,-954.37 307.75,-949.44 297.35,-947.44 298.37,-954.37"/>
</g>
<!-- cv_depot\.ops&#45;&gt;cv_depot\.api -->
<g id="edge41" class="edge">
<title>cv_depot\.ops&#45;&gt;cv_depot\.api</title>
<path fill="none" stroke="#a0d17b" d="M1117.68,-1085.96C1136.29,-1082.19 1156,-1075.37 1171,-1063.14 1199.97,-1039.52 1190.25,-1020.55 1207,-987.14 1232.47,-936.33 1263.85,-877.94 1282.03,-844.51"/>
<polygon fill="#a0d17b" stroke="#a0d17b" points="1285.3,-845.82 1287.01,-835.37 1279.15,-842.47 1285.3,-845.82"/>
</g>
<!-- cv_depot\.ops&#45;&gt;cv_depot\.ops\.channel -->
<g id="edge42" class="edge">
<title>cv_depot\.ops&#45;&gt;cv_depot\.ops\.channel</title>
<path fill="none" stroke="#a0d17b" d="M1117.75,-1088.86C1137.28,-1085.47 1157.55,-1078.14 1171,-1063.14 1211.86,-1017.59 1187.88,-848.27 1207,-790.14 1223.92,-738.72 1257.22,-684.82 1278.22,-653.69"/>
<polygon fill="#a0d17b" stroke="#a0d17b" points="1281.3,-655.39 1284.06,-645.16 1275.52,-651.44 1281.3,-655.39"/>
</g>
<!-- cv_depot\.ops&#45;&gt;cv_depot\.ops\.draw -->
<g id="edge43" class="edge">
<title>cv_depot\.ops&#45;&gt;cv_depot\.ops\.draw</title>
<path fill="none" stroke="#a0d17b" d="M1117.76,-1080.35C1135.3,-1076.25 1154.35,-1070.64 1171,-1063.14 1188.76,-1055.14 1190.68,-1048.77 1207,-1038.14 1286.39,-986.43 1329.93,-1001.22 1389,-927.14 1466.02,-830.55 1491.88,-679.22 1499.58,-616.67"/>
<polygon fill="#a0d17b" stroke="#a0d17b" points="1503.1,-616.73 1500.78,-606.39 1496.15,-615.92 1503.1,-616.73"/>
</g>
<!-- cv_depot\.ops&#45;&gt;cv_depot\.ops\.edit -->
<g id="edge44" class="edge">
<title>cv_depot\.ops&#45;&gt;cv_depot\.ops\.edit</title>
<path fill="none" stroke="#a0d17b" d="M1117.56,-1086.45C1187.94,-1079.28 1308.18,-1058.17 1389,-996.14 1570.59,-856.77 1662.5,-576.95 1687.99,-487.98"/>
<polygon fill="#a0d17b" stroke="#a0d17b" points="1691.37,-488.9 1690.71,-478.33 1684.63,-487 1691.37,-488.9"/>
</g>
<!-- cv_depot\.ops&#45;&gt;cv_depot\.ops\.filter -->
<g id="edge45" class="edge">
<title>cv_depot\.ops&#45;&gt;cv_depot\.ops\.filter</title>
<path fill="none" stroke="#a0d17b" d="M1117.62,-1089.35C1137.37,-1086.04 1157.83,-1078.64 1171,-1063.14 1237.83,-984.5 1172.43,-697.38 1207,-600.14 1221.29,-559.94 1251.41,-520.63 1272.86,-495.95"/>
<polygon fill="#a0d17b" stroke="#a0d17b" points="1275.75,-497.97 1279.77,-488.16 1270.52,-493.32 1275.75,-497.97"/>
</g>
<!-- cv_depot\.core&#45;&gt;cv_depot\.core\.channel_map -->
<g id="edge46" class="edge">
<title>cv_depot\.core&#45;&gt;cv_depot\.core\.channel_map</title>
<path fill="none" stroke="#a0d17b" d="M238.72,-851.16C258.46,-858.71 282.15,-867.12 304,-873.14 386.86,-895.96 416.87,-871.22 494,-909.14 513.21,-918.59 511.09,-931.11 530,-941.14 614.67,-986.03 644.89,-976.09 739,-994.14 804.18,-1006.64 877.57,-1016.58 937.55,-1023.64"/>
<polygon fill="#a0d17b" stroke="#a0d17b" points="937.49,-1027.16 947.83,-1024.84 938.3,-1020.2 937.49,-1027.16"/>
</g>
<!-- cv_depot\.core&#45;&gt;cv_depot\.core\.color -->
<g id="edge47" class="edge">
<title>cv_depot\.core&#45;&gt;cv_depot\.core\.color</title>
<path fill="none" stroke="#a0d17b" d="M195.22,-814.94C198.37,-761.61 215.11,-604.46 304,-524.14 362.54,-471.25 451.73,-453.63 519.7,-448.43"/>
<polygon fill="#a0d17b" stroke="#a0d17b" points="520.25,-451.9 529.99,-447.73 519.77,-444.92 520.25,-451.9"/>
</g>
<!-- cv_depot\.core&#45;&gt;cv_depot\.core\.enforce -->
<g id="edge48" class="edge">
<title>cv_depot\.core&#45;&gt;cv_depot\.core\.enforce</title>
<path fill="none" stroke="#a0d17b" d="M227.48,-851.21C241.34,-860.04 256.81,-871.68 268,-885.14 292.41,-914.5 275.02,-938.28 304,-963.14 305.33,-964.28 306.7,-965.37 308.12,-966.42"/>
<polygon fill="#a0d17b" stroke="#a0d17b" points="306.31,-969.42 316.61,-971.92 310.12,-963.55 306.31,-969.42"/>
</g>
<!-- cv_depot\.core&#45;&gt;cv_depot\.core\.enum -->
<g id="edge49" class="edge">
<title>cv_depot\.core&#45;&gt;cv_depot\.core\.enum</title>
<path fill="none" stroke="#a0d17b" d="M207.54,-815.07C242.42,-766.74 337.98,-634.32 378.94,-577.55"/>
<polygon fill="#a0d17b" stroke="#a0d17b" points="381.79,-579.58 384.81,-569.42 376.12,-575.49 381.79,-579.58"/>
</g>
<!-- cv_depot\.core&#45;&gt;cv_depot\.core\.image -->
<g id="edge50" class="edge">
<title>cv_depot\.core&#45;&gt;cv_depot\.core\.image</title>
<path fill="none" stroke="#a0d17b" d="M255.75,-838.15C316.8,-844.02 412.89,-855.66 494,-876.14 678.25,-922.66 741.89,-1050.85 912,-966.14 948.29,-948.07 1012.62,-847.86 1042.46,-798.98"/>
<polygon fill="#a0d17b" stroke="#a0d17b" points="1045.59,-800.56 1047.79,-790.2 1039.61,-796.93 1045.59,-800.56"/>
</g>
<!-- cv_depot\.core&#45;&gt;cv_depot\.core\.tools -->
<g id="edge51" class="edge">
<title>cv_depot\.core&#45;&gt;cv_depot\.core\.tools</title>
<path fill="none" stroke="#a0d17b" d="M255.72,-831.54C324.94,-829.73 438.52,-826.76 519.55,-824.65"/>
<polygon fill="#a0d17b" stroke="#a0d17b" points="519.86,-828.14 529.76,-824.38 519.67,-821.14 519.86,-828.14"/>
</g>
<!-- cv_depot\.core&#45;&gt;cv_depot\.core\.types -->
<g id="edge52" class="edge">
<title>cv_depot\.core&#45;&gt;cv_depot\.core\.types</title>
<path fill="none" stroke="#a0d17b" d="M194.12,-815C193.87,-754.32 201.32,-556.16 304,-447.14 415.75,-328.49 611.82,-293.88 728.78,-283.95"/>
<polygon fill="#a0d17b" stroke="#a0d17b" points="729.12,-287.43 738.8,-283.14 728.56,-280.45 729.12,-287.43"/>
</g>
<!-- cv_depot\.core&#45;&gt;cv_depot\.core\.video -->
<g id="edge53" class="edge">
<title>cv_depot\.core&#45;&gt;cv_depot\.core\.video</title>
<path fill="none" stroke="#a0d17b" d="M195.84,-815.06C202.25,-733.37 232.54,-399.66 304,-329.14 400.91,-233.49 809.7,-163.28 912,-253.14 1005.27,-335.07 867.16,-435.92 948,-530.14 952.59,-535.49 958.01,-539.97 963.95,-543.72"/>
<polygon fill="#a0d17b" stroke="#a0d17b" points="962.53,-546.94 972.98,-548.71 965.92,-540.81 962.53,-546.94"/>
</g>
<!-- cv_depot\.core&#45;&gt;cv_depot\.core\.viewer -->
<g id="edge54" class="edge">
<title>cv_depot\.core&#45;&gt;cv_depot\.core\.viewer</title>
<path fill="none" stroke="#a0d17b" d="M218.69,-851.33C240.22,-866.9 273.02,-889.11 304,-904.14 311.58,-907.82 319.69,-911.26 327.86,-914.42"/>
<polygon fill="#a0d17b" stroke="#a0d17b" points="326.85,-917.77 337.44,-917.99 329.29,-911.22 326.85,-917.77"/>
</g>
<!-- PIL\.Image -->
<g id="node22" class="node">
<title>PIL\.Image</title>
<polygon fill="#343434" stroke="#343434" points="871,-710.14 780,-710.14 780,-674.14 871,-674.14 871,-710.14"/>
<text text-anchor="middle" x="825.5" y="-688.44" font-family="Courier,monospace" font-size="14.00" fill="#de958e">PIL.Image</text>
</g>
<!-- PIL\.Image&#45;&gt;cv_depot\.core\.image -->
<g id="edge55" class="edge">
<title>PIL\.Image&#45;&gt;cv_depot\.core\.image</title>
<path fill="none" stroke="#de958e" d="M871.1,-708.68C894.02,-717.09 922.44,-727.35 948,-736.14 962.18,-741.02 977.45,-746.1 991.97,-750.85"/>
<polygon fill="#de958e" stroke="#de958e" points="991.29,-754.31 1001.88,-754.09 993.46,-747.66 991.29,-754.31"/>
</g>
<!-- ipywidgets -->
<g id="node23" class="node">
<title>ipywidgets</title>
<polygon fill="#343434" stroke="#343434" points="243,-930.14 144,-930.14 144,-894.14 243,-894.14 243,-930.14"/>
<text text-anchor="middle" x="193.5" y="-908.44" font-family="Courier,monospace" font-size="14.00" fill="#de958e">ipywidgets</text>
</g>
<!-- ipywidgets&#45;&gt;cv_depot\.core\.viewer -->
<g id="edge56" class="edge">
<title>ipywidgets&#45;&gt;cv_depot\.core\.viewer</title>
<path fill="none" stroke="#de958e" d="M243.24,-917.89C259.69,-919.83 278.7,-922.07 297.64,-924.3"/>
<polygon fill="#de958e" stroke="#de958e" points="297.49,-927.81 307.84,-925.51 298.31,-920.86 297.49,-927.81"/>
</g>
<!-- openexr_tools\.enum -->
<g id="node24" class="node">
<title>openexr_tools\.enum</title>
<polygon fill="#343434" stroke="#343434" points="908,-932.14 743,-932.14 743,-896.14 908,-896.14 908,-932.14"/>
<text text-anchor="middle" x="825.5" y="-910.44" font-family="Courier,monospace" font-size="14.00" fill="#de958e">openexr_tools.enum</text>
</g>
<!-- openexr_tools\.enum&#45;&gt;cv_depot\.core\.image -->
<g id="edge57" class="edge">
<title>openexr_tools\.enum&#45;&gt;cv_depot\.core\.image</title>
<path fill="none" stroke="#de958e" d="M892.38,-896.01C899.15,-893.37 905.81,-890.41 912,-887.14 958.52,-862.58 1005.09,-822.79 1032.85,-797.04"/>
<polygon fill="#de958e" stroke="#de958e" points="1035.26,-799.57 1040.16,-790.18 1030.47,-794.47 1035.26,-799.57"/>
</g>
<!-- openexr_tools\.tools -->
<g id="node25" class="node">
<title>openexr_tools\.tools</title>
<polygon fill="#343434" stroke="#343434" points="912,-878.14 739,-878.14 739,-842.14 912,-842.14 912,-878.14"/>
<text text-anchor="middle" x="825.5" y="-856.44" font-family="Courier,monospace" font-size="14.00" fill="#de958e">openexr_tools.tools</text>
</g>
<!-- openexr_tools\.tools&#45;&gt;cv_depot\.core\.image -->
<g id="edge58" class="edge">
<title>openexr_tools\.tools&#45;&gt;cv_depot\.core\.image</title>
<path fill="none" stroke="#de958e" d="M874.9,-842.09C887.02,-837.55 899.99,-832.68 912,-828.14 941.73,-816.89 974.81,-804.26 1002,-793.84"/>
<polygon fill="#de958e" stroke="#de958e" points="1003.27,-797.1 1011.36,-790.26 1000.77,-790.57 1003.27,-797.1"/>
</g>
<!-- lunchbox\.enforce -->
<g id="node26" class="node">
<title>lunchbox\.enforce</title>
<polygon fill="#343434" stroke="#343434" points="268,-1149.14 119,-1149.14 119,-1113.14 268,-1113.14 268,-1149.14"/>
<text text-anchor="middle" x="193.5" y="-1127.44" font-family="Courier,monospace" font-size="14.00" fill="#de958e">lunchbox.enforce</text>
</g>
<!-- lunchbox\.enforce&#45;&gt;cv_depot\.core\.channel_map -->
<g id="edge59" class="edge">
<title>lunchbox\.enforce&#45;&gt;cv_depot\.core\.channel_map</title>
<path fill="none" stroke="#de958e" d="M214.48,-1149.27C235.16,-1166.69 269.24,-1191.86 304,-1202.14 433.56,-1240.47 805.15,-1284.84 912,-1202.14 962.47,-1163.08 902.57,-1107.95 948,-1063.14 948.95,-1062.2 949.92,-1061.3 950.93,-1060.42"/>
<polygon fill="#de958e" stroke="#de958e" points="953.19,-1063.1 959.05,-1054.27 948.96,-1057.52 953.19,-1063.1"/>
</g>
<!-- lunchbox\.enforce&#45;&gt;cv_depot\.core\.color -->
<g id="edge60" class="edge">
<title>lunchbox\.enforce&#45;&gt;cv_depot\.core\.color</title>
<path fill="none" stroke="#de958e" d="M217.07,-1113.08C238.32,-1096.93 271.64,-1073.78 304,-1060.14 383.78,-1026.51 434.7,-1080.22 494,-1017.14 528.23,-980.73 520.01,-844.11 530,-795.14 554.39,-675.57 591.77,-534.89 607.79,-476.13"/>
<polygon fill="#de958e" stroke="#de958e" points="611.17,-477.02 610.43,-466.45 604.42,-475.18 611.17,-477.02"/>
</g>
<!-- lunchbox\.enforce&#45;&gt;cv_depot\.core\.enforce -->
<g id="edge61" class="edge">
<title>lunchbox\.enforce&#45;&gt;cv_depot\.core\.enforce</title>
<path fill="none" stroke="#de958e" d="M208.47,-1112.75C227.59,-1088.74 264.12,-1046.9 304,-1022.14 309.81,-1018.54 316.07,-1015.28 322.5,-1012.35"/>
<polygon fill="#de958e" stroke="#de958e" points="324.2,-1015.43 332.03,-1008.29 321.46,-1008.99 324.2,-1015.43"/>
</g>
<!-- lunchbox\.enforce&#45;&gt;cv_depot\.core\.enum -->
<g id="edge62" class="edge">
<title>lunchbox\.enforce&#45;&gt;cv_depot\.core\.enum</title>
<path fill="none" stroke="#de958e" d="M206.92,-1112.87C223.66,-1087.3 253.09,-1038.81 268,-993.14 303.12,-885.59 270.49,-849.2 304,-741.14 323.01,-679.83 359.75,-613.87 381.24,-578.05"/>
<polygon fill="#de958e" stroke="#de958e" points="384.41,-579.56 386.61,-569.2 378.43,-575.93 384.41,-579.56"/>
</g>
<!-- lunchbox\.enforce&#45;&gt;cv_depot\.core\.image -->
<g id="edge63" class="edge">
<title>lunchbox\.enforce&#45;&gt;cv_depot\.core\.image</title>
<path fill="none" stroke="#de958e" d="M268.25,-1132.61C431.16,-1134.33 814.95,-1129.61 912,-1050.14 952.45,-1017.02 925.3,-985.24 948,-938.14 973.28,-885.69 1013.04,-830.51 1037.34,-798.82"/>
<polygon fill="#de958e" stroke="#de958e" points="1040.4,-800.58 1043.76,-790.53 1034.87,-796.29 1040.4,-800.58"/>
</g>
<!-- lunchbox\.enforce&#45;&gt;cv_depot\.core\.video -->
<g id="edge64" class="edge">
<title>lunchbox\.enforce&#45;&gt;cv_depot\.core\.video</title>
<path fill="none" stroke="#de958e" d="M268.23,-1121.59C331.14,-1111.19 422.49,-1090.62 494,-1052.14 622.61,-982.93 623.27,-922.23 739,-833.14 811.97,-776.97 841.65,-778.55 912,-719.14 961.1,-677.67 1010.51,-620.86 1037.54,-588.17"/>
<polygon fill="#de958e" stroke="#de958e" points="1040.28,-590.36 1043.92,-580.41 1034.87,-585.91 1040.28,-590.36"/>
</g>
<!-- lunchbox\.enforce&#45;&gt;cv_depot\.ops\.channel -->
<g id="edge65" class="edge">
<title>lunchbox\.enforce&#45;&gt;cv_depot\.ops\.channel</title>
<path fill="none" stroke="#de958e" d="M253.13,-1149.2C277.61,-1156.67 301.1,-1163.71 304,-1164.14 370.83,-1173.99 859.1,-1206.16 912,-1164.14 967.38,-1120.15 897.06,-1058.2 948,-1009.14 1020.71,-939.13 1099.23,-1037.11 1171,-966.14 1227.77,-910 1179.39,-865.06 1207,-790.14 1225.72,-739.35 1258.46,-685.25 1278.87,-653.91"/>
<polygon fill="#de958e" stroke="#de958e" points="1281.95,-655.6 1284.53,-645.32 1276.11,-651.75 1281.95,-655.6"/>
</g>
<!-- lunchbox\.enforce&#45;&gt;cv_depot\.ops\.draw -->
<g id="edge66" class="edge">
<title>lunchbox\.enforce&#45;&gt;cv_depot\.ops\.draw</title>
<path fill="none" stroke="#de958e" d="M209.75,-1149.45C229.42,-1172.01 265.68,-1210.15 304,-1233.14 429.52,-1308.45 469.12,-1340.14 615.5,-1340.14 615.5,-1340.14 615.5,-1340.14 826.5,-1340.14 1119.54,-1340.14 1212.44,-1230.03 1389,-996.14 1479.4,-876.38 1497.8,-688.27 1501.54,-616.9"/>
<polygon fill="#de958e" stroke="#de958e" points="1505.06,-616.63 1502.03,-606.48 1498.07,-616.3 1505.06,-616.63"/>
</g>
<!-- lunchbox\.enforce&#45;&gt;cv_depot\.ops\.edit -->
<g id="edge67" class="edge">
<title>lunchbox\.enforce&#45;&gt;cv_depot\.ops\.edit</title>
<path fill="none" stroke="#de958e" d="M202.15,-1149.19C217.07,-1182.34 253.08,-1253.28 304,-1294.14 419.96,-1387.2 466.82,-1416.14 615.5,-1416.14 615.5,-1416.14 615.5,-1416.14 1299,-1416.14 1458.04,-1416.14 1501.26,-1334.16 1582,-1197.14 1655.06,-1073.16 1686.82,-608.73 1693.92,-488.63"/>
<polygon fill="#de958e" stroke="#de958e" points="1697.42,-488.6 1694.51,-478.41 1690.44,-488.19 1697.42,-488.6"/>
</g>
<!-- lunchbox\.enforce&#45;&gt;cv_depot\.ops\.filter -->
<g id="edge68" class="edge">
<title>lunchbox\.enforce&#45;&gt;cv_depot\.ops\.filter</title>
<path fill="none" stroke="#de958e" d="M268.06,-1138.37C431.95,-1152.75 819.91,-1176.75 912,-1092.14 954.89,-1052.74 914.96,-1014.1 948,-966.14 1018.24,-864.17 1105.91,-904.48 1171,-799.14 1218.25,-722.68 1172.64,-683.19 1207,-600.14 1223.31,-560.72 1252.99,-521.24 1273.8,-496.31"/>
<polygon fill="#de958e" stroke="#de958e" points="1276.68,-498.33 1280.48,-488.44 1271.34,-493.8 1276.68,-498.33"/>
</g>
<!-- numpy\.typing -->
<g id="node27" class="node">
<title>numpy\.typing</title>
<polygon fill="#343434" stroke="#343434" points="457,-786.14 341,-786.14 341,-750.14 457,-750.14 457,-786.14"/>
<text text-anchor="middle" x="399" y="-764.44" font-family="Courier,monospace" font-size="14.00" fill="#de958e">numpy.typing</text>
</g>
<!-- numpy\.typing&#45;&gt;cv_depot\.core\.color -->
<g id="edge69" class="edge">
<title>numpy\.typing&#45;&gt;cv_depot\.core\.color</title>
<path fill="none" stroke="#de958e" d="M412.2,-750.02C448.27,-696.46 554.52,-538.69 597.32,-475.13"/>
<polygon fill="#de958e" stroke="#de958e" points="600.48,-476.71 603.16,-466.46 594.67,-472.8 600.48,-476.71"/>
</g>
<!-- numpy\.typing&#45;&gt;cv_depot\.core\.image -->
<g id="edge70" class="edge">
<title>numpy\.typing&#45;&gt;cv_depot\.core\.image</title>
<path fill="none" stroke="#de958e" d="M457.29,-768.49C570.46,-769.18 823.78,-770.71 962.75,-771.56"/>
<polygon fill="#de958e" stroke="#de958e" points="962.94,-775.06 972.96,-771.62 962.98,-768.06 962.94,-775.06"/>
</g>
<!-- numpy\.typing&#45;&gt;cv_depot\.core\.tools -->
<g id="edge71" class="edge">
<title>numpy\.typing&#45;&gt;cv_depot\.core\.tools</title>
<path fill="none" stroke="#de958e" d="M457.18,-782.47C480.52,-788.32 507.95,-795.19 533.36,-801.56"/>
<polygon fill="#de958e" stroke="#de958e" points="532.81,-805.03 543.36,-804.06 534.51,-798.24 532.81,-805.03"/>
</g>
<!-- numpy -->
<g id="node28" class="node">
<title>numpy</title>
<polygon fill="#343434" stroke="#343434" points="222.5,-208.14 164.5,-208.14 164.5,-172.14 222.5,-172.14 222.5,-208.14"/>
<text text-anchor="middle" x="193.5" y="-186.44" font-family="Courier,monospace" font-size="14.00" fill="#de958e">numpy</text>
</g>
<!-- numpy&#45;&gt;cv_depot\.core\.color -->
<g id="edge72" class="edge">
<title>numpy&#45;&gt;cv_depot\.core\.color</title>
<path fill="none" stroke="#de958e" d="M222.78,-207.47C296.33,-252.54 493.71,-373.51 577.28,-424.72"/>
<polygon fill="#de958e" stroke="#de958e" points="575.6,-427.79 585.95,-430.03 579.25,-421.82 575.6,-427.79"/>
</g>
<!-- numpy&#45;&gt;cv_depot\.core\.enum -->
<g id="edge73" class="edge">
<title>numpy&#45;&gt;cv_depot\.core\.enum</title>
<path fill="none" stroke="#de958e" d="M204.87,-208.54C238.28,-267.8 343.21,-453.94 382.73,-524.06"/>
<polygon fill="#de958e" stroke="#de958e" points="379.69,-525.79 387.65,-532.78 385.79,-522.35 379.69,-525.79"/>
</g>
<!-- numpy&#45;&gt;cv_depot\.core\.image -->
<g id="edge74" class="edge">
<title>numpy&#45;&gt;cv_depot\.core\.image</title>
<path fill="none" stroke="#de958e" d="M222.69,-192.13C277.43,-196.89 400.9,-212.02 494,-256.14 625.29,-318.37 944.65,-651.3 1034.58,-746.62"/>
<polygon fill="#de958e" stroke="#de958e" points="1032.21,-749.21 1041.61,-754.09 1037.3,-744.41 1032.21,-749.21"/>
</g>
<!-- numpy&#45;&gt;cv_depot\.ops\.channel -->
<g id="edge75" class="edge">
<title>numpy&#45;&gt;cv_depot\.ops\.channel</title>
<path fill="none" stroke="#de958e" d="M222.87,-186.2C343.11,-170.19 809.26,-115.08 912,-208.14 1007.94,-295.03 858.55,-403.59 948,-497.14 1017.48,-569.81 1078.39,-496.01 1171,-535.14 1209.11,-551.24 1246.59,-580.88 1270.64,-602.17"/>
<polygon fill="#de958e" stroke="#de958e" points="1268.48,-604.94 1278.26,-609.04 1273.17,-599.74 1268.48,-604.94"/>
</g>
<!-- numpy&#45;&gt;cv_depot\.ops\.draw -->
<g id="edge76" class="edge">
<title>numpy&#45;&gt;cv_depot\.ops\.draw</title>
<path fill="none" stroke="#de958e" d="M222.58,-183.99C237.14,-179.81 254.63,-173.19 268,-163.14 289.6,-146.9 280.55,-127.56 304,-114.14 424.79,-45.02 476.33,-82.14 615.5,-82.14 615.5,-82.14 615.5,-82.14 826.5,-82.14 1086.42,-82.14 1214.42,-49.58 1389,-242.14 1474.1,-336 1495.52,-494.95 1500.81,-559.55"/>
<polygon fill="#de958e" stroke="#de958e" points="1497.34,-560.08 1501.57,-569.79 1504.32,-559.56 1497.34,-560.08"/>
</g>
<!-- numpy&#45;&gt;cv_depot\.ops\.edit -->
<g id="edge77" class="edge">
<title>numpy&#45;&gt;cv_depot\.ops\.edit</title>
<path fill="none" stroke="#de958e" d="M222.68,-185.63C237.81,-181.9 255.81,-175.17 268,-163.14 299.85,-131.72 269.85,-98.04 304,-69.14 411.82,22.1 474.25,-6.14 615.5,-6.14 615.5,-6.14 615.5,-6.14 1299,-6.14 1427.22,-6.14 1487.68,24.71 1582,-62.14 1637.65,-113.38 1678.53,-349.55 1691.3,-431.8"/>
<polygon fill="#de958e" stroke="#de958e" points="1687.87,-432.56 1692.85,-441.92 1694.79,-431.5 1687.87,-432.56"/>
</g>
<!-- numpy&#45;&gt;cv_depot\.ops\.filter -->
<g id="edge78" class="edge">
<title>numpy&#45;&gt;cv_depot\.ops\.filter</title>
<path fill="none" stroke="#de958e" d="M222.77,-180.75C236.58,-175.91 253.35,-169.66 268,-163.14 284.53,-155.78 286.62,-149.16 304,-144.14 437.4,-105.6 476.65,-120.14 615.5,-120.14 615.5,-120.14 615.5,-120.14 826.5,-120.14 1042.65,-120.14 1223.9,-360.89 1279.46,-443.05"/>
<polygon fill="#de958e" stroke="#de958e" points="1276.85,-445.44 1285.32,-451.82 1282.67,-441.56 1276.85,-445.44"/>
</g>
<!-- cv2 -->
<g id="node29" class="node">
<title>cv2</title>
<polygon fill="#343434" stroke="#343434" points="1086.5,-488.14 1032.5,-488.14 1032.5,-452.14 1086.5,-452.14 1086.5,-488.14"/>
<text text-anchor="middle" x="1059.5" y="-466.44" font-family="Courier,monospace" font-size="14.00" fill="#de958e">cv2</text>
</g>
<!-- cv2&#45;&gt;cv_depot\.ops\.channel -->
<g id="edge79" class="edge">
<title>cv2&#45;&gt;cv_depot\.ops\.channel</title>
<path fill="none" stroke="#de958e" d="M1086.64,-472.23C1110.73,-475.34 1146.38,-483.04 1171,-502.14 1195.87,-521.44 1185.71,-539.95 1207,-563.14 1221.25,-578.65 1239.84,-592.64 1256.42,-603.55"/>
<polygon fill="#de958e" stroke="#de958e" points="1254.57,-606.52 1264.88,-608.96 1258.35,-600.62 1254.57,-606.52"/>
</g>
<!-- cv2&#45;&gt;cv_depot\.ops\.draw -->
<g id="edge80" class="edge">
<title>cv2&#45;&gt;cv_depot\.ops\.draw</title>
<path fill="none" stroke="#de958e" d="M1086.83,-477.17C1152.2,-494.62 1323.97,-540.48 1425.07,-567.47"/>
<polygon fill="#de958e" stroke="#de958e" points="1424.37,-570.9 1434.93,-570.1 1426.17,-564.14 1424.37,-570.9"/>
</g>
<!-- cv2&#45;&gt;cv_depot\.ops\.edit -->
<g id="edge81" class="edge">
<title>cv2&#45;&gt;cv_depot\.ops\.edit</title>
<path fill="none" stroke="#de958e" d="M1086.5,-463.86C1115.63,-457.18 1164.38,-447.04 1207,-443.14 1346.77,-430.37 1509.85,-441.2 1607.77,-450.46"/>
<polygon fill="#de958e" stroke="#de958e" points="1607.63,-453.96 1617.92,-451.44 1608.3,-446.99 1607.63,-453.96"/>
</g>
<!-- cv2&#45;&gt;cv_depot\.ops\.filter -->
<g id="edge82" class="edge">
<title>cv2&#45;&gt;cv_depot\.ops\.filter</title>
<path fill="none" stroke="#de958e" d="M1086.71,-470.14C1114.38,-470.14 1159.63,-470.14 1201.09,-470.14"/>
<polygon fill="#de958e" stroke="#de958e" points="1201.25,-473.64 1211.25,-470.14 1201.25,-466.64 1201.25,-473.64"/>
</g>
<!-- lunchbox\.stopwatch -->
<g id="node30" class="node">
<title>lunchbox\.stopwatch</title>
<polygon fill="#343434" stroke="#343434" points="1142,-396.14 977,-396.14 977,-360.14 1142,-360.14 1142,-396.14"/>
<text text-anchor="middle" x="1059.5" y="-374.44" font-family="Courier,monospace" font-size="14.00" fill="#de958e">lunchbox.stopwatch</text>
</g>
<!-- lunchbox\.stopwatch&#45;&gt;cv_depot\.ops\.filter -->
<g id="edge83" class="edge">
<title>lunchbox\.stopwatch&#45;&gt;cv_depot\.ops\.filter</title>
<path fill="none" stroke="#de958e" d="M1129.16,-396.14C1143.14,-400.33 1157.65,-405.07 1171,-410.14 1199.19,-420.85 1229.76,-435.33 1253.72,-447.39"/>
<polygon fill="#de958e" stroke="#de958e" points="1252.4,-450.64 1262.9,-452.04 1255.56,-444.39 1252.4,-450.64"/>
</g>
<!-- ffmpeg -->
<g id="node31" class="node">
<title>ffmpeg</title>
<polygon fill="#343434" stroke="#343434" points="858.5,-428.14 792.5,-428.14 792.5,-392.14 858.5,-392.14 858.5,-428.14"/>
<text text-anchor="middle" x="825.5" y="-406.44" font-family="Courier,monospace" font-size="14.00" fill="#de958e">ffmpeg</text>
</g>
<!-- ffmpeg&#45;&gt;cv_depot\.core\.video -->
<g id="edge84" class="edge">
<title>ffmpeg&#45;&gt;cv_depot\.core\.video</title>
<path fill="none" stroke="#de958e" d="M858.75,-415.65C876.4,-420.14 897.55,-428.12 912,-442.14 942.33,-471.57 916.57,-501.89 948,-530.14 952.78,-534.43 958.1,-538.15 963.75,-541.38"/>
<polygon fill="#de958e" stroke="#de958e" points="962.37,-544.6 972.87,-546.04 965.56,-538.37 962.37,-544.6"/>
</g>
</g>
</svg>
