<?xml version="1.0" encoding="UTF-8" standalone="no"?>
<!DOCTYPE svg PUBLIC "-//W3C//DTD SVG 1.1//EN"
 "http://www.w3.org/Graphics/SVG/1.1/DTD/svg11.dtd">
<!-- Generated by graphviz version 2.43.0 (0)
 -->
<!-- Title: %3 Pages: 1 -->
<svg width="920pt" height="566pt"
 viewBox="0.00 0.00 920.00 566.00" xmlns="http://www.w3.org/2000/svg" xmlns:xlink="http://www.w3.org/1999/xlink">
<g id="graph0" class="graph" transform="scale(1 1) rotate(0) translate(4 562)">
<title>%3</title>
<polygon fill="#242424" stroke="transparent" points="-4,4 -4,-562 916,-562 916,4 -4,4"/>
<!-- cli -->
<g id="node1" class="node">
<title>cli</title>
<polygon fill="#343434" stroke="#343434" points="68.5,-416 14.5,-416 14.5,-380 68.5,-380 68.5,-416"/>
<text text-anchor="middle" x="41.5" y="-394.3" font-family="Courier,monospace" font-size="14.00" fill="#b6ecf3">cli</text>
</g>
<!-- cv_depot\.command -->
<g id="node2" class="node">
<title>cv_depot\.command</title>
<polygon fill="#343434" stroke="#343434" points="268,-558 119,-558 119,-522 268,-522 268,-558"/>
<text text-anchor="middle" x="193.5" y="-536.3" font-family="Courier,monospace" font-size="14.00" fill="#b6ecf3">cv_depot.command</text>
</g>
<!-- cv_depot\.core\.channel -->
<g id="node3" class="node">
<title>cv_depot\.core\.channel</title>
<polygon fill="#343434" stroke="#343434" points="494,-504 304,-504 304,-468 494,-468 494,-504"/>
<text text-anchor="middle" x="399" y="-482.3" font-family="Courier,monospace" font-size="14.00" fill="#b6ecf3">cv_depot.core.channel</text>
</g>
<!-- cv_depot\.core\.color -->
<g id="node4" class="node">
<title>cv_depot\.core\.color</title>
<polygon fill="#343434" stroke="#343434" points="912,-266 739,-266 739,-230 912,-230 912,-266"/>
<text text-anchor="middle" x="825.5" y="-244.3" font-family="Courier,monospace" font-size="14.00" fill="#b6ecf3">cv_depot.core.color</text>
</g>
<!-- cv_depot\.core\.enum -->
<g id="node5" class="node">
<title>cv_depot\.core\.enum</title>
<polygon fill="#343434" stroke="#343434" points="481.5,-266 316.5,-266 316.5,-230 481.5,-230 481.5,-266"/>
<text text-anchor="middle" x="399" y="-244.3" font-family="Courier,monospace" font-size="14.00" fill="#b6ecf3">cv_depot.core.enum</text>
</g>
<!-- cv_depot\.core\.image -->
<g id="node6" class="node">
<title>cv_depot\.core\.image</title>
<polygon fill="#343434" stroke="#343434" points="703,-266 530,-266 530,-230 703,-230 703,-266"/>
<text text-anchor="middle" x="616.5" y="-244.3" font-family="Courier,monospace" font-size="14.00" fill="#b6ecf3">cv_depot.core.image</text>
</g>
<!-- cv_depot\.core\.enum&#45;&gt;cv_depot\.core\.image -->
<g id="edge1" class="edge">
<title>cv_depot\.core\.enum&#45;&gt;cv_depot\.core\.image</title>
<path fill="none" stroke="#b6ecf3" d="M481.78,-248C494.18,-248 507.07,-248 519.74,-248"/>
<polygon fill="#b6ecf3" stroke="#b6ecf3" points="519.83,-251.5 529.83,-248 519.83,-244.5 519.83,-251.5"/>
</g>
<!-- cv_depot\.core\.image&#45;&gt;cv_depot\.core\.color -->
<g id="edge2" class="edge">
<title>cv_depot\.core\.image&#45;&gt;cv_depot\.core\.color</title>
<path fill="none" stroke="#b6ecf3" d="M703.19,-248C711.66,-248 720.3,-248 728.87,-248"/>
<polygon fill="#b6ecf3" stroke="#b6ecf3" points="728.88,-251.5 738.88,-248 728.88,-244.5 728.88,-251.5"/>
</g>
<!-- cv_depot\.core\.tools -->
<g id="node7" class="node">
<title>cv_depot\.core\.tools</title>
<polygon fill="#343434" stroke="#343434" points="485.5,-120 312.5,-120 312.5,-84 485.5,-84 485.5,-120"/>
<text text-anchor="middle" x="399" y="-98.3" font-family="Courier,monospace" font-size="14.00" fill="#b6ecf3">cv_depot.core.tools</text>
</g>
<!-- cv_depot\.core\.tools&#45;&gt;cv_depot\.core\.image -->
<g id="edge3" class="edge">
<title>cv_depot\.core\.tools&#45;&gt;cv_depot\.core\.image</title>
<path fill="none" stroke="#b6ecf3" d="M465.34,-120.19C475.26,-124.09 485.13,-128.67 494,-134 533.6,-157.79 571.08,-196.26 593.67,-221.85"/>
<polygon fill="#b6ecf3" stroke="#b6ecf3" points="591.27,-224.41 600.47,-229.66 596.55,-219.82 591.27,-224.41"/>
</g>
<!-- click -->
<g id="node8" class="node">
<title>click</title>
<polygon fill="#343434" stroke="#343434" points="70.5,-558 12.5,-558 12.5,-522 70.5,-522 70.5,-558"/>
<text text-anchor="middle" x="41.5" y="-536.3" font-family="Courier,monospace" font-size="14.00" fill="#de958e">click</text>
</g>
<!-- click&#45;&gt;cv_depot\.command -->
<g id="edge4" class="edge">
<title>click&#45;&gt;cv_depot\.command</title>
<path fill="none" stroke="#de958e" d="M70.71,-540C81.78,-540 95.1,-540 108.82,-540"/>
<polygon fill="#de958e" stroke="#de958e" points="108.85,-543.5 118.85,-540 108.85,-536.5 108.85,-543.5"/>
</g>
<!-- cv_depot -->
<g id="node9" class="node">
<title>cv_depot</title>
<polygon fill="#343434" stroke="#343434" points="83,-470 0,-470 0,-434 83,-434 83,-470"/>
<text text-anchor="middle" x="41.5" y="-448.3" font-family="Courier,monospace" font-size="14.00" fill="#a0d17b">cv_depot</text>
</g>
<!-- cv_depot&#45;&gt;cv_depot\.command -->
<g id="edge5" class="edge">
<title>cv_depot&#45;&gt;cv_depot\.command</title>
<path fill="none" stroke="#a0d17b" d="M61.68,-470.2C76.44,-483.45 97.83,-501.09 119,-513 121.99,-514.68 125.11,-516.3 128.3,-517.84"/>
<polygon fill="#a0d17b" stroke="#a0d17b" points="126.88,-521.04 137.43,-522 129.78,-514.67 126.88,-521.04"/>
</g>
<!-- cv_depot\.core -->
<g id="node10" class="node">
<title>cv_depot\.core</title>
<polygon fill="#343434" stroke="#343434" points="255.5,-435 131.5,-435 131.5,-399 255.5,-399 255.5,-435"/>
<text text-anchor="middle" x="193.5" y="-413.3" font-family="Courier,monospace" font-size="14.00" fill="#a0d17b">cv_depot.core</text>
</g>
<!-- cv_depot&#45;&gt;cv_depot\.core -->
<g id="edge6" class="edge">
<title>cv_depot&#45;&gt;cv_depot\.core</title>
<path fill="none" stroke="#a0d17b" d="M83.09,-442.53C94.92,-439.77 108.19,-436.67 121.32,-433.61"/>
<polygon fill="#a0d17b" stroke="#a0d17b" points="122.35,-436.96 131.3,-431.28 120.76,-430.14 122.35,-436.96"/>
</g>
<!-- cv_depot\.core&#45;&gt;cv_depot\.core\.channel -->
<g id="edge7" class="edge">
<title>cv_depot\.core&#45;&gt;cv_depot\.core\.channel</title>
<path fill="none" stroke="#a0d17b" d="M247.7,-435.04C274.46,-444.11 307.07,-455.17 335.06,-464.66"/>
<polygon fill="#a0d17b" stroke="#a0d17b" points="334.16,-468.05 344.76,-467.95 336.41,-461.42 334.16,-468.05"/>
</g>
<!-- cv_depot\.core&#45;&gt;cv_depot\.core\.color -->
<g id="edge8" class="edge">
<title>cv_depot\.core&#45;&gt;cv_depot\.core\.color</title>
<path fill="none" stroke="#a0d17b" d="M255.72,-424.97C316.96,-431.06 413.38,-435.46 494,-416 610.95,-387.78 733.3,-311.21 790.83,-271.94"/>
<polygon fill="#a0d17b" stroke="#a0d17b" points="792.91,-274.75 799.16,-266.2 788.94,-268.99 792.91,-274.75"/>
</g>
<!-- cv_depot\.core&#45;&gt;cv_depot\.core\.enum -->
<g id="edge9" class="edge">
<title>cv_depot\.core&#45;&gt;cv_depot\.core\.enum</title>
<path fill="none" stroke="#a0d17b" d="M203.58,-398.74C219.62,-368.41 255.85,-307.72 304,-275 306.15,-273.54 308.38,-272.16 310.67,-270.85"/>
<polygon fill="#a0d17b" stroke="#a0d17b" points="312.49,-273.85 319.78,-266.16 309.29,-267.62 312.49,-273.85"/>
</g>
<!-- cv_depot\.core&#45;&gt;cv_depot\.core\.image -->
<g id="edge10" class="edge">
<title>cv_depot\.core&#45;&gt;cv_depot\.core\.image</title>
<path fill="none" stroke="#a0d17b" d="M255.5,-422.31C318.71,-425.12 418.63,-421.81 494,-383 541.71,-358.43 579.69,-306.86 599.78,-275.05"/>
<polygon fill="#a0d17b" stroke="#a0d17b" points="602.94,-276.6 605.2,-266.25 596.98,-272.93 602.94,-276.6"/>
</g>
<!-- cv_depot\.core&#45;&gt;cv_depot\.core\.tools -->
<g id="edge11" class="edge">
<title>cv_depot\.core&#45;&gt;cv_depot\.core\.tools</title>
<path fill="none" stroke="#a0d17b" d="M198.77,-398.83C209.82,-354.93 242.82,-241.23 304,-167 317.65,-150.44 336.54,-136.27 353.81,-125.43"/>
<polygon fill="#a0d17b" stroke="#a0d17b" points="355.92,-128.24 362.66,-120.07 352.29,-122.26 355.92,-128.24"/>
</g>
<!-- lunchbox\.enforce -->
<g id="node11" class="node">
<title>lunchbox\.enforce</title>
<polygon fill="#343434" stroke="#343434" points="268,-504 119,-504 119,-468 268,-468 268,-504"/>
<text text-anchor="middle" x="193.5" y="-482.3" font-family="Courier,monospace" font-size="14.00" fill="#de958e">lunchbox.enforce</text>
</g>
<!-- lunchbox\.enforce&#45;&gt;cv_depot\.core\.channel -->
<g id="edge12" class="edge">
<title>lunchbox\.enforce&#45;&gt;cv_depot\.core\.channel</title>
<path fill="none" stroke="#de958e" d="M268.26,-486C276.59,-486 285.21,-486 293.84,-486"/>
<polygon fill="#de958e" stroke="#de958e" points="293.97,-489.5 303.97,-486 293.97,-482.5 293.97,-489.5"/>
</g>
<!-- lunchbox\.enforce&#45;&gt;cv_depot\.core\.color -->
<g id="edge13" class="edge">
<title>lunchbox\.enforce&#45;&gt;cv_depot\.core\.color</title>
<path fill="none" stroke="#de958e" d="M248.58,-504.06C255.23,-506.81 261.85,-509.8 268,-513 285.28,-521.99 285.41,-532.18 304,-538 384.59,-563.24 413.98,-564.98 494,-538 640.16,-488.72 761.49,-336.56 806.13,-274.63"/>
<polygon fill="#de958e" stroke="#de958e" points="809.21,-276.35 812.16,-266.17 803.51,-272.29 809.21,-276.35"/>
</g>
<!-- lunchbox\.enforce&#45;&gt;cv_depot\.core\.enum -->
<g id="edge14" class="edge">
<title>lunchbox\.enforce&#45;&gt;cv_depot\.core\.enum</title>
<path fill="none" stroke="#de958e" d="M239.98,-467.88C250.55,-461.73 260.81,-453.85 268,-444 313.29,-381.98 251.63,-331.17 304,-275 305.23,-273.68 306.53,-272.42 307.88,-271.22"/>
<polygon fill="#de958e" stroke="#de958e" points="310.25,-273.81 316.12,-264.99 306.03,-268.22 310.25,-273.81"/>
</g>
<!-- lunchbox\.enforce&#45;&gt;cv_depot\.core\.image -->
<g id="edge15" class="edge">
<title>lunchbox\.enforce&#45;&gt;cv_depot\.core\.image</title>
<path fill="none" stroke="#de958e" d="M256.55,-504.06C271.93,-507.77 288.45,-511.11 304,-513 387.83,-523.18 422.93,-558.6 494,-513 577.44,-459.46 604.32,-332.71 612.35,-276.13"/>
<polygon fill="#de958e" stroke="#de958e" points="615.83,-276.47 613.68,-266.1 608.9,-275.55 615.83,-276.47"/>
</g>
<!-- PIL\.Image -->
<g id="node12" class="node">
<title>PIL\.Image</title>
<polygon fill="#343434" stroke="#343434" points="444.5,-374 353.5,-374 353.5,-338 444.5,-338 444.5,-374"/>
<text text-anchor="middle" x="399" y="-352.3" font-family="Courier,monospace" font-size="14.00" fill="#de958e">PIL.Image</text>
</g>
<!-- PIL\.Image&#45;&gt;cv_depot\.core\.image -->
<g id="edge16" class="edge">
<title>PIL\.Image&#45;&gt;cv_depot\.core\.image</title>
<path fill="none" stroke="#de958e" d="M444.54,-346.22C460.53,-341.93 478.44,-336.21 494,-329 526.98,-313.72 561.14,-290.14 584.8,-272.36"/>
<polygon fill="#de958e" stroke="#de958e" points="587.19,-274.94 593.02,-266.1 582.95,-269.37 587.19,-274.94"/>
</g>
<!-- numpy -->
<g id="node13" class="node">
<title>numpy</title>
<polygon fill="#343434" stroke="#343434" points="222.5,-166 164.5,-166 164.5,-130 222.5,-130 222.5,-166"/>
<text text-anchor="middle" x="193.5" y="-144.3" font-family="Courier,monospace" font-size="14.00" fill="#de958e">numpy</text>
</g>
<!-- numpy&#45;&gt;cv_depot\.core\.color -->
<g id="edge17" class="edge">
<title>numpy&#45;&gt;cv_depot\.core\.color</title>
<path fill="none" stroke="#de958e" d="M214,-129.71C234.56,-111.78 268.79,-85.66 304,-75 384.82,-50.53 412,-54.84 494,-75 612.14,-104.05 734.87,-183.62 791.83,-223.93"/>
<polygon fill="#de958e" stroke="#de958e" points="789.9,-226.85 800.07,-229.81 793.96,-221.15 789.9,-226.85"/>
</g>
<!-- numpy&#45;&gt;cv_depot\.core\.enum -->
<g id="edge18" class="edge">
<title>numpy&#45;&gt;cv_depot\.core\.enum</title>
<path fill="none" stroke="#de958e" d="M217.18,-166.17C238.5,-182.49 271.87,-206.11 304,-221 308.1,-222.9 312.36,-224.69 316.7,-226.39"/>
<polygon fill="#de958e" stroke="#de958e" points="315.73,-229.76 326.32,-229.93 318.15,-223.19 315.73,-229.76"/>
</g>
<!-- numpy&#45;&gt;cv_depot\.core\.image -->
<g id="edge19" class="edge">
<title>numpy&#45;&gt;cv_depot\.core\.image</title>
<path fill="none" stroke="#de958e" d="M222.68,-145.04C276.88,-140.37 398.73,-134.83 494,-167 529.67,-179.04 564.84,-204.37 588.08,-223.52"/>
<polygon fill="#de958e" stroke="#de958e" points="585.89,-226.24 595.79,-230 590.39,-220.88 585.89,-226.24"/>
</g>
<!-- numpy\.typing -->
<g id="node14" class="node">
<title>numpy\.typing</title>
<polygon fill="#343434" stroke="#343434" points="251.5,-36 135.5,-36 135.5,0 251.5,0 251.5,-36"/>
<text text-anchor="middle" x="193.5" y="-14.3" font-family="Courier,monospace" font-size="14.00" fill="#de958e">numpy.typing</text>
</g>
<!-- numpy\.typing&#45;&gt;cv_depot\.core\.color -->
<g id="edge20" class="edge">
<title>numpy\.typing&#45;&gt;cv_depot\.core\.color</title>
<path fill="none" stroke="#de958e" d="M251.89,-9.1C353.24,3.36 566.08,14.55 703,-84 753.69,-120.48 792.17,-184.47 811.23,-220.79"/>
<polygon fill="#de958e" stroke="#de958e" points="808.19,-222.53 815.87,-229.83 814.42,-219.33 808.19,-222.53"/>
</g>
<!-- numpy\.typing&#45;&gt;cv_depot\.core\.image -->
<g id="edge21" class="edge">
<title>numpy\.typing&#45;&gt;cv_depot\.core\.image</title>
<path fill="none" stroke="#de958e" d="M251.58,-16.5C315.54,-17.47 419.96,-27.2 494,-75 549.43,-110.79 586.92,-181.62 604.34,-220.63"/>
<polygon fill="#de958e" stroke="#de958e" points="601.14,-222.05 608.33,-229.83 607.56,-219.26 601.14,-222.05"/>
</g>
<!-- numpy\.typing&#45;&gt;cv_depot\.core\.tools -->
<g id="edge22" class="edge">
<title>numpy\.typing&#45;&gt;cv_depot\.core\.tools</title>
<path fill="none" stroke="#de958e" d="M238.16,-36.02C269.3,-48.88 311.36,-66.24 344.53,-79.93"/>
<polygon fill="#de958e" stroke="#de958e" points="343.49,-83.28 354.07,-83.86 346.16,-76.81 343.49,-83.28"/>
</g>
<!-- openexr_tools\.enum -->
<g id="node15" class="node">
<title>openexr_tools\.enum</title>
<polygon fill="#343434" stroke="#343434" points="481.5,-320 316.5,-320 316.5,-284 481.5,-284 481.5,-320"/>
<text text-anchor="middle" x="399" y="-298.3" font-family="Courier,monospace" font-size="14.00" fill="#de958e">openexr_tools.enum</text>
</g>
<!-- openexr_tools\.enum&#45;&gt;cv_depot\.core\.image -->
<g id="edge23" class="edge">
<title>openexr_tools\.enum&#45;&gt;cv_depot\.core\.image</title>
<path fill="none" stroke="#de958e" d="M472.06,-283.94C491.83,-278.99 513.4,-273.58 533.68,-268.5"/>
<polygon fill="#de958e" stroke="#de958e" points="534.66,-271.87 543.51,-266.04 532.96,-265.07 534.66,-271.87"/>
</g>
<!-- openexr_tools\.tools -->
<g id="node16" class="node">
<title>openexr_tools\.tools</title>
<polygon fill="#343434" stroke="#343434" points="485.5,-212 312.5,-212 312.5,-176 485.5,-176 485.5,-212"/>
<text text-anchor="middle" x="399" y="-190.3" font-family="Courier,monospace" font-size="14.00" fill="#de958e">openexr_tools.tools</text>
</g>
<!-- openexr_tools\.tools&#45;&gt;cv_depot\.core\.image -->
<g id="edge24" class="edge">
<title>openexr_tools\.tools&#45;&gt;cv_depot\.core\.image</title>
<path fill="none" stroke="#de958e" d="M472.06,-212.06C491.83,-217.01 513.4,-222.42 533.68,-227.5"/>
<polygon fill="#de958e" stroke="#de958e" points="532.96,-230.93 543.51,-229.96 534.66,-224.13 532.96,-230.93"/>
</g>
</g>
</svg>
