<?xml version="1.0" encoding="UTF-8" standalone="no"?>
<!DOCTYPE svg PUBLIC "-//W3C//DTD SVG 1.1//EN"
 "http://www.w3.org/Graphics/SVG/1.1/DTD/svg11.dtd">
<!-- Generated by graphviz version 2.43.0 (0)
 -->
<!-- Title: %3 Pages: 1 -->
<svg width="526pt" height="206pt"
 viewBox="0.00 0.00 526.00 206.00" xmlns="http://www.w3.org/2000/svg" xmlns:xlink="http://www.w3.org/1999/xlink">
<g id="graph0" class="graph" transform="scale(1 1) rotate(0) translate(4 202)">
<title>%3</title>
<polygon fill="#242424" stroke="transparent" points="-4,4 -4,-202 522,-202 522,4 -4,4"/>
<!-- cli -->
<g id="node1" class="node">
<title>cli</title>
<polygon fill="#343434" stroke="#343434" points="76.5,-90 22.5,-90 22.5,-54 76.5,-54 76.5,-90"/>
<text text-anchor="middle" x="49.5" y="-68.3" font-family="Courier,monospace" font-size="14.00" fill="#b6ecf3">cli</text>
</g>
<!-- cv_toolbox\.command -->
<g id="node2" class="node">
<title>cv_toolbox\.command</title>
<polygon fill="#343434" stroke="#343434" points="300,-198 135,-198 135,-162 300,-162 300,-198"/>
<text text-anchor="middle" x="217.5" y="-176.3" font-family="Courier,monospace" font-size="14.00" fill="#b6ecf3">cv_toolbox.command</text>
</g>
<!-- cv_toolbox\.core\.enum -->
<g id="node3" class="node">
<title>cv_toolbox\.core\.enum</title>
<polygon fill="#343434" stroke="#343434" points="518,-90 336,-90 336,-54 518,-54 518,-90"/>
<text text-anchor="middle" x="427" y="-68.3" font-family="Courier,monospace" font-size="14.00" fill="#b6ecf3">cv_toolbox.core.enum</text>
</g>
<!-- cv_toolbox -->
<g id="node4" class="node">
<title>cv_toolbox</title>
<polygon fill="#343434" stroke="#343434" points="99,-144 0,-144 0,-108 99,-108 99,-144"/>
<text text-anchor="middle" x="49.5" y="-122.3" font-family="Courier,monospace" font-size="14.00" fill="#a0d17b">cv_toolbox</text>
</g>
<!-- cv_toolbox&#45;&gt;cv_toolbox\.command -->
<g id="edge1" class="edge">
<title>cv_toolbox&#45;&gt;cv_toolbox\.command</title>
<path fill="none" stroke="#a0d17b" d="M99.41,-141.91C115.56,-147.16 133.79,-153.09 150.98,-158.68"/>
<polygon fill="#a0d17b" stroke="#a0d17b" points="150.36,-162.16 160.95,-161.93 152.52,-155.51 150.36,-162.16"/>
</g>
<!-- cv_toolbox\.core -->
<g id="node6" class="node">
<title>cv_toolbox\.core</title>
<polygon fill="#343434" stroke="#343434" points="287.5,-144 147.5,-144 147.5,-108 287.5,-108 287.5,-144"/>
<text text-anchor="middle" x="217.5" y="-122.3" font-family="Courier,monospace" font-size="14.00" fill="#a0d17b">cv_toolbox.core</text>
</g>
<!-- cv_toolbox&#45;&gt;cv_toolbox\.core -->
<g id="edge2" class="edge">
<title>cv_toolbox&#45;&gt;cv_toolbox\.core</title>
<path fill="none" stroke="#a0d17b" d="M99.41,-126C111.26,-126 124.22,-126 137.08,-126"/>
<polygon fill="#a0d17b" stroke="#a0d17b" points="137.34,-129.5 147.34,-126 137.34,-122.5 137.34,-129.5"/>
</g>
<!-- click -->
<g id="node5" class="node">
<title>click</title>
<polygon fill="#343434" stroke="#343434" points="78.5,-198 20.5,-198 20.5,-162 78.5,-162 78.5,-198"/>
<text text-anchor="middle" x="49.5" y="-176.3" font-family="Courier,monospace" font-size="14.00" fill="#de958e">click</text>
</g>
<!-- click&#45;&gt;cv_toolbox\.command -->
<g id="edge3" class="edge">
<title>click&#45;&gt;cv_toolbox\.command</title>
<path fill="none" stroke="#de958e" d="M78.66,-180C91.61,-180 107.77,-180 124.43,-180"/>
<polygon fill="#de958e" stroke="#de958e" points="124.85,-183.5 134.85,-180 124.85,-176.5 124.85,-183.5"/>
</g>
<!-- cv_toolbox\.core&#45;&gt;cv_toolbox\.core\.enum -->
<g id="edge4" class="edge">
<title>cv_toolbox\.core&#45;&gt;cv_toolbox\.core\.enum</title>
<path fill="none" stroke="#a0d17b" d="M287.59,-108.02C306.56,-103.08 327.26,-97.7 346.74,-92.63"/>
<polygon fill="#a0d17b" stroke="#a0d17b" points="347.7,-95.99 356.5,-90.09 345.94,-89.22 347.7,-95.99"/>
</g>
<!-- lunchbox\.enforce -->
<g id="node7" class="node">
<title>lunchbox\.enforce</title>
<polygon fill="#343434" stroke="#343434" points="292,-90 143,-90 143,-54 292,-54 292,-90"/>
<text text-anchor="middle" x="217.5" y="-68.3" font-family="Courier,monospace" font-size="14.00" fill="#de958e">lunchbox.enforce</text>
</g>
<!-- lunchbox\.enforce&#45;&gt;cv_toolbox\.core\.enum -->
<g id="edge5" class="edge">
<title>lunchbox\.enforce&#45;&gt;cv_toolbox\.core\.enum</title>
<path fill="none" stroke="#de958e" d="M292.24,-72C303.03,-72 314.3,-72 325.51,-72"/>
<polygon fill="#de958e" stroke="#de958e" points="325.78,-75.5 335.78,-72 325.78,-68.5 325.78,-75.5"/>
</g>
<!-- numpy -->
<g id="node8" class="node">
<title>numpy</title>
<polygon fill="#343434" stroke="#343434" points="246.5,-36 188.5,-36 188.5,0 246.5,0 246.5,-36"/>
<text text-anchor="middle" x="217.5" y="-14.3" font-family="Courier,monospace" font-size="14.00" fill="#de958e">numpy</text>
</g>
<!-- numpy&#45;&gt;cv_toolbox\.core\.enum -->
<g id="edge6" class="edge">
<title>numpy&#45;&gt;cv_toolbox\.core\.enum</title>
<path fill="none" stroke="#de958e" d="M246.92,-25.4C272.59,-32.08 311.6,-42.23 346.67,-51.36"/>
<polygon fill="#de958e" stroke="#de958e" points="345.88,-54.77 356.44,-53.9 347.65,-47.99 345.88,-54.77"/>
</g>
</g>
</svg>
