<?xml version="1.0" encoding="UTF-8" standalone="no"?>
<!DOCTYPE svg PUBLIC "-//W3C//DTD SVG 1.1//EN"
 "http://www.w3.org/Graphics/SVG/1.1/DTD/svg11.dtd">
<!-- Generated by graphviz version 2.43.0 (0)
 -->
<!-- Title: %3 Pages: 1 -->
<svg width="2017pt" height="1524pt"
 viewBox="0.00 0.00 2017.00 1523.96" xmlns="http://www.w3.org/2000/svg" xmlns:xlink="http://www.w3.org/1999/xlink">
<g id="graph0" class="graph" transform="scale(1 1) rotate(0) translate(4 1519.96)">
<title>%3</title>
<polygon fill="#242424" stroke="transparent" points="-4,4 -4,-1519.96 2013,-1519.96 2013,4 -4,4"/>
<!-- cli -->
<g id="node1" class="node">
<title>cli</title>
<polygon fill="#343434" stroke="#343434" points="68.5,-529.66 14.5,-529.66 14.5,-493.66 68.5,-493.66 68.5,-529.66"/>
<text text-anchor="middle" x="41.5" y="-507.96" font-family="Courier,monospace" font-size="14.00" fill="#b6ecf3">cli</text>
</g>
<!-- cv_depot\.api -->
<g id="node2" class="node">
<title>cv_depot\.api</title>
<polygon fill="#343434" stroke="#343434" points="933.5,-649.66 817.5,-649.66 817.5,-613.66 933.5,-613.66 933.5,-649.66"/>
<text text-anchor="middle" x="875.5" y="-627.96" font-family="Courier,monospace" font-size="14.00" fill="#b6ecf3">cv_depot.api</text>
</g>
<!-- cv_depot\.core\.viewer -->
<g id="node12" class="node">
<title>cv_depot\.core\.viewer</title>
<polygon fill="#343434" stroke="#343434" points="1180,-503.66 998,-503.66 998,-467.66 1180,-467.66 1180,-503.66"/>
<text text-anchor="middle" x="1089" y="-481.96" font-family="Courier,monospace" font-size="14.00" fill="#b6ecf3">cv_depot.core.viewer</text>
</g>
<!-- cv_depot\.api&#45;&gt;cv_depot\.core\.viewer -->
<g id="edge1" class="edge">
<title>cv_depot\.api&#45;&gt;cv_depot\.core\.viewer</title>
<path fill="none" stroke="#b6ecf3" d="M921.99,-613.51C936.16,-608.23 950.95,-601.11 962,-590.66 988.66,-565.44 972,-540.07 996.55,-511.24"/>
<polygon fill="#b6ecf3" stroke="#b6ecf3" points="999.28,-513.45 1003.73,-503.84 994.26,-508.58 999.28,-513.45"/>
</g>
<!-- cv_depot\.command -->
<g id="node3" class="node">
<title>cv_depot\.command</title>
<polygon fill="#343434" stroke="#343434" points="268,-847.66 119,-847.66 119,-811.66 268,-811.66 268,-847.66"/>
<text text-anchor="middle" x="193.5" y="-825.96" font-family="Courier,monospace" font-size="14.00" fill="#b6ecf3">cv_depot.command</text>
</g>
<!-- cv_depot\.core\.channel_map -->
<g id="node4" class="node">
<title>cv_depot\.core\.channel_map</title>
<polygon fill="#343434" stroke="#343434" points="753,-1070.66 530,-1070.66 530,-1034.66 753,-1034.66 753,-1070.66"/>
<text text-anchor="middle" x="641.5" y="-1048.96" font-family="Courier,monospace" font-size="14.00" fill="#b6ecf3">cv_depot.core.channel_map</text>
</g>
<!-- cv_depot\.core\.channel_map&#45;&gt;cv_depot\.api -->
<g id="edge2" class="edge">
<title>cv_depot\.core\.channel_map&#45;&gt;cv_depot\.api</title>
<path fill="none" stroke="#b6ecf3" d="M652.47,-1034.57C689.06,-968.17 816.08,-737.67 859.68,-658.56"/>
<polygon fill="#b6ecf3" stroke="#b6ecf3" points="862.81,-660.13 864.57,-649.68 856.68,-656.75 862.81,-660.13"/>
</g>
<!-- cv_depot\.ops\.channel -->
<g id="node13" class="node">
<title>cv_depot\.ops\.channel</title>
<polygon fill="#343434" stroke="#343434" points="2009,-936.66 1827,-936.66 1827,-900.66 2009,-900.66 2009,-936.66"/>
<text text-anchor="middle" x="1918" y="-914.96" font-family="Courier,monospace" font-size="14.00" fill="#b6ecf3">cv_depot.ops.channel</text>
</g>
<!-- cv_depot\.core\.channel_map&#45;&gt;cv_depot\.ops\.channel -->
<g id="edge3" class="edge">
<title>cv_depot\.core\.channel_map&#45;&gt;cv_depot\.ops\.channel</title>
<path fill="none" stroke="#b6ecf3" d="M753.24,-1047.81C817.15,-1049.23 897.4,-1058.43 962,-1089.66 982.37,-1099.51 978.38,-1114.38 998,-1125.66 1070.53,-1167.34 1103.05,-1140.83 1180,-1173.66 1197.25,-1181.02 1197.95,-1190.58 1216,-1195.66 1379.58,-1241.68 1432.39,-1217.7 1598,-1179.66 1687.85,-1159.02 1718.97,-1161.2 1791,-1103.66 1845.84,-1059.86 1886.01,-985.78 1904.92,-945.95"/>
<polygon fill="#b6ecf3" stroke="#b6ecf3" points="1908.12,-947.37 1909.16,-936.83 1901.77,-944.42 1908.12,-947.37"/>
</g>
<!-- cv_depot\.ops\.draw -->
<g id="node14" class="node">
<title>cv_depot\.ops\.draw</title>
<polygon fill="#343434" stroke="#343434" points="1791,-936.66 1634,-936.66 1634,-900.66 1791,-900.66 1791,-936.66"/>
<text text-anchor="middle" x="1712.5" y="-914.96" font-family="Courier,monospace" font-size="14.00" fill="#b6ecf3">cv_depot.ops.draw</text>
</g>
<!-- cv_depot\.core\.channel_map&#45;&gt;cv_depot\.ops\.draw -->
<g id="edge4" class="edge">
<title>cv_depot\.core\.channel_map&#45;&gt;cv_depot\.ops\.draw</title>
<path fill="none" stroke="#b6ecf3" d="M753.07,-1041.03C931.26,-1021.9 1292.87,-981.54 1598,-937.66 1606.32,-936.46 1614.96,-935.15 1623.6,-933.78"/>
<polygon fill="#b6ecf3" stroke="#b6ecf3" points="1624.41,-937.2 1633.73,-932.17 1623.3,-930.29 1624.41,-937.2"/>
</g>
<!-- cv_depot\.core\.color -->
<g id="node5" class="node">
<title>cv_depot\.core\.color</title>
<polygon fill="#343434" stroke="#343434" points="728,-793.66 555,-793.66 555,-757.66 728,-757.66 728,-793.66"/>
<text text-anchor="middle" x="641.5" y="-771.96" font-family="Courier,monospace" font-size="14.00" fill="#b6ecf3">cv_depot.core.color</text>
</g>
<!-- cv_depot\.core\.color&#45;&gt;cv_depot\.api -->
<g id="edge5" class="edge">
<title>cv_depot\.core\.color&#45;&gt;cv_depot\.api</title>
<path fill="none" stroke="#b6ecf3" d="M708.63,-757.55C723.79,-752 739.43,-745.08 753,-736.66 771.96,-724.89 772.35,-716.52 789,-701.66 806.43,-686.1 826.62,-669.51 843.01,-656.38"/>
<polygon fill="#b6ecf3" stroke="#b6ecf3" points="845.55,-658.83 851.19,-649.86 841.19,-653.35 845.55,-658.83"/>
</g>
<!-- cv_depot\.core\.types -->
<g id="node10" class="node">
<title>cv_depot\.core\.types</title>
<polygon fill="#343434" stroke="#343434" points="962,-961.66 789,-961.66 789,-925.66 962,-925.66 962,-961.66"/>
<text text-anchor="middle" x="875.5" y="-939.96" font-family="Courier,monospace" font-size="14.00" fill="#b6ecf3">cv_depot.core.types</text>
</g>
<!-- cv_depot\.core\.color&#45;&gt;cv_depot\.core\.types -->
<g id="edge6" class="edge">
<title>cv_depot\.core\.color&#45;&gt;cv_depot\.core\.types</title>
<path fill="none" stroke="#b6ecf3" d="M657.85,-793.92C682.76,-822.53 734.67,-878.11 789,-911.66 794.8,-915.24 801.06,-918.52 807.47,-921.5"/>
<polygon fill="#b6ecf3" stroke="#b6ecf3" points="806.36,-924.84 816.92,-925.65 809.17,-918.43 806.36,-924.84"/>
</g>
<!-- cv_depot\.core\.color&#45;&gt;cv_depot\.ops\.channel -->
<g id="edge7" class="edge">
<title>cv_depot\.core\.color&#45;&gt;cv_depot\.ops\.channel</title>
<path fill="none" stroke="#b6ecf3" d="M705.42,-757.62C731.12,-751.05 761.26,-744.33 789,-740.66 967.24,-717.07 1425.12,-701.28 1598,-750.66 1709.69,-782.56 1827.08,-856.49 1883.21,-894.75"/>
<polygon fill="#b6ecf3" stroke="#b6ecf3" points="1881.46,-897.8 1891.69,-900.58 1885.43,-892.03 1881.46,-897.8"/>
</g>
<!-- cv_depot\.core\.color&#45;&gt;cv_depot\.ops\.draw -->
<g id="edge8" class="edge">
<title>cv_depot\.core\.color&#45;&gt;cv_depot\.ops\.draw</title>
<path fill="none" stroke="#b6ecf3" d="M728.17,-787.12C927.81,-813.82 1422.27,-879.97 1623.84,-906.93"/>
<polygon fill="#b6ecf3" stroke="#b6ecf3" points="1623.42,-910.41 1633.8,-908.26 1624.35,-903.47 1623.42,-910.41"/>
</g>
<!-- cv_depot\.ops\.edit -->
<g id="node15" class="node">
<title>cv_depot\.ops\.edit</title>
<polygon fill="#343434" stroke="#343434" points="1996.5,-1202.66 1839.5,-1202.66 1839.5,-1166.66 1996.5,-1166.66 1996.5,-1202.66"/>
<text text-anchor="middle" x="1918" y="-1180.96" font-family="Courier,monospace" font-size="14.00" fill="#b6ecf3">cv_depot.ops.edit</text>
</g>
<!-- cv_depot\.core\.color&#45;&gt;cv_depot\.ops\.edit -->
<g id="edge9" class="edge">
<title>cv_depot\.core\.color&#45;&gt;cv_depot\.ops\.edit</title>
<path fill="none" stroke="#b6ecf3" d="M686.44,-793.67C748.54,-819.43 865.18,-868.98 962,-916.66 1061.03,-965.43 1097.59,-962.22 1180,-1035.66 1200.71,-1054.12 1193,-1071.15 1216,-1086.66 1373.26,-1192.69 1445.45,-1152.06 1634,-1172.66 1699.12,-1179.77 1773.1,-1182.73 1829.08,-1183.93"/>
<polygon fill="#b6ecf3" stroke="#b6ecf3" points="1829.25,-1187.44 1839.32,-1184.14 1829.39,-1180.44 1829.25,-1187.44"/>
</g>
<!-- cv_depot\.ops\.filter -->
<g id="node16" class="node">
<title>cv_depot\.ops\.filter</title>
<polygon fill="#343434" stroke="#343434" points="1598,-795.66 1425,-795.66 1425,-759.66 1598,-759.66 1598,-795.66"/>
<text text-anchor="middle" x="1511.5" y="-773.96" font-family="Courier,monospace" font-size="14.00" fill="#b6ecf3">cv_depot.ops.filter</text>
</g>
<!-- cv_depot\.core\.color&#45;&gt;cv_depot\.ops\.filter -->
<g id="edge10" class="edge">
<title>cv_depot\.core\.color&#45;&gt;cv_depot\.ops\.filter</title>
<path fill="none" stroke="#b6ecf3" d="M728.17,-764.88C867.26,-749.16 1150.7,-724.5 1389,-750.66 1402.83,-752.18 1417.38,-754.64 1431.43,-757.47"/>
<polygon fill="#b6ecf3" stroke="#b6ecf3" points="1431.04,-760.97 1441.55,-759.6 1432.48,-754.12 1431.04,-760.97"/>
</g>
<!-- cv_depot\.core\.enforce -->
<g id="node6" class="node">
<title>cv_depot\.core\.enforce</title>
<polygon fill="#343434" stroke="#343434" points="494,-1319.66 304,-1319.66 304,-1283.66 494,-1283.66 494,-1319.66"/>
<text text-anchor="middle" x="399" y="-1297.96" font-family="Courier,monospace" font-size="14.00" fill="#b6ecf3">cv_depot.core.enforce</text>
</g>
<!-- cv_depot\.core\.enforce&#45;&gt;cv_depot\.ops\.edit -->
<g id="edge11" class="edge">
<title>cv_depot\.core\.enforce&#45;&gt;cv_depot\.ops\.edit</title>
<path fill="none" stroke="#b6ecf3" d="M494.1,-1317.63C657.73,-1343.98 1005.54,-1393.66 1301.5,-1393.66 1301.5,-1393.66 1301.5,-1393.66 1512.5,-1393.66 1636.74,-1393.66 1683.77,-1432.4 1791,-1369.66 1852.48,-1333.68 1890.52,-1254.38 1907.16,-1212.24"/>
<polygon fill="#b6ecf3" stroke="#b6ecf3" points="1910.45,-1213.45 1910.75,-1202.86 1903.91,-1210.95 1910.45,-1213.45"/>
</g>
<!-- cv_depot\.core\.enum -->
<g id="node7" class="node">
<title>cv_depot\.core\.enum</title>
<polygon fill="#343434" stroke="#343434" points="481.5,-934.66 316.5,-934.66 316.5,-898.66 481.5,-898.66 481.5,-934.66"/>
<text text-anchor="middle" x="399" y="-912.96" font-family="Courier,monospace" font-size="14.00" fill="#b6ecf3">cv_depot.core.enum</text>
</g>
<!-- cv_depot\.core\.enum&#45;&gt;cv_depot\.api -->
<g id="edge12" class="edge">
<title>cv_depot\.core\.enum&#45;&gt;cv_depot\.api</title>
<path fill="none" stroke="#b6ecf3" d="M409.22,-898.65C427.6,-864.5 472.06,-790 530,-748.66 614.95,-688.03 733.75,-656.93 807.32,-642.49"/>
<polygon fill="#b6ecf3" stroke="#b6ecf3" points="808.23,-645.88 817.39,-640.56 806.91,-639.01 808.23,-645.88"/>
</g>
<!-- cv_depot\.core\.enum&#45;&gt;cv_depot\.core\.color -->
<g id="edge13" class="edge">
<title>cv_depot\.core\.enum&#45;&gt;cv_depot\.core\.color</title>
<path fill="none" stroke="#b6ecf3" d="M444.25,-898.56C461.11,-890.23 479.68,-879.16 494,-865.66 516.07,-844.84 505.82,-825.99 530,-807.66 534.79,-804.03 539.99,-800.81 545.42,-797.95"/>
<polygon fill="#b6ecf3" stroke="#b6ecf3" points="547.25,-800.95 554.76,-793.48 544.23,-794.64 547.25,-800.95"/>
</g>
<!-- cv_depot\.core\.image -->
<g id="node8" class="node">
<title>cv_depot\.core\.image</title>
<polygon fill="#343434" stroke="#343434" points="1389,-610.66 1216,-610.66 1216,-574.66 1389,-574.66 1389,-610.66"/>
<text text-anchor="middle" x="1302.5" y="-588.96" font-family="Courier,monospace" font-size="14.00" fill="#b6ecf3">cv_depot.core.image</text>
</g>
<!-- cv_depot\.core\.enum&#45;&gt;cv_depot\.core\.image -->
<g id="edge14" class="edge">
<title>cv_depot\.core\.enum&#45;&gt;cv_depot\.core\.image</title>
<path fill="none" stroke="#b6ecf3" d="M480.43,-898.62C653.71,-859.01 1056.57,-762.72 1180,-696.66 1218.44,-676.09 1255.43,-641.63 1278.29,-618.06"/>
<polygon fill="#b6ecf3" stroke="#b6ecf3" points="1280.83,-620.47 1285.2,-610.82 1275.76,-615.63 1280.83,-620.47"/>
</g>
<!-- cv_depot\.core\.enum&#45;&gt;cv_depot\.core\.types -->
<g id="edge15" class="edge">
<title>cv_depot\.core\.enum&#45;&gt;cv_depot\.core\.types</title>
<path fill="none" stroke="#b6ecf3" d="M481.57,-921.3C564.02,-925.99 691.39,-933.24 778.63,-938.2"/>
<polygon fill="#b6ecf3" stroke="#b6ecf3" points="778.61,-941.71 788.79,-938.78 779.01,-934.72 778.61,-941.71"/>
</g>
<!-- cv_depot\.core\.video -->
<g id="node11" class="node">
<title>cv_depot\.core\.video</title>
<polygon fill="#343434" stroke="#343434" points="1175.5,-1251.66 1002.5,-1251.66 1002.5,-1215.66 1175.5,-1215.66 1175.5,-1251.66"/>
<text text-anchor="middle" x="1089" y="-1229.96" font-family="Courier,monospace" font-size="14.00" fill="#b6ecf3">cv_depot.core.video</text>
</g>
<!-- cv_depot\.core\.enum&#45;&gt;cv_depot\.core\.video -->
<g id="edge16" class="edge">
<title>cv_depot\.core\.enum&#45;&gt;cv_depot\.core\.video</title>
<path fill="none" stroke="#b6ecf3" d="M405.65,-934.78C419.42,-975.54 458.87,-1074.25 530,-1117.66 694.7,-1218.17 790.39,-1072.46 962,-1160.66 983.57,-1171.74 977.93,-1188.05 998,-1201.66 1003.22,-1205.2 1008.88,-1208.4 1014.74,-1211.27"/>
<polygon fill="#b6ecf3" stroke="#b6ecf3" points="1013.5,-1214.56 1024.05,-1215.53 1016.41,-1208.19 1013.5,-1214.56"/>
</g>
<!-- cv_depot\.core\.enum&#45;&gt;cv_depot\.ops\.channel -->
<g id="edge17" class="edge">
<title>cv_depot\.core\.enum&#45;&gt;cv_depot\.ops\.channel</title>
<path fill="none" stroke="#b6ecf3" d="M476.45,-934.69C650.28,-975.33 1071.24,-1071.74 1216,-1086.66 1292.48,-1094.54 1312.12,-1087.95 1389,-1086.66 1481.93,-1085.1 1505.89,-1092.05 1598,-1079.66 1685.39,-1067.9 1713.07,-1074.92 1791,-1033.66 1833.46,-1011.18 1872.7,-971.01 1895.76,-944.6"/>
<polygon fill="#b6ecf3" stroke="#b6ecf3" points="1898.52,-946.75 1902.38,-936.88 1893.21,-942.19 1898.52,-946.75"/>
</g>
<!-- cv_depot\.core\.enum&#45;&gt;cv_depot\.ops\.edit -->
<g id="edge18" class="edge">
<title>cv_depot\.core\.enum&#45;&gt;cv_depot\.ops\.edit</title>
<path fill="none" stroke="#b6ecf3" d="M408.36,-934.75C425.54,-969.66 468.47,-1045.81 530,-1079.66 699.22,-1172.75 788.41,-1042 962,-1126.66 982.62,-1136.72 978.04,-1152.35 998,-1163.66 1070.31,-1204.64 1100.93,-1181.03 1180,-1206.66 1196.49,-1212 1199.68,-1215.82 1216,-1221.66 1307.34,-1254.36 1329.02,-1270.51 1425,-1284.66 1585.93,-1308.39 1637.4,-1338.2 1791,-1284.66 1833.12,-1269.98 1871.73,-1234.69 1894.81,-1210.22"/>
<polygon fill="#b6ecf3" stroke="#b6ecf3" points="1897.54,-1212.43 1901.74,-1202.7 1892.39,-1207.68 1897.54,-1212.43"/>
</g>
<!-- cv_depot\.core\.image&#45;&gt;cv_depot\.api -->
<g id="edge19" class="edge">
<title>cv_depot\.core\.image&#45;&gt;cv_depot\.api</title>
<path fill="none" stroke="#b6ecf3" d="M1261.47,-574.6C1201.23,-550.24 1085.06,-514.4 998,-555.66 975.17,-566.48 982.54,-584.94 962,-599.66 956.15,-603.85 949.69,-607.56 943.02,-610.82"/>
<polygon fill="#b6ecf3" stroke="#b6ecf3" points="941.48,-607.68 933.83,-615.01 944.38,-614.05 941.48,-607.68"/>
</g>
<!-- cv_depot\.core\.image&#45;&gt;cv_depot\.ops\.channel -->
<g id="edge20" class="edge">
<title>cv_depot\.core\.image&#45;&gt;cv_depot\.ops\.channel</title>
<path fill="none" stroke="#b6ecf3" d="M1303.72,-574.52C1305.5,-515.77 1319.55,-329.3 1425,-238.66 1549.02,-132.06 1665.76,-95.49 1791,-200.66 1899.07,-291.42 1914.47,-768.96 1916.65,-890.5"/>
<polygon fill="#b6ecf3" stroke="#b6ecf3" points="1913.15,-890.57 1916.81,-900.51 1920.15,-890.45 1913.15,-890.57"/>
</g>
<!-- cv_depot\.core\.image&#45;&gt;cv_depot\.ops\.draw -->
<g id="edge21" class="edge">
<title>cv_depot\.core\.image&#45;&gt;cv_depot\.ops\.draw</title>
<path fill="none" stroke="#b6ecf3" d="M1353.35,-610.71C1415.83,-635.16 1523.72,-683.58 1598,-750.66 1643.73,-791.95 1679.99,-855.32 1698.35,-891.27"/>
<polygon fill="#b6ecf3" stroke="#b6ecf3" points="1695.43,-893.27 1703.04,-900.64 1701.69,-890.13 1695.43,-893.27"/>
</g>
<!-- cv_depot\.core\.image&#45;&gt;cv_depot\.ops\.edit -->
<g id="edge22" class="edge">
<title>cv_depot\.core\.image&#45;&gt;cv_depot\.ops\.edit</title>
<path fill="none" stroke="#b6ecf3" d="M1389.12,-589.92C1451.15,-591.66 1534.85,-602 1598,-639.66 1719.16,-711.92 1719.7,-769.93 1791,-891.66 1844.92,-983.71 1889.04,-1103.15 1907.58,-1156.63"/>
<polygon fill="#b6ecf3" stroke="#b6ecf3" points="1904.38,-1158.09 1910.94,-1166.41 1911,-1155.82 1904.38,-1158.09"/>
</g>
<!-- cv_depot\.core\.image&#45;&gt;cv_depot\.ops\.filter -->
<g id="edge23" class="edge">
<title>cv_depot\.core\.image&#45;&gt;cv_depot\.ops\.filter</title>
<path fill="none" stroke="#b6ecf3" d="M1318.48,-610.85C1340.36,-636.83 1383.04,-685.34 1425,-720.66 1439.26,-732.66 1456.12,-744.36 1471.09,-754.01"/>
<polygon fill="#b6ecf3" stroke="#b6ecf3" points="1469.33,-757.04 1479.65,-759.44 1473.08,-751.13 1469.33,-757.04"/>
</g>
<!-- cv_depot\.core\.tools -->
<g id="node9" class="node">
<title>cv_depot\.core\.tools</title>
<polygon fill="#343434" stroke="#343434" points="728,-419.66 555,-419.66 555,-383.66 728,-383.66 728,-419.66"/>
<text text-anchor="middle" x="641.5" y="-397.96" font-family="Courier,monospace" font-size="14.00" fill="#b6ecf3">cv_depot.core.tools</text>
</g>
<!-- cv_depot\.core\.tools&#45;&gt;cv_depot\.core\.image -->
<g id="edge24" class="edge">
<title>cv_depot\.core\.tools&#45;&gt;cv_depot\.core\.image</title>
<path fill="none" stroke="#b6ecf3" d="M728.17,-396.63C859.75,-390.37 1104.31,-384.97 1180,-425.66 1236.68,-456.12 1273.6,-525.95 1290.61,-564.97"/>
<polygon fill="#b6ecf3" stroke="#b6ecf3" points="1287.58,-566.79 1294.69,-574.65 1294.03,-564.07 1287.58,-566.79"/>
</g>
<!-- cv_depot\.core\.types&#45;&gt;cv_depot\.core\.image -->
<g id="edge25" class="edge">
<title>cv_depot\.core\.types&#45;&gt;cv_depot\.core\.image</title>
<path fill="none" stroke="#b6ecf3" d="M898.42,-925.36C922.07,-906.12 961.29,-875.64 998,-853.66 1074.76,-807.7 1111.73,-825.48 1180,-767.66 1230.01,-725.31 1268.99,-657.76 1288.26,-620.17"/>
<polygon fill="#b6ecf3" stroke="#b6ecf3" points="1291.58,-621.36 1292.94,-610.86 1285.32,-618.22 1291.58,-621.36"/>
</g>
<!-- cv_depot\.core\.types&#45;&gt;cv_depot\.core\.video -->
<g id="edge26" class="edge">
<title>cv_depot\.core\.types&#45;&gt;cv_depot\.core\.video</title>
<path fill="none" stroke="#b6ecf3" d="M889.73,-961.8C925.86,-1011.34 1026.32,-1149.08 1068.72,-1207.22"/>
<polygon fill="#b6ecf3" stroke="#b6ecf3" points="1066.05,-1209.51 1074.77,-1215.52 1071.71,-1205.38 1066.05,-1209.51"/>
</g>
<!-- cv_depot\.core\.types&#45;&gt;cv_depot\.ops\.draw -->
<g id="edge27" class="edge">
<title>cv_depot\.core\.types&#45;&gt;cv_depot\.ops\.draw</title>
<path fill="none" stroke="#b6ecf3" d="M962.32,-941.09C1121.86,-936.31 1462.46,-926.11 1623.57,-921.29"/>
<polygon fill="#b6ecf3" stroke="#b6ecf3" points="1624.02,-924.78 1633.92,-920.98 1623.82,-917.78 1624.02,-924.78"/>
</g>
<!-- cv_depot\.core\.types&#45;&gt;cv_depot\.ops\.edit -->
<g id="edge28" class="edge">
<title>cv_depot\.core\.types&#45;&gt;cv_depot\.ops\.edit</title>
<path fill="none" stroke="#b6ecf3" d="M898.63,-962.06C969.5,-1019.62 1199.41,-1195.99 1425,-1255.66 1582.26,-1297.26 1633.66,-1296.94 1791,-1255.66 1825.61,-1246.58 1860.73,-1225.61 1885.07,-1208.8"/>
<polygon fill="#b6ecf3" stroke="#b6ecf3" points="1887.38,-1211.45 1893.53,-1202.82 1883.34,-1205.73 1887.38,-1211.45"/>
</g>
<!-- cv_depot\.core\.types&#45;&gt;cv_depot\.ops\.filter -->
<g id="edge29" class="edge">
<title>cv_depot\.core\.types&#45;&gt;cv_depot\.ops\.filter</title>
<path fill="none" stroke="#b6ecf3" d="M937.31,-925.63C1005.09,-905.72 1118.04,-873.14 1216,-847.66 1284.39,-829.87 1362.19,-811.45 1420.65,-797.98"/>
<polygon fill="#b6ecf3" stroke="#b6ecf3" points="1421.63,-801.34 1430.59,-795.69 1420.06,-794.52 1421.63,-801.34"/>
</g>
<!-- cv_depot\.core\.viewer&#45;&gt;cv_depot\.api -->
<g id="edge30" class="edge">
<title>cv_depot\.core\.viewer&#45;&gt;cv_depot\.api</title>
<path fill="none" stroke="#b6ecf3" d="M1039.2,-503.68C1024.58,-508.91 1009.41,-516.04 998,-526.66 968.86,-553.77 990.92,-581.31 962,-608.66 956.33,-614.02 949.68,-618.5 942.64,-622.18"/>
<polygon fill="#b6ecf3" stroke="#b6ecf3" points="941.14,-619.02 933.55,-626.42 944.1,-625.36 941.14,-619.02"/>
</g>
<!-- cv_depot\.core\.viewer&#45;&gt;cv_depot\.core\.image -->
<g id="edge31" class="edge">
<title>cv_depot\.core\.viewer&#45;&gt;cv_depot\.core\.image</title>
<path fill="none" stroke="#b6ecf3" d="M1146.44,-503.66C1157.73,-507.84 1169.38,-512.57 1180,-517.66 1210.85,-532.46 1243.76,-553.11 1267.54,-568.99"/>
<polygon fill="#b6ecf3" stroke="#b6ecf3" points="1265.62,-571.92 1275.86,-574.61 1269.53,-566.11 1265.62,-571.92"/>
</g>
<!-- cv_depot\.ops\.channel&#45;&gt;cv_depot\.ops\.draw -->
<g id="edge32" class="edge">
<title>cv_depot\.ops\.channel&#45;&gt;cv_depot\.ops\.draw</title>
<path fill="none" stroke="#b6ecf3" d="M1826.75,-925.37C1818.28,-925.43 1809.69,-925.42 1801.24,-925.35"/>
<polygon fill="#b6ecf3" stroke="#b6ecf3" points="1801.05,-921.85 1791.02,-925.24 1800.97,-928.85 1801.05,-921.85"/>
</g>
<!-- cv_depot\.ops\.draw&#45;&gt;cv_depot\.ops\.channel -->
<g id="edge33" class="edge">
<title>cv_depot\.ops\.draw&#45;&gt;cv_depot\.ops\.channel</title>
<path fill="none" stroke="#b6ecf3" d="M1791.02,-912.08C1799.41,-911.96 1808.04,-911.9 1816.66,-911.91"/>
<polygon fill="#b6ecf3" stroke="#b6ecf3" points="1816.74,-915.41 1826.75,-911.95 1816.76,-908.41 1816.74,-915.41"/>
</g>
<!-- cv_depot\.ops\.draw&#45;&gt;cv_depot\.ops\.draw -->
<g id="edge34" class="edge">
<title>cv_depot\.ops\.draw&#45;&gt;cv_depot\.ops\.draw</title>
<path fill="none" stroke="#b6ecf3" d="M1676.32,-936.81C1670.75,-946.2 1682.81,-954.66 1712.5,-954.66 1730.59,-954.66 1742.14,-951.52 1747.14,-946.94"/>
<polygon fill="#b6ecf3" stroke="#b6ecf3" points="1750.63,-947.22 1748.68,-936.81 1743.71,-946.17 1750.63,-947.22"/>
</g>
<!-- cv_depot\.ops\.draw&#45;&gt;cv_depot\.ops\.edit -->
<g id="edge35" class="edge">
<title>cv_depot\.ops\.draw&#45;&gt;cv_depot\.ops\.edit</title>
<path fill="none" stroke="#b6ecf3" d="M1727.49,-936.94C1762.86,-983.18 1855.99,-1104.91 1897.06,-1158.59"/>
<polygon fill="#b6ecf3" stroke="#b6ecf3" points="1894.33,-1160.78 1903.18,-1166.6 1899.89,-1156.53 1894.33,-1160.78"/>
</g>
<!-- cv_depot\.ops\.filter&#45;&gt;cv_depot\.ops\.draw -->
<g id="edge36" class="edge">
<title>cv_depot\.ops\.filter&#45;&gt;cv_depot\.ops\.draw</title>
<path fill="none" stroke="#b6ecf3" d="M1538.11,-795.8C1573.63,-820.97 1637.94,-866.54 1677.47,-894.55"/>
<polygon fill="#b6ecf3" stroke="#b6ecf3" points="1675.81,-897.66 1685.99,-900.58 1679.85,-891.95 1675.81,-897.66"/>
</g>
<!-- click -->
<g id="node17" class="node">
<title>click</title>
<polygon fill="#343434" stroke="#343434" points="70.5,-847.66 12.5,-847.66 12.5,-811.66 70.5,-811.66 70.5,-847.66"/>
<text text-anchor="middle" x="41.5" y="-825.96" font-family="Courier,monospace" font-size="14.00" fill="#de958e">click</text>
</g>
<!-- click&#45;&gt;cv_depot\.command -->
<g id="edge37" class="edge">
<title>click&#45;&gt;cv_depot\.command</title>
<path fill="none" stroke="#de958e" d="M70.71,-829.66C81.78,-829.66 95.1,-829.66 108.82,-829.66"/>
<polygon fill="#de958e" stroke="#de958e" points="108.85,-833.16 118.85,-829.66 108.85,-826.16 108.85,-833.16"/>
</g>
<!-- ffmpeg -->
<g id="node18" class="node">
<title>ffmpeg</title>
<polygon fill="#343434" stroke="#343434" points="908.5,-1205.66 842.5,-1205.66 842.5,-1169.66 908.5,-1169.66 908.5,-1205.66"/>
<text text-anchor="middle" x="875.5" y="-1183.96" font-family="Courier,monospace" font-size="14.00" fill="#de958e">ffmpeg</text>
</g>
<!-- ffmpeg&#45;&gt;cv_depot\.core\.video -->
<g id="edge38" class="edge">
<title>ffmpeg&#45;&gt;cv_depot\.core\.video</title>
<path fill="none" stroke="#de958e" d="M908.62,-1194.64C931.67,-1199.66 963.97,-1206.68 994.83,-1213.39"/>
<polygon fill="#de958e" stroke="#de958e" points="994.27,-1216.85 1004.78,-1215.56 995.75,-1210.01 994.27,-1216.85"/>
</g>
<!-- cv_depot -->
<g id="node19" class="node">
<title>cv_depot</title>
<polygon fill="#343434" stroke="#343434" points="83,-583.66 0,-583.66 0,-547.66 83,-547.66 83,-583.66"/>
<text text-anchor="middle" x="41.5" y="-561.96" font-family="Courier,monospace" font-size="14.00" fill="#a0d17b">cv_depot</text>
</g>
<!-- cv_depot&#45;&gt;cv_depot\.api -->
<g id="edge39" class="edge">
<title>cv_depot&#45;&gt;cv_depot\.api</title>
<path fill="none" stroke="#a0d17b" d="M70.11,-547.6C74.46,-544.66 78.87,-541.61 83,-538.66 183.61,-466.77 186.88,-409.31 304,-369.66 347.18,-355.04 739.26,-363.03 753,-374.66 819.27,-430.75 743.39,-492.78 789,-566.66 799.33,-583.39 815.66,-597.37 831.29,-608.02"/>
<polygon fill="#a0d17b" stroke="#a0d17b" points="829.57,-611.08 839.87,-613.6 833.39,-605.21 829.57,-611.08"/>
</g>
<!-- cv_depot&#45;&gt;cv_depot\.command -->
<g id="edge40" class="edge">
<title>cv_depot&#45;&gt;cv_depot\.command</title>
<path fill="none" stroke="#a0d17b" d="M43.16,-583.79C45.72,-627.43 58.19,-739.37 119,-802.66 119.9,-803.6 120.84,-804.5 121.8,-805.37"/>
<polygon fill="#a0d17b" stroke="#a0d17b" points="119.7,-808.17 129.77,-811.48 123.96,-802.62 119.7,-808.17"/>
</g>
<!-- cv_depot\.core -->
<g id="node20" class="node">
<title>cv_depot\.core</title>
<polygon fill="#343434" stroke="#343434" points="255.5,-793.66 131.5,-793.66 131.5,-757.66 255.5,-757.66 255.5,-793.66"/>
<text text-anchor="middle" x="193.5" y="-771.96" font-family="Courier,monospace" font-size="14.00" fill="#a0d17b">cv_depot.core</text>
</g>
<!-- cv_depot&#45;&gt;cv_depot\.core -->
<g id="edge41" class="edge">
<title>cv_depot&#45;&gt;cv_depot\.core</title>
<path fill="none" stroke="#a0d17b" d="M55.55,-583.93C82.16,-621.18 142.76,-706.02 173.65,-749.27"/>
<polygon fill="#a0d17b" stroke="#a0d17b" points="170.93,-751.48 179.59,-757.58 176.62,-747.41 170.93,-751.48"/>
</g>
<!-- cv_depot\.ops -->
<g id="node21" class="node">
<title>cv_depot\.ops</title>
<polygon fill="#343434" stroke="#343434" points="699.5,-152.66 583.5,-152.66 583.5,-116.66 699.5,-116.66 699.5,-152.66"/>
<text text-anchor="middle" x="641.5" y="-130.96" font-family="Courier,monospace" font-size="14.00" fill="#a0d17b">cv_depot.ops</text>
</g>
<!-- cv_depot&#45;&gt;cv_depot\.ops -->
<g id="edge42" class="edge">
<title>cv_depot&#45;&gt;cv_depot\.ops</title>
<path fill="none" stroke="#a0d17b" d="M75.43,-547.64C78.35,-544.96 80.96,-541.97 83,-538.66 152.07,-426.59 36,-346.84 119,-244.66 228.87,-109.41 459.29,-113.62 573.45,-125.3"/>
<polygon fill="#a0d17b" stroke="#a0d17b" points="573.15,-128.79 583.47,-126.37 573.9,-121.83 573.15,-128.79"/>
</g>
<!-- cv_depot\.core&#45;&gt;cv_depot\.core\.channel_map -->
<g id="edge43" class="edge">
<title>cv_depot\.core&#45;&gt;cv_depot\.core\.channel_map</title>
<path fill="none" stroke="#a0d17b" d="M255.77,-791.94C260.36,-794.93 264.53,-798.47 268,-802.66 330.6,-878.32 232.21,-953.65 304,-1020.66 367.53,-1079.96 470.18,-1081.36 545.42,-1072"/>
<polygon fill="#a0d17b" stroke="#a0d17b" points="545.93,-1075.47 555.38,-1070.68 545.01,-1068.53 545.93,-1075.47"/>
</g>
<!-- cv_depot\.core&#45;&gt;cv_depot\.core\.color -->
<g id="edge44" class="edge">
<title>cv_depot\.core&#45;&gt;cv_depot\.core\.color</title>
<path fill="none" stroke="#a0d17b" d="M255.58,-775.66C330.16,-775.66 457.17,-775.66 544.78,-775.66"/>
<polygon fill="#a0d17b" stroke="#a0d17b" points="545,-779.16 555,-775.66 545,-772.16 545,-779.16"/>
</g>
<!-- cv_depot\.core&#45;&gt;cv_depot\.core\.enforce -->
<g id="edge45" class="edge">
<title>cv_depot\.core&#45;&gt;cv_depot\.core\.enforce</title>
<path fill="none" stroke="#a0d17b" d="M255.76,-791.45C260.41,-794.54 264.6,-798.24 268,-802.66 321.17,-871.84 269.7,-1113.43 304,-1193.66 318.1,-1226.64 346.16,-1256.75 367.97,-1276.75"/>
<polygon fill="#a0d17b" stroke="#a0d17b" points="365.9,-1279.59 375.69,-1283.64 370.57,-1274.37 365.9,-1279.59"/>
</g>
<!-- cv_depot\.core&#45;&gt;cv_depot\.core\.enum -->
<g id="edge46" class="edge">
<title>cv_depot\.core&#45;&gt;cv_depot\.core\.enum</title>
<path fill="none" stroke="#a0d17b" d="M250.49,-793.74C256.55,-796.42 262.51,-799.4 268,-802.66 309.4,-827.25 349.96,-865.78 374.47,-891.13"/>
<polygon fill="#a0d17b" stroke="#a0d17b" points="372.11,-893.73 381.55,-898.54 377.18,-888.89 372.11,-893.73"/>
</g>
<!-- cv_depot\.core&#45;&gt;cv_depot\.core\.image -->
<g id="edge47" class="edge">
<title>cv_depot\.core&#45;&gt;cv_depot\.core\.image</title>
<path fill="none" stroke="#a0d17b" d="M255.57,-767.89C432.25,-745.2 933.19,-679.38 962,-658.66 990.4,-638.23 968.14,-606.88 998,-588.66 1069.02,-545.32 1167.89,-556.96 1233.24,-572.25"/>
<polygon fill="#a0d17b" stroke="#a0d17b" points="1232.48,-575.67 1243.03,-574.63 1234.14,-568.87 1232.48,-575.67"/>
</g>
<!-- cv_depot\.core&#45;&gt;cv_depot\.core\.tools -->
<g id="edge48" class="edge">
<title>cv_depot\.core&#45;&gt;cv_depot\.core\.tools</title>
<path fill="none" stroke="#a0d17b" d="M197.36,-757.38C208.16,-690.95 248.64,-463.98 304,-420.66 374.97,-365.12 482.33,-369.53 556.62,-381.86"/>
<polygon fill="#a0d17b" stroke="#a0d17b" points="556.42,-385.38 566.87,-383.64 557.62,-378.48 556.42,-385.38"/>
</g>
<!-- cv_depot\.core&#45;&gt;cv_depot\.core\.types -->
<g id="edge49" class="edge">
<title>cv_depot\.core&#45;&gt;cv_depot\.core\.types</title>
<path fill="none" stroke="#a0d17b" d="M255.74,-792.49C260.27,-795.36 264.45,-798.72 268,-802.66 311.34,-850.67 252.92,-903.98 304,-943.66 454.91,-1060.88 702.37,-1001.42 815.15,-965"/>
<polygon fill="#a0d17b" stroke="#a0d17b" points="816.58,-968.22 824.99,-961.78 814.4,-961.57 816.58,-968.22"/>
</g>
<!-- cv_depot\.core&#45;&gt;cv_depot\.core\.video -->
<g id="edge50" class="edge">
<title>cv_depot\.core&#45;&gt;cv_depot\.core\.video</title>
<path fill="none" stroke="#a0d17b" d="M255.55,-791.62C260.24,-794.68 264.5,-798.32 268,-802.66 340.94,-893.14 231.94,-970.48 304,-1061.66 444.15,-1238.99 565.67,-1179.84 789,-1214.66 856.53,-1225.19 933.51,-1229.91 992.45,-1232.02"/>
<polygon fill="#a0d17b" stroke="#a0d17b" points="992.38,-1235.52 1002.49,-1232.36 992.61,-1228.52 992.38,-1235.52"/>
</g>
<!-- cv_depot\.core&#45;&gt;cv_depot\.core\.viewer -->
<g id="edge51" class="edge">
<title>cv_depot\.core&#45;&gt;cv_depot\.core\.viewer</title>
<path fill="none" stroke="#a0d17b" d="M206.49,-757.36C224.38,-731.72 260.64,-685.77 304,-663.66 435.67,-596.52 829.01,-631.16 962,-566.66 981.8,-557.05 980.08,-545.43 998,-532.66 1010.48,-523.77 1024.86,-515.49 1038.42,-508.44"/>
<polygon fill="#a0d17b" stroke="#a0d17b" points="1040.3,-511.41 1047.64,-503.77 1037.13,-505.17 1040.3,-511.41"/>
</g>
<!-- cv_depot\.ops&#45;&gt;cv_depot\.api -->
<g id="edge52" class="edge">
<title>cv_depot\.ops&#45;&gt;cv_depot\.api</title>
<path fill="none" stroke="#a0d17b" d="M654.91,-152.83C678.12,-187.74 728,-267.33 753,-341.66 785.29,-437.65 736.96,-479.78 789,-566.66 799.03,-583.39 815.14,-597.31 830.69,-607.91"/>
<polygon fill="#a0d17b" stroke="#a0d17b" points="828.93,-610.94 839.22,-613.46 832.74,-605.07 828.93,-610.94"/>
</g>
<!-- cv_depot\.ops&#45;&gt;cv_depot\.ops\.channel -->
<g id="edge53" class="edge">
<title>cv_depot\.ops&#45;&gt;cv_depot\.ops\.channel</title>
<path fill="none" stroke="#a0d17b" d="M699.51,-120.68C726.47,-114.77 759.2,-108.58 789,-105.66 1010.69,-83.93 1626.59,16.64 1791,-133.66 1905.21,-238.07 1916.01,-761.76 1916.94,-890.19"/>
<polygon fill="#a0d17b" stroke="#a0d17b" points="1913.44,-890.41 1916.99,-900.39 1920.44,-890.37 1913.44,-890.41"/>
</g>
<!-- cv_depot\.ops&#45;&gt;cv_depot\.ops\.draw -->
<g id="edge54" class="edge">
<title>cv_depot\.ops&#45;&gt;cv_depot\.ops\.draw</title>
<path fill="none" stroke="#a0d17b" d="M699.75,-135.59C851,-138.46 1258.6,-149.09 1389,-181.66 1487.99,-206.38 1535.48,-196.03 1598,-276.66 1674.44,-375.23 1703.39,-779.97 1709.96,-890.6"/>
<polygon fill="#a0d17b" stroke="#a0d17b" points="1706.47,-890.87 1710.54,-900.65 1713.46,-890.47 1706.47,-890.87"/>
</g>
<!-- cv_depot\.ops&#45;&gt;cv_depot\.ops\.edit -->
<g id="edge55" class="edge">
<title>cv_depot\.ops&#45;&gt;cv_depot\.ops\.edit</title>
<path fill="none" stroke="#a0d17b" d="M699.63,-129.46C883.85,-113.94 1458.38,-75.49 1598,-185.66 1603.58,-190.06 1789.2,-652.78 1791,-659.66 1823.43,-783.6 1796.21,-821.3 1827,-945.66 1846.61,-1024.88 1884.55,-1113.75 1904.32,-1157.42"/>
<polygon fill="#a0d17b" stroke="#a0d17b" points="1901.15,-1158.89 1908.48,-1166.54 1907.51,-1155.99 1901.15,-1158.89"/>
</g>
<!-- cv_depot\.ops&#45;&gt;cv_depot\.ops\.filter -->
<g id="edge56" class="edge">
<title>cv_depot\.ops&#45;&gt;cv_depot\.ops\.filter</title>
<path fill="none" stroke="#a0d17b" d="M699.59,-150.56C726.55,-157.69 759.27,-165.79 789,-171.66 855.07,-184.7 1339.35,-212.16 1389,-257.66 1463.03,-325.5 1498.77,-650.88 1508.02,-749.36"/>
<polygon fill="#a0d17b" stroke="#a0d17b" points="1504.54,-749.81 1508.94,-759.45 1511.51,-749.17 1504.54,-749.81"/>
</g>
<!-- IPython\.display -->
<g id="node22" class="node">
<title>IPython\.display</title>
<polygon fill="#343434" stroke="#343434" points="945.5,-557.66 805.5,-557.66 805.5,-521.66 945.5,-521.66 945.5,-557.66"/>
<text text-anchor="middle" x="875.5" y="-535.96" font-family="Courier,monospace" font-size="14.00" fill="#de958e">IPython.display</text>
</g>
<!-- IPython\.display&#45;&gt;cv_depot\.core\.viewer -->
<g id="edge57" class="edge">
<title>IPython\.display&#45;&gt;cv_depot\.core\.viewer</title>
<path fill="none" stroke="#de958e" d="M945.75,-521.98C965.42,-516.95 987.02,-511.44 1007.3,-506.26"/>
<polygon fill="#de958e" stroke="#de958e" points="1008.32,-509.62 1017.14,-503.75 1006.59,-502.83 1008.32,-509.62"/>
</g>
<!-- PIL\.Image -->
<g id="node23" class="node">
<title>PIL\.Image</title>
<polygon fill="#343434" stroke="#343434" points="1134.5,-687.66 1043.5,-687.66 1043.5,-651.66 1134.5,-651.66 1134.5,-687.66"/>
<text text-anchor="middle" x="1089" y="-665.96" font-family="Courier,monospace" font-size="14.00" fill="#de958e">PIL.Image</text>
</g>
<!-- PIL\.Image&#45;&gt;cv_depot\.core\.image -->
<g id="edge58" class="edge">
<title>PIL\.Image&#45;&gt;cv_depot\.core\.image</title>
<path fill="none" stroke="#de958e" d="M1134.69,-657.2C1149.24,-652.89 1165.39,-647.84 1180,-642.66 1203.69,-634.25 1229.5,-623.82 1251.21,-614.66"/>
<polygon fill="#de958e" stroke="#de958e" points="1252.72,-617.82 1260.56,-610.69 1249.99,-611.38 1252.72,-617.82"/>
</g>
<!-- lunchbox\.enforce -->
<g id="node24" class="node">
<title>lunchbox\.enforce</title>
<polygon fill="#343434" stroke="#343434" points="268,-1342.66 119,-1342.66 119,-1306.66 268,-1306.66 268,-1342.66"/>
<text text-anchor="middle" x="193.5" y="-1320.96" font-family="Courier,monospace" font-size="14.00" fill="#de958e">lunchbox.enforce</text>
</g>
<!-- lunchbox\.enforce&#45;&gt;cv_depot\.core\.channel_map -->
<g id="edge59" class="edge">
<title>lunchbox\.enforce&#45;&gt;cv_depot\.core\.channel_map</title>
<path fill="none" stroke="#de958e" d="M216.5,-1306.56C238.15,-1289.09 272.48,-1262.32 304,-1241.66 404.68,-1175.67 529.79,-1109.21 595.44,-1075.45"/>
<polygon fill="#de958e" stroke="#de958e" points="597.38,-1078.39 604.69,-1070.71 594.19,-1072.16 597.38,-1078.39"/>
</g>
<!-- lunchbox\.enforce&#45;&gt;cv_depot\.core\.color -->
<g id="edge60" class="edge">
<title>lunchbox\.enforce&#45;&gt;cv_depot\.core\.color</title>
<path fill="none" stroke="#de958e" d="M196.78,-1306.57C206.44,-1232.56 246.18,-953.66 304,-889.66 365.43,-821.65 468.91,-794.19 544.93,-783.11"/>
<polygon fill="#de958e" stroke="#de958e" points="545.57,-786.55 554.99,-781.71 544.61,-779.62 545.57,-786.55"/>
</g>
<!-- lunchbox\.enforce&#45;&gt;cv_depot\.core\.enforce -->
<g id="edge61" class="edge">
<title>lunchbox\.enforce&#45;&gt;cv_depot\.core\.enforce</title>
<path fill="none" stroke="#de958e" d="M268.26,-1316.32C276.59,-1315.38 285.21,-1314.41 293.84,-1313.43"/>
<polygon fill="#de958e" stroke="#de958e" points="294.43,-1316.89 303.97,-1312.29 293.64,-1309.93 294.43,-1316.89"/>
</g>
<!-- lunchbox\.enforce&#45;&gt;cv_depot\.core\.enum -->
<g id="edge62" class="edge">
<title>lunchbox\.enforce&#45;&gt;cv_depot\.core\.enum</title>
<path fill="none" stroke="#de958e" d="M203.51,-1306.6C235.74,-1241.97 345.51,-1021.9 384.29,-944.14"/>
<polygon fill="#de958e" stroke="#de958e" points="387.54,-945.48 388.87,-934.97 381.27,-942.36 387.54,-945.48"/>
</g>
<!-- lunchbox\.enforce&#45;&gt;cv_depot\.core\.image -->
<g id="edge63" class="edge">
<title>lunchbox\.enforce&#45;&gt;cv_depot\.core\.image</title>
<path fill="none" stroke="#de958e" d="M268.09,-1328.21C328.74,-1330.52 417,-1332.47 494,-1328.66 570.5,-1324.88 1126.61,-1315.58 1180,-1260.66 1219.6,-1219.92 1200.12,-805.2 1216,-750.66 1230.44,-701.05 1261.99,-649.49 1282.46,-619.27"/>
<polygon fill="#de958e" stroke="#de958e" points="1285.39,-621.19 1288.17,-610.97 1279.62,-617.22 1285.39,-621.19"/>
</g>
<!-- lunchbox\.enforce&#45;&gt;cv_depot\.core\.video -->
<g id="edge64" class="edge">
<title>lunchbox\.enforce&#45;&gt;cv_depot\.core\.video</title>
<path fill="none" stroke="#de958e" d="M225.43,-1306.61C246.75,-1295.17 276.15,-1281.32 304,-1274.66 588.67,-1206.6 670.15,-1269.83 962,-1247.66 971.79,-1246.91 982,-1246 992.18,-1245.01"/>
<polygon fill="#de958e" stroke="#de958e" points="992.74,-1248.47 1002.34,-1243.99 992.04,-1241.51 992.74,-1248.47"/>
</g>
<!-- lunchbox\.enforce&#45;&gt;cv_depot\.ops\.channel -->
<g id="edge65" class="edge">
<title>lunchbox\.enforce&#45;&gt;cv_depot\.ops\.channel</title>
<path fill="none" stroke="#de958e" d="M228.39,-1342.71C301.48,-1379.91 480.32,-1461.66 640.5,-1461.66 640.5,-1461.66 640.5,-1461.66 876.5,-1461.66 1305.8,-1461.66 1469.12,-1434.72 1791,-1150.66 1855.83,-1093.44 1893.54,-994.56 1908.89,-946.5"/>
<polygon fill="#de958e" stroke="#de958e" points="1912.29,-947.36 1911.91,-936.77 1905.6,-945.29 1912.29,-947.36"/>
</g>
<!-- lunchbox\.enforce&#45;&gt;cv_depot\.ops\.draw -->
<g id="edge66" class="edge">
<title>lunchbox\.enforce&#45;&gt;cv_depot\.ops\.draw</title>
<path fill="none" stroke="#de958e" d="M241.74,-1342.74C260.78,-1349.12 283.14,-1355.49 304,-1358.66 387.49,-1371.32 409.56,-1359.15 494,-1358.66 799.22,-1356.89 962.86,-1541.16 1180,-1326.66 1273.65,-1234.14 1125.72,-1128.47 1216,-1032.66 1245.59,-1001.25 1556.48,-974.4 1598,-962.66 1619.06,-956.7 1641.65,-948.37 1661.09,-940.55"/>
<polygon fill="#de958e" stroke="#de958e" points="1662.43,-943.79 1670.36,-936.77 1659.78,-937.31 1662.43,-943.79"/>
</g>
<!-- lunchbox\.enforce&#45;&gt;cv_depot\.ops\.edit -->
<g id="edge67" class="edge">
<title>lunchbox\.enforce&#45;&gt;cv_depot\.ops\.edit</title>
<path fill="none" stroke="#de958e" d="M201.53,-1342.85C215.41,-1375.98 249.8,-1445.53 304,-1475.66 435.05,-1548.5 490.56,-1499.66 640.5,-1499.66 640.5,-1499.66 640.5,-1499.66 1512.5,-1499.66 1643.87,-1499.66 1689.86,-1484.49 1791,-1400.66 1853.3,-1349.01 1891.68,-1258.06 1907.94,-1212.42"/>
<polygon fill="#de958e" stroke="#de958e" points="1911.28,-1213.48 1911.25,-1202.88 1904.67,-1211.18 1911.28,-1213.48"/>
</g>
<!-- lunchbox\.enforce&#45;&gt;cv_depot\.ops\.filter -->
<g id="edge68" class="edge">
<title>lunchbox\.enforce&#45;&gt;cv_depot\.ops\.filter</title>
<path fill="none" stroke="#de958e" d="M268.2,-1339.22C280.12,-1341.07 292.37,-1342.66 304,-1343.66 388.13,-1350.9 409.56,-1344.8 494,-1343.66 570.41,-1342.63 1126.38,-1349.11 1180,-1294.66 1226.34,-1247.6 1183.01,-1056.87 1216,-999.66 1246.95,-946 1399.33,-846.65 1471.92,-801.32"/>
<polygon fill="#de958e" stroke="#de958e" points="1474.13,-804.06 1480.78,-795.8 1470.44,-798.11 1474.13,-804.06"/>
</g>
<!-- numpy -->
<g id="node25" class="node">
<title>numpy</title>
<polygon fill="#343434" stroke="#343434" points="222.5,-289.66 164.5,-289.66 164.5,-253.66 222.5,-253.66 222.5,-289.66"/>
<text text-anchor="middle" x="193.5" y="-267.96" font-family="Courier,monospace" font-size="14.00" fill="#de958e">numpy</text>
</g>
<!-- numpy&#45;&gt;cv_depot\.core\.color -->
<g id="edge69" class="edge">
<title>numpy&#45;&gt;cv_depot\.core\.color</title>
<path fill="none" stroke="#de958e" d="M201.72,-289.73C217.03,-326.78 255.39,-413.04 304,-474.66 397.61,-593.34 541.13,-704.02 606.25,-751.41"/>
<polygon fill="#de958e" stroke="#de958e" points="604.39,-754.38 614.54,-757.4 608.49,-748.7 604.39,-754.38"/>
</g>
<!-- numpy&#45;&gt;cv_depot\.core\.enum -->
<g id="edge70" class="edge">
<title>numpy&#45;&gt;cv_depot\.core\.enum</title>
<path fill="none" stroke="#de958e" d="M197.03,-290.05C206.17,-353.95 240.38,-571.63 304,-740.66 324.91,-796.22 359.95,-856.27 380.83,-889.9"/>
<polygon fill="#de958e" stroke="#de958e" points="378.05,-892.04 386.33,-898.66 383.98,-888.32 378.05,-892.04"/>
</g>
<!-- numpy&#45;&gt;cv_depot\.core\.image -->
<g id="edge71" class="edge">
<title>numpy&#45;&gt;cv_depot\.core\.image</title>
<path fill="none" stroke="#de958e" d="M222.61,-275.73C292.88,-285.53 481.97,-309.66 640.5,-309.66 640.5,-309.66 640.5,-309.66 876.5,-309.66 1011.65,-309.66 1068.53,-252.23 1180,-328.66 1261.32,-384.41 1289.28,-508.87 1297.97,-564.66"/>
<polygon fill="#de958e" stroke="#de958e" points="1294.51,-565.17 1299.42,-574.55 1301.43,-564.15 1294.51,-565.17"/>
</g>
<!-- numpy&#45;&gt;cv_depot\.ops\.channel -->
<g id="edge72" class="edge">
<title>numpy&#45;&gt;cv_depot\.ops\.channel</title>
<path fill="none" stroke="#de958e" d="M198.6,-253.45C208.75,-212.9 239.05,-115.03 304,-67.66 426.86,21.96 488.43,-5.66 640.5,-5.66 640.5,-5.66 640.5,-5.66 1512.5,-5.66 1639.12,-5.66 1704.45,26.76 1791,-65.66 1906.33,-188.81 1916.25,-756.43 1916.97,-890.31"/>
<polygon fill="#de958e" stroke="#de958e" points="1913.47,-890.57 1917.01,-900.55 1920.47,-890.54 1913.47,-890.57"/>
</g>
<!-- numpy&#45;&gt;cv_depot\.ops\.draw -->
<g id="edge73" class="edge">
<title>numpy&#45;&gt;cv_depot\.ops\.draw</title>
<path fill="none" stroke="#de958e" d="M222.65,-263.45C292.65,-243.8 480.46,-195.66 640.5,-195.66 640.5,-195.66 640.5,-195.66 1090,-195.66 1156.55,-195.66 1333.56,-175.84 1389,-212.66 1451.92,-254.44 1651.98,-764.52 1700.72,-890.61"/>
<polygon fill="#de958e" stroke="#de958e" points="1697.6,-892.25 1704.46,-900.32 1704.13,-889.73 1697.6,-892.25"/>
</g>
<!-- numpy&#45;&gt;cv_depot\.ops\.edit -->
<g id="edge74" class="edge">
<title>numpy&#45;&gt;cv_depot\.ops\.edit</title>
<path fill="none" stroke="#de958e" d="M220.77,-253.38C242.51,-238.68 274.5,-218.02 304,-202.66 400.64,-152.33 424.3,-134.1 530,-107.66 760.26,-50.05 1375.81,-40.17 1598,-123.66 1697.94,-161.21 1740.47,-172.62 1791,-266.66 1862.52,-399.76 1796.01,-797.77 1827,-945.66 1843.74,-1025.54 1882.94,-1114.12 1903.64,-1157.58"/>
<polygon fill="#de958e" stroke="#de958e" points="1900.52,-1159.15 1908.01,-1166.64 1906.82,-1156.12 1900.52,-1159.15"/>
</g>
<!-- numpy&#45;&gt;cv_depot\.ops\.filter -->
<g id="edge75" class="edge">
<title>numpy&#45;&gt;cv_depot\.ops\.filter</title>
<path fill="none" stroke="#de958e" d="M222.68,-271.66C293.12,-271.66 482.54,-271.66 640.5,-271.66 640.5,-271.66 640.5,-271.66 1090,-271.66 1130.48,-271.66 1145.32,-264.78 1180,-285.66 1313.04,-365.76 1303.79,-435.83 1389,-565.66 1431.24,-630.01 1474.64,-709.65 1496.34,-750.57"/>
<polygon fill="#de958e" stroke="#de958e" points="1493.36,-752.43 1501.12,-759.64 1499.55,-749.16 1493.36,-752.43"/>
</g>
<!-- numpy\.typing -->
<g id="node26" class="node">
<title>numpy\.typing</title>
<polygon fill="#343434" stroke="#343434" points="457,-465.66 341,-465.66 341,-429.66 457,-429.66 457,-465.66"/>
<text text-anchor="middle" x="399" y="-443.96" font-family="Courier,monospace" font-size="14.00" fill="#de958e">numpy.typing</text>
</g>
<!-- numpy\.typing&#45;&gt;cv_depot\.core\.color -->
<g id="edge76" class="edge">
<title>numpy\.typing&#45;&gt;cv_depot\.core\.color</title>
<path fill="none" stroke="#de958e" d="M413.27,-465.76C453.43,-520.53 573.78,-684.66 621.09,-749.19"/>
<polygon fill="#de958e" stroke="#de958e" points="618.53,-751.62 627.27,-757.61 624.18,-747.48 618.53,-751.62"/>
</g>
<!-- numpy\.typing&#45;&gt;cv_depot\.core\.image -->
<g id="edge77" class="edge">
<title>numpy\.typing&#45;&gt;cv_depot\.core\.image</title>
<path fill="none" stroke="#de958e" d="M457.19,-445.85C626.07,-440.88 1114.82,-429.22 1180,-458.66 1228.97,-480.77 1266.76,-533.19 1286.43,-565.52"/>
<polygon fill="#de958e" stroke="#de958e" points="1283.62,-567.64 1291.73,-574.46 1289.64,-564.07 1283.62,-567.64"/>
</g>
<!-- numpy\.typing&#45;&gt;cv_depot\.core\.tools -->
<g id="edge78" class="edge">
<title>numpy\.typing&#45;&gt;cv_depot\.core\.tools</title>
<path fill="none" stroke="#de958e" d="M457.3,-436.7C483.51,-431.69 515.28,-425.61 544.96,-419.93"/>
<polygon fill="#de958e" stroke="#de958e" points="545.77,-423.34 554.93,-418.03 544.45,-416.47 545.77,-423.34"/>
</g>
<!-- ipywidgets -->
<g id="node27" class="node">
<title>ipywidgets</title>
<polygon fill="#343434" stroke="#343434" points="925,-503.66 826,-503.66 826,-467.66 925,-467.66 925,-503.66"/>
<text text-anchor="middle" x="875.5" y="-481.96" font-family="Courier,monospace" font-size="14.00" fill="#de958e">ipywidgets</text>
</g>
<!-- ipywidgets&#45;&gt;cv_depot\.core\.viewer -->
<g id="edge79" class="edge">
<title>ipywidgets&#45;&gt;cv_depot\.core\.viewer</title>
<path fill="none" stroke="#de958e" d="M925.02,-485.66C943.66,-485.66 965.69,-485.66 987.42,-485.66"/>
<polygon fill="#de958e" stroke="#de958e" points="987.71,-489.16 997.71,-485.66 987.71,-482.16 987.71,-489.16"/>
</g>
<!-- openexr_tools\.enum -->
<g id="node28" class="node">
<title>openexr_tools\.enum</title>
<polygon fill="#343434" stroke="#343434" points="1171.5,-633.66 1006.5,-633.66 1006.5,-597.66 1171.5,-597.66 1171.5,-633.66"/>
<text text-anchor="middle" x="1089" y="-611.96" font-family="Courier,monospace" font-size="14.00" fill="#de958e">openexr_tools.enum</text>
</g>
<!-- openexr_tools\.enum&#45;&gt;cv_depot\.core\.image -->
<g id="edge80" class="edge">
<title>openexr_tools\.enum&#45;&gt;cv_depot\.core\.image</title>
<path fill="none" stroke="#de958e" d="M1171.77,-606.77C1182.81,-605.57 1194.21,-604.33 1205.47,-603.1"/>
<polygon fill="#de958e" stroke="#de958e" points="1206.18,-606.54 1215.75,-601.98 1205.43,-599.59 1206.18,-606.54"/>
</g>
<!-- openexr_tools\.tools -->
<g id="node29" class="node">
<title>openexr_tools\.tools</title>
<polygon fill="#343434" stroke="#343434" points="1175.5,-373.66 1002.5,-373.66 1002.5,-337.66 1175.5,-337.66 1175.5,-373.66"/>
<text text-anchor="middle" x="1089" y="-351.96" font-family="Courier,monospace" font-size="14.00" fill="#de958e">openexr_tools.tools</text>
</g>
<!-- openexr_tools\.tools&#45;&gt;cv_depot\.core\.image -->
<g id="edge81" class="edge">
<title>openexr_tools\.tools&#45;&gt;cv_depot\.core\.image</title>
<path fill="none" stroke="#de958e" d="M1157.69,-373.79C1165.68,-377.6 1173.34,-382.18 1180,-387.66 1238.97,-436.2 1276.08,-521.35 1292.18,-565.05"/>
<polygon fill="#de958e" stroke="#de958e" points="1288.89,-566.25 1295.57,-574.48 1295.48,-563.88 1288.89,-566.25"/>
</g>
<!-- cv2 -->
<g id="node30" class="node">
<title>cv2</title>
<polygon fill="#343434" stroke="#343434" points="1329.5,-1077.66 1275.5,-1077.66 1275.5,-1041.66 1329.5,-1041.66 1329.5,-1077.66"/>
<text text-anchor="middle" x="1302.5" y="-1055.96" font-family="Courier,monospace" font-size="14.00" fill="#de958e">cv2</text>
</g>
<!-- cv2&#45;&gt;cv_depot\.ops\.channel -->
<g id="edge82" class="edge">
<title>cv2&#45;&gt;cv_depot\.ops\.channel</title>
<path fill="none" stroke="#de958e" d="M1329.88,-1063.26C1381.87,-1069.58 1500.95,-1080.15 1598,-1059.66 1705.41,-1036.98 1820.68,-975.7 1878.8,-941.88"/>
<polygon fill="#de958e" stroke="#de958e" points="1880.78,-944.77 1887.63,-936.69 1877.24,-938.74 1880.78,-944.77"/>
</g>
<!-- cv2&#45;&gt;cv_depot\.ops\.draw -->
<g id="edge83" class="edge">
<title>cv2&#45;&gt;cv_depot\.ops\.draw</title>
<path fill="none" stroke="#de958e" d="M1329.8,-1062.27C1383.19,-1066.42 1506.89,-1070.18 1598,-1027.66 1637.81,-1009.08 1672.4,-970.82 1692.61,-944.95"/>
<polygon fill="#de958e" stroke="#de958e" points="1695.62,-946.77 1698.9,-936.7 1690.05,-942.53 1695.62,-946.77"/>
</g>
<!-- cv2&#45;&gt;cv_depot\.ops\.edit -->
<g id="edge84" class="edge">
<title>cv2&#45;&gt;cv_depot\.ops\.edit</title>
<path fill="none" stroke="#de958e" d="M1329.72,-1069.45C1362.52,-1081.64 1415.53,-1101.19 1425,-1103.66 1564.28,-1140.01 1730.21,-1163.31 1829.4,-1175.18"/>
<polygon fill="#de958e" stroke="#de958e" points="1829.04,-1178.66 1839.38,-1176.36 1829.86,-1171.71 1829.04,-1178.66"/>
</g>
<!-- cv2&#45;&gt;cv_depot\.ops\.filter -->
<g id="edge85" class="edge">
<title>cv2&#45;&gt;cv_depot\.ops\.filter</title>
<path fill="none" stroke="#de958e" d="M1316.76,-1041.59C1352.24,-993.26 1449.45,-860.83 1491.12,-804.07"/>
<polygon fill="#de958e" stroke="#de958e" points="1493.98,-806.07 1497.08,-795.94 1488.34,-801.93 1493.98,-806.07"/>
</g>
<!-- lunchbox\.stopwatch -->
<g id="node31" class="node">
<title>lunchbox\.stopwatch</title>
<polygon fill="#343434" stroke="#343434" points="1385,-795.66 1220,-795.66 1220,-759.66 1385,-759.66 1385,-795.66"/>
<text text-anchor="middle" x="1302.5" y="-773.96" font-family="Courier,monospace" font-size="14.00" fill="#de958e">lunchbox.stopwatch</text>
</g>
<!-- lunchbox\.stopwatch&#45;&gt;cv_depot\.ops\.filter -->
<g id="edge86" class="edge">
<title>lunchbox\.stopwatch&#45;&gt;cv_depot\.ops\.filter</title>
<path fill="none" stroke="#de958e" d="M1385.01,-777.66C1394.76,-777.66 1404.77,-777.66 1414.69,-777.66"/>
<polygon fill="#de958e" stroke="#de958e" points="1414.97,-781.16 1424.97,-777.66 1414.97,-774.16 1414.97,-781.16"/>
</g>
</g>
</svg>
