<?xml version="1.0" encoding="UTF-8" standalone="no"?>
<!DOCTYPE svg PUBLIC "-//W3C//DTD SVG 1.1//EN"
 "http://www.w3.org/Graphics/SVG/1.1/DTD/svg11.dtd">
<!-- Generated by graphviz version 2.43.0 (0)
 -->
<!-- Title: %3 Pages: 1 -->
<svg width="1783pt" height="1553pt"
 viewBox="0.00 0.00 1783.00 1553.48" xmlns="http://www.w3.org/2000/svg" xmlns:xlink="http://www.w3.org/1999/xlink">
<g id="graph0" class="graph" transform="scale(1 1) rotate(0) translate(4 1549.48)">
<title>%3</title>
<polygon fill="#242424" stroke="transparent" points="-4,4 -4,-1549.48 1779,-1549.48 1779,4 -4,4"/>
<!-- cli -->
<g id="node1" class="node">
<title>cli</title>
<polygon fill="#343434" stroke="#343434" points="68.5,-38.55 14.5,-38.55 14.5,-2.55 68.5,-2.55 68.5,-38.55"/>
<text text-anchor="middle" x="41.5" y="-16.85" font-family="Courier,monospace" font-size="14.00" fill="#b6ecf3">cli</text>
</g>
<!-- cv_depot\.api -->
<g id="node2" class="node">
<title>cv_depot\.api</title>
<polygon fill="#343434" stroke="#343434" points="1356,-494.55 1240,-494.55 1240,-458.55 1356,-458.55 1356,-494.55"/>
<text text-anchor="middle" x="1298" y="-472.85" font-family="Courier,monospace" font-size="14.00" fill="#b6ecf3">cv_depot.api</text>
</g>
<!-- cv_depot\.command -->
<g id="node3" class="node">
<title>cv_depot\.command</title>
<polygon fill="#343434" stroke="#343434" points="268,-92.55 119,-92.55 119,-56.55 268,-56.55 268,-92.55"/>
<text text-anchor="middle" x="193.5" y="-70.85" font-family="Courier,monospace" font-size="14.00" fill="#b6ecf3">cv_depot.command</text>
</g>
<!-- cv_depot\.core\.channel_map -->
<g id="node4" class="node">
<title>cv_depot\.core\.channel_map</title>
<polygon fill="#343434" stroke="#343434" points="1171,-1376.55 948,-1376.55 948,-1340.55 1171,-1340.55 1171,-1376.55"/>
<text text-anchor="middle" x="1059.5" y="-1354.85" font-family="Courier,monospace" font-size="14.00" fill="#b6ecf3">cv_depot.core.channel_map</text>
</g>
<!-- cv_depot\.core\.channel_map&#45;&gt;cv_depot\.api -->
<g id="edge1" class="edge">
<title>cv_depot\.core\.channel_map&#45;&gt;cv_depot\.api</title>
<path fill="none" stroke="#b6ecf3" d="M1155.68,-1340.44C1161.46,-1336.62 1166.67,-1332.03 1171,-1326.55 1223.04,-1260.63 1174.06,-648.8 1207,-571.55 1219.04,-543.32 1243.42,-518.43 1263.78,-501.22"/>
<polygon fill="#b6ecf3" stroke="#b6ecf3" points="1266.12,-503.83 1271.64,-494.78 1261.68,-498.41 1266.12,-503.83"/>
</g>
<!-- cv_depot\.ops\.channel -->
<g id="node13" class="node">
<title>cv_depot\.ops\.channel</title>
<polygon fill="#343434" stroke="#343434" points="1389,-616.55 1207,-616.55 1207,-580.55 1389,-580.55 1389,-616.55"/>
<text text-anchor="middle" x="1298" y="-594.85" font-family="Courier,monospace" font-size="14.00" fill="#b6ecf3">cv_depot.ops.channel</text>
</g>
<!-- cv_depot\.core\.channel_map&#45;&gt;cv_depot\.ops\.channel -->
<g id="edge2" class="edge">
<title>cv_depot\.core\.channel_map&#45;&gt;cv_depot\.ops\.channel</title>
<path fill="none" stroke="#b6ecf3" d="M1155.58,-1340.36C1161.38,-1336.56 1166.62,-1332 1171,-1326.55 1210.04,-1277.93 1189.89,-826.5 1207,-766.55 1222.36,-712.74 1256.69,-656.72 1278.24,-624.88"/>
<polygon fill="#b6ecf3" stroke="#b6ecf3" points="1281.17,-626.79 1283.95,-616.56 1275.4,-622.83 1281.17,-626.79"/>
</g>
<!-- cv_depot\.ops\.draw -->
<g id="node14" class="node">
<title>cv_depot\.ops\.draw</title>
<polygon fill="#343434" stroke="#343434" points="1582,-593.55 1425,-593.55 1425,-557.55 1582,-557.55 1582,-593.55"/>
<text text-anchor="middle" x="1503.5" y="-571.85" font-family="Courier,monospace" font-size="14.00" fill="#b6ecf3">cv_depot.ops.draw</text>
</g>
<!-- cv_depot\.core\.channel_map&#45;&gt;cv_depot\.ops\.draw -->
<g id="edge3" class="edge">
<title>cv_depot\.core\.channel_map&#45;&gt;cv_depot\.ops\.draw</title>
<path fill="none" stroke="#b6ecf3" d="M1155.55,-1340.34C1161.36,-1336.54 1166.61,-1331.99 1171,-1326.55 1244.01,-1236.05 1132.91,-894.16 1207,-804.55 1260.31,-740.08 1321.62,-806.12 1389,-756.55 1442.98,-716.83 1477.3,-643.01 1492.83,-603.01"/>
<polygon fill="#b6ecf3" stroke="#b6ecf3" points="1496.12,-604.21 1496.37,-593.61 1489.57,-601.74 1496.12,-604.21"/>
</g>
<!-- cv_depot\.core\.color -->
<g id="node5" class="node">
<title>cv_depot\.core\.color</title>
<polygon fill="#343434" stroke="#343434" points="703,-600.55 530,-600.55 530,-564.55 703,-564.55 703,-600.55"/>
<text text-anchor="middle" x="616.5" y="-578.85" font-family="Courier,monospace" font-size="14.00" fill="#b6ecf3">cv_depot.core.color</text>
</g>
<!-- cv_depot\.core\.color&#45;&gt;cv_depot\.api -->
<g id="edge4" class="edge">
<title>cv_depot\.core\.color&#45;&gt;cv_depot\.api</title>
<path fill="none" stroke="#b6ecf3" d="M659.77,-564.44C682.79,-555.3 712.02,-544.84 739,-538.55 912.86,-498.01 1123.56,-483.74 1229.4,-478.9"/>
<polygon fill="#b6ecf3" stroke="#b6ecf3" points="1229.78,-482.39 1239.61,-478.45 1229.47,-475.4 1229.78,-482.39"/>
</g>
<!-- cv_depot\.core\.types -->
<g id="node10" class="node">
<title>cv_depot\.core\.types</title>
<polygon fill="#343434" stroke="#343434" points="912,-692.55 739,-692.55 739,-656.55 912,-656.55 912,-692.55"/>
<text text-anchor="middle" x="825.5" y="-670.85" font-family="Courier,monospace" font-size="14.00" fill="#b6ecf3">cv_depot.core.types</text>
</g>
<!-- cv_depot\.core\.color&#45;&gt;cv_depot\.core\.types -->
<g id="edge5" class="edge">
<title>cv_depot\.core\.color&#45;&gt;cv_depot\.core\.types</title>
<path fill="none" stroke="#b6ecf3" d="M658.4,-600.72C691.71,-615.53 738.88,-636.49 774.45,-652.3"/>
<polygon fill="#b6ecf3" stroke="#b6ecf3" points="773.13,-655.55 783.69,-656.41 775.97,-649.15 773.13,-655.55"/>
</g>
<!-- cv_depot\.core\.color&#45;&gt;cv_depot\.ops\.channel -->
<g id="edge6" class="edge">
<title>cv_depot\.core\.color&#45;&gt;cv_depot\.ops\.channel</title>
<path fill="none" stroke="#b6ecf3" d="M703.21,-584.57C829,-587.53 1063.11,-593.04 1196.72,-596.19"/>
<polygon fill="#b6ecf3" stroke="#b6ecf3" points="1196.87,-599.69 1206.95,-596.43 1197.04,-592.69 1196.87,-599.69"/>
</g>
<!-- cv_depot\.core\.color&#45;&gt;cv_depot\.ops\.draw -->
<g id="edge7" class="edge">
<title>cv_depot\.core\.color&#45;&gt;cv_depot\.ops\.draw</title>
<path fill="none" stroke="#b6ecf3" d="M703.13,-579.55C845.49,-574.95 1139.88,-567.16 1389,-571.55 1397.36,-571.69 1406.06,-571.9 1414.77,-572.15"/>
<polygon fill="#b6ecf3" stroke="#b6ecf3" points="1414.87,-575.65 1424.97,-572.45 1415.08,-568.66 1414.87,-575.65"/>
</g>
<!-- cv_depot\.ops\.edit -->
<g id="node15" class="node">
<title>cv_depot\.ops\.edit</title>
<polygon fill="#343434" stroke="#343434" points="1775,-451.55 1618,-451.55 1618,-415.55 1775,-415.55 1775,-451.55"/>
<text text-anchor="middle" x="1696.5" y="-429.85" font-family="Courier,monospace" font-size="14.00" fill="#b6ecf3">cv_depot.ops.edit</text>
</g>
<!-- cv_depot\.core\.color&#45;&gt;cv_depot\.ops\.edit -->
<g id="edge8" class="edge">
<title>cv_depot\.core\.color&#45;&gt;cv_depot\.ops\.edit</title>
<path fill="none" stroke="#b6ecf3" d="M632.74,-564.54C654.95,-538.75 698.03,-490.34 739,-453.55 810.76,-389.11 860.72,-404.23 912,-322.55 955.14,-253.82 885.22,-194.96 948,-143.55 1058.84,-52.78 1468.6,-172.99 1582,-260.55 1632.63,-299.64 1667.75,-368.06 1684.43,-406.09"/>
<polygon fill="#b6ecf3" stroke="#b6ecf3" points="1681.31,-407.7 1688.46,-415.51 1687.75,-404.94 1681.31,-407.7"/>
</g>
<!-- cv_depot\.ops\.filter -->
<g id="node16" class="node">
<title>cv_depot\.ops\.filter</title>
<polygon fill="#343434" stroke="#343434" points="1384.5,-440.55 1211.5,-440.55 1211.5,-404.55 1384.5,-404.55 1384.5,-440.55"/>
<text text-anchor="middle" x="1298" y="-418.85" font-family="Courier,monospace" font-size="14.00" fill="#b6ecf3">cv_depot.ops.filter</text>
</g>
<!-- cv_depot\.core\.color&#45;&gt;cv_depot\.ops\.filter -->
<g id="edge9" class="edge">
<title>cv_depot\.core\.color&#45;&gt;cv_depot\.ops\.filter</title>
<path fill="none" stroke="#b6ecf3" d="M639.23,-564.48C662.42,-546.24 700.97,-518.79 739,-504.55 893.88,-446.55 1087.29,-429.39 1200.96,-424.42"/>
<polygon fill="#b6ecf3" stroke="#b6ecf3" points="1201.19,-427.92 1211.03,-424.01 1200.9,-420.92 1201.19,-427.92"/>
</g>
<!-- cv_depot\.core\.enforce -->
<g id="node6" class="node">
<title>cv_depot\.core\.enforce</title>
<polygon fill="#343434" stroke="#343434" points="494,-1402.55 304,-1402.55 304,-1366.55 494,-1366.55 494,-1402.55"/>
<text text-anchor="middle" x="399" y="-1380.85" font-family="Courier,monospace" font-size="14.00" fill="#b6ecf3">cv_depot.core.enforce</text>
</g>
<!-- cv_depot\.core\.enforce&#45;&gt;cv_depot\.ops\.edit -->
<g id="edge10" class="edge">
<title>cv_depot\.core\.enforce&#45;&gt;cv_depot\.ops\.edit</title>
<path fill="none" stroke="#b6ecf3" d="M457.47,-1402.55C571.08,-1436.48 832.94,-1506.55 1058.5,-1506.55 1058.5,-1506.55 1058.5,-1506.55 1299,-1506.55 1528.55,-1506.55 1666.85,-631.57 1691.51,-461.86"/>
<polygon fill="#b6ecf3" stroke="#b6ecf3" points="1695.01,-462.12 1692.97,-451.72 1688.08,-461.12 1695.01,-462.12"/>
</g>
<!-- cv_depot\.core\.enum -->
<g id="node7" class="node">
<title>cv_depot\.core\.enum</title>
<polygon fill="#343434" stroke="#343434" points="481.5,-684.55 316.5,-684.55 316.5,-648.55 481.5,-648.55 481.5,-684.55"/>
<text text-anchor="middle" x="399" y="-662.85" font-family="Courier,monospace" font-size="14.00" fill="#b6ecf3">cv_depot.core.enum</text>
</g>
<!-- cv_depot\.core\.enum&#45;&gt;cv_depot\.api -->
<g id="edge11" class="edge">
<title>cv_depot\.core\.enum&#45;&gt;cv_depot\.api</title>
<path fill="none" stroke="#b6ecf3" d="M416.14,-648.2C438.99,-623.38 483.24,-579.48 530,-555.55 763.96,-435.81 1090.2,-453.27 1229.56,-467.91"/>
<polygon fill="#b6ecf3" stroke="#b6ecf3" points="1229.35,-471.41 1239.67,-469 1230.1,-464.45 1229.35,-471.41"/>
</g>
<!-- cv_depot\.core\.enum&#45;&gt;cv_depot\.core\.color -->
<g id="edge12" class="edge">
<title>cv_depot\.core\.enum&#45;&gt;cv_depot\.core\.color</title>
<path fill="none" stroke="#b6ecf3" d="M444.43,-648.49C469.5,-638.37 501.44,-625.6 530,-614.55 538.78,-611.15 548.08,-607.61 557.2,-604.17"/>
<polygon fill="#b6ecf3" stroke="#b6ecf3" points="558.47,-607.43 566.6,-600.64 556.01,-600.88 558.47,-607.43"/>
</g>
<!-- cv_depot\.core\.image -->
<g id="node8" class="node">
<title>cv_depot\.core\.image</title>
<polygon fill="#343434" stroke="#343434" points="1146,-966.55 973,-966.55 973,-930.55 1146,-930.55 1146,-966.55"/>
<text text-anchor="middle" x="1059.5" y="-944.85" font-family="Courier,monospace" font-size="14.00" fill="#b6ecf3">cv_depot.core.image</text>
</g>
<!-- cv_depot\.core\.enum&#45;&gt;cv_depot\.core\.image -->
<g id="edge13" class="edge">
<title>cv_depot\.core\.enum&#45;&gt;cv_depot\.core\.image</title>
<path fill="none" stroke="#b6ecf3" d="M430.61,-684.69C456.56,-699.66 495.01,-720.91 530,-736.55 694.81,-810.2 750.84,-793.22 912,-874.55 929.17,-883.21 931.18,-889.22 948,-898.55 966.03,-908.55 986.44,-918.22 1004.76,-926.34"/>
<polygon fill="#b6ecf3" stroke="#b6ecf3" points="1003.57,-929.64 1014.13,-930.44 1006.38,-923.23 1003.57,-929.64"/>
</g>
<!-- cv_depot\.core\.enum&#45;&gt;cv_depot\.core\.types -->
<g id="edge14" class="edge">
<title>cv_depot\.core\.enum&#45;&gt;cv_depot\.core\.types</title>
<path fill="none" stroke="#b6ecf3" d="M481.6,-668.08C552.1,-669.41 654.07,-671.34 728.49,-672.74"/>
<polygon fill="#b6ecf3" stroke="#b6ecf3" points="728.73,-676.24 738.8,-672.93 728.86,-669.24 728.73,-676.24"/>
</g>
<!-- cv_depot\.core\.video -->
<g id="node11" class="node">
<title>cv_depot\.core\.video</title>
<polygon fill="#343434" stroke="#343434" points="1146,-889.55 973,-889.55 973,-853.55 1146,-853.55 1146,-889.55"/>
<text text-anchor="middle" x="1059.5" y="-867.85" font-family="Courier,monospace" font-size="14.00" fill="#b6ecf3">cv_depot.core.video</text>
</g>
<!-- cv_depot\.core\.enum&#45;&gt;cv_depot\.core\.video -->
<g id="edge15" class="edge">
<title>cv_depot\.core\.enum&#45;&gt;cv_depot\.core\.video</title>
<path fill="none" stroke="#b6ecf3" d="M467.79,-684.62C536.17,-702.79 644.82,-731.48 739,-755.55 815.76,-775.16 844.33,-757.34 912,-798.55 932.71,-811.16 927.53,-826.54 948,-839.55 953.83,-843.25 960.11,-846.54 966.6,-849.46"/>
<polygon fill="#b6ecf3" stroke="#b6ecf3" points="965.66,-852.86 976.24,-853.47 968.35,-846.4 965.66,-852.86"/>
</g>
<!-- cv_depot\.core\.enum&#45;&gt;cv_depot\.ops\.channel -->
<g id="edge16" class="edge">
<title>cv_depot\.core\.enum&#45;&gt;cv_depot\.ops\.channel</title>
<path fill="none" stroke="#b6ecf3" d="M481.58,-660.36C646.17,-647.89 1017.51,-619.73 1196.63,-606.16"/>
<polygon fill="#b6ecf3" stroke="#b6ecf3" points="1197.14,-609.63 1206.84,-605.38 1196.61,-602.65 1197.14,-609.63"/>
</g>
<!-- cv_depot\.core\.enum&#45;&gt;cv_depot\.ops\.edit -->
<g id="edge17" class="edge">
<title>cv_depot\.core\.enum&#45;&gt;cv_depot\.ops\.edit</title>
<path fill="none" stroke="#b6ecf3" d="M409.78,-648.54C456.12,-565.43 663.32,-218.25 948,-107.55 1212.36,-4.75 1369.74,7.6 1582,-180.55 1651.09,-241.79 1680.36,-353.27 1690.7,-405.34"/>
<polygon fill="#b6ecf3" stroke="#b6ecf3" points="1687.27,-406.05 1692.57,-415.22 1694.15,-404.74 1687.27,-406.05"/>
</g>
<!-- cv_depot\.core\.image&#45;&gt;cv_depot\.api -->
<g id="edge18" class="edge">
<title>cv_depot\.core\.image&#45;&gt;cv_depot\.api</title>
<path fill="none" stroke="#b6ecf3" d="M1129.33,-930.42C1145.33,-923.04 1160.67,-912.78 1171,-898.55 1256.88,-780.21 1145.52,-704.2 1207,-571.55 1219.99,-543.52 1244.56,-518.47 1264.76,-501.14"/>
<polygon fill="#b6ecf3" stroke="#b6ecf3" points="1267.09,-503.75 1272.53,-494.66 1262.61,-498.37 1267.09,-503.75"/>
</g>
<!-- cv_depot\.core\.image&#45;&gt;cv_depot\.ops\.channel -->
<g id="edge19" class="edge">
<title>cv_depot\.core\.image&#45;&gt;cv_depot\.ops\.channel</title>
<path fill="none" stroke="#b6ecf3" d="M1126.67,-930.48C1143.27,-923.05 1159.59,-912.74 1171,-898.55 1219.4,-838.36 1176.42,-799.47 1207,-728.55 1223.89,-689.37 1253.45,-649.84 1274.07,-624.83"/>
<polygon fill="#b6ecf3" stroke="#b6ecf3" points="1276.95,-626.84 1280.68,-616.93 1271.58,-622.35 1276.95,-626.84"/>
</g>
<!-- cv_depot\.core\.image&#45;&gt;cv_depot\.ops\.draw -->
<g id="edge20" class="edge">
<title>cv_depot\.core\.image&#45;&gt;cv_depot\.ops\.draw</title>
<path fill="none" stroke="#b6ecf3" d="M1125.27,-930.43C1142.16,-922.96 1158.98,-912.65 1171,-898.55 1210.46,-852.28 1163.82,-809.37 1207,-766.55 1266.4,-707.64 1318.97,-764.31 1389,-718.55 1434.4,-688.88 1469.82,-634.98 1488.31,-602.5"/>
<polygon fill="#b6ecf3" stroke="#b6ecf3" points="1491.49,-604 1493.29,-593.56 1485.37,-600.59 1491.49,-604"/>
</g>
<!-- cv_depot\.core\.image&#45;&gt;cv_depot\.ops\.edit -->
<g id="edge21" class="edge">
<title>cv_depot\.core\.image&#45;&gt;cv_depot\.ops\.edit</title>
<path fill="none" stroke="#b6ecf3" d="M1146.36,-962.03C1260.64,-974.76 1462.21,-978.3 1582,-870.55 1644.03,-814.75 1681.38,-549.59 1692.2,-461.83"/>
<polygon fill="#b6ecf3" stroke="#b6ecf3" points="1695.69,-462.15 1693.42,-451.8 1688.74,-461.31 1695.69,-462.15"/>
</g>
<!-- cv_depot\.core\.image&#45;&gt;cv_depot\.ops\.filter -->
<g id="edge22" class="edge">
<title>cv_depot\.core\.image&#45;&gt;cv_depot\.ops\.filter</title>
<path fill="none" stroke="#b6ecf3" d="M1129.91,-930.49C1145.8,-923.12 1160.95,-912.84 1171,-898.55 1228.58,-816.67 1144.08,-527.4 1207,-449.55 1207.5,-448.93 1208.01,-448.32 1208.54,-447.73"/>
<polygon fill="#b6ecf3" stroke="#b6ecf3" points="1211.09,-450.14 1216.05,-440.78 1206.34,-445 1211.09,-450.14"/>
</g>
<!-- cv_depot\.core\.tools -->
<g id="node9" class="node">
<title>cv_depot\.core\.tools</title>
<polygon fill="#343434" stroke="#343434" points="703,-1158.55 530,-1158.55 530,-1122.55 703,-1122.55 703,-1158.55"/>
<text text-anchor="middle" x="616.5" y="-1136.85" font-family="Courier,monospace" font-size="14.00" fill="#b6ecf3">cv_depot.core.tools</text>
</g>
<!-- cv_depot\.core\.tools&#45;&gt;cv_depot\.core\.image -->
<g id="edge23" class="edge">
<title>cv_depot\.core\.tools&#45;&gt;cv_depot\.core\.image</title>
<path fill="none" stroke="#b6ecf3" d="M703.23,-1146.81C764.54,-1147.69 847.31,-1141.31 912,-1108.55 971.93,-1078.19 1019.48,-1012.45 1042.79,-975.38"/>
<polygon fill="#b6ecf3" stroke="#b6ecf3" points="1045.93,-976.96 1048.19,-966.61 1039.97,-973.29 1045.93,-976.96"/>
</g>
<!-- cv_depot\.core\.types&#45;&gt;cv_depot\.core\.image -->
<g id="edge24" class="edge">
<title>cv_depot\.core\.types&#45;&gt;cv_depot\.core\.image</title>
<path fill="none" stroke="#b6ecf3" d="M901.91,-692.6C905.61,-695.2 909.01,-698.16 912,-701.55 970.88,-768.3 893.2,-828.41 948,-898.55 957.01,-910.07 969.26,-919.03 982.34,-925.95"/>
<polygon fill="#b6ecf3" stroke="#b6ecf3" points="980.97,-929.18 991.5,-930.43 984.05,-922.89 980.97,-929.18"/>
</g>
<!-- cv_depot\.core\.types&#45;&gt;cv_depot\.core\.video -->
<g id="edge25" class="edge">
<title>cv_depot\.core\.types&#45;&gt;cv_depot\.core\.video</title>
<path fill="none" stroke="#b6ecf3" d="M901.23,-692.61C905.15,-695.2 908.78,-698.16 912,-701.55 955.67,-747.49 903.78,-794.13 948,-839.55 952.73,-844.4 958.14,-848.53 963.98,-852.05"/>
<polygon fill="#b6ecf3" stroke="#b6ecf3" points="962.34,-855.13 972.81,-856.76 965.64,-848.96 962.34,-855.13"/>
</g>
<!-- cv_depot\.core\.types&#45;&gt;cv_depot\.ops\.draw -->
<g id="edge26" class="edge">
<title>cv_depot\.core\.types&#45;&gt;cv_depot\.ops\.draw</title>
<path fill="none" stroke="#b6ecf3" d="M912.11,-679.31C924.16,-679.82 936.39,-680.26 948,-680.55 1047.08,-682.99 1072.64,-692.76 1171,-680.55 1270.16,-668.23 1294.5,-658.03 1389,-625.55 1411.78,-617.72 1436.32,-607.18 1456.74,-597.8"/>
<polygon fill="#b6ecf3" stroke="#b6ecf3" points="1458.22,-600.98 1465.81,-593.59 1455.27,-594.63 1458.22,-600.98"/>
</g>
<!-- cv_depot\.core\.types&#45;&gt;cv_depot\.ops\.edit -->
<g id="edge27" class="edge">
<title>cv_depot\.core\.types&#45;&gt;cv_depot\.ops\.edit</title>
<path fill="none" stroke="#b6ecf3" d="M900.65,-692.57C1046.46,-723.4 1374.31,-769.53 1582,-620.55 1638.16,-580.26 1671.83,-502.75 1686.61,-461.29"/>
<polygon fill="#b6ecf3" stroke="#b6ecf3" points="1689.93,-462.41 1689.88,-451.82 1683.31,-460.13 1689.93,-462.41"/>
</g>
<!-- cv_depot\.core\.types&#45;&gt;cv_depot\.ops\.filter -->
<g id="edge28" class="edge">
<title>cv_depot\.core\.types&#45;&gt;cv_depot\.ops\.filter</title>
<path fill="none" stroke="#b6ecf3" d="M852.08,-656.42C911.72,-614.84 1065.7,-511.42 1207,-449.55 1211.35,-447.64 1215.87,-445.82 1220.47,-444.09"/>
<polygon fill="#b6ecf3" stroke="#b6ecf3" points="1221.77,-447.35 1229.99,-440.67 1219.4,-440.76 1221.77,-447.35"/>
</g>
<!-- cv_depot\.core\.viewer -->
<g id="node12" class="node">
<title>cv_depot\.core\.viewer</title>
<polygon fill="#343434" stroke="#343434" points="490,-1028.55 308,-1028.55 308,-992.55 490,-992.55 490,-1028.55"/>
<text text-anchor="middle" x="399" y="-1006.85" font-family="Courier,monospace" font-size="14.00" fill="#b6ecf3">cv_depot.core.viewer</text>
</g>
<!-- cv_depot\.core\.viewer&#45;&gt;cv_depot\.core\.image -->
<g id="edge29" class="edge">
<title>cv_depot\.core\.viewer&#45;&gt;cv_depot\.core\.image</title>
<path fill="none" stroke="#b6ecf3" d="M480.1,-1028.56C582.26,-1048.26 763.48,-1072.11 912,-1032.55 955.39,-1020.99 999.3,-993.2 1027.57,-972.73"/>
<polygon fill="#b6ecf3" stroke="#b6ecf3" points="1029.86,-975.39 1035.83,-966.64 1025.7,-969.76 1029.86,-975.39"/>
</g>
<!-- cv_depot\.ops\.channel&#45;&gt;cv_depot\.ops\.draw -->
<g id="edge30" class="edge">
<title>cv_depot\.ops\.channel&#45;&gt;cv_depot\.ops\.draw</title>
<path fill="none" stroke="#b6ecf3" d="M1389.15,-581.65C1397.61,-580.63 1406.19,-579.67 1414.63,-578.78"/>
<polygon fill="#b6ecf3" stroke="#b6ecf3" points="1415.25,-582.24 1424.85,-577.74 1414.55,-575.28 1415.25,-582.24"/>
</g>
<!-- cv_depot\.ops\.draw&#45;&gt;cv_depot\.ops\.channel -->
<g id="edge31" class="edge">
<title>cv_depot\.ops\.draw&#45;&gt;cv_depot\.ops\.channel</title>
<path fill="none" stroke="#b6ecf3" d="M1424.85,-590.9C1416.46,-591.97 1407.84,-593 1399.23,-593.97"/>
<polygon fill="#b6ecf3" stroke="#b6ecf3" points="1398.71,-590.5 1389.15,-595.07 1399.47,-597.46 1398.71,-590.5"/>
</g>
<!-- cv_depot\.ops\.draw&#45;&gt;cv_depot\.ops\.draw -->
<g id="edge32" class="edge">
<title>cv_depot\.ops\.draw&#45;&gt;cv_depot\.ops\.draw</title>
<path fill="none" stroke="#b6ecf3" d="M1468.77,-593.7C1463.42,-603.09 1475,-611.55 1503.5,-611.55 1520.87,-611.55 1531.95,-608.41 1536.75,-603.83"/>
<polygon fill="#b6ecf3" stroke="#b6ecf3" points="1540.25,-604.1 1538.23,-593.7 1533.32,-603.09 1540.25,-604.1"/>
</g>
<!-- cv_depot\.ops\.draw&#45;&gt;cv_depot\.ops\.edit -->
<g id="edge33" class="edge">
<title>cv_depot\.ops\.draw&#45;&gt;cv_depot\.ops\.edit</title>
<path fill="none" stroke="#b6ecf3" d="M1529.08,-557.27C1563.17,-531.93 1624.9,-486.03 1662.84,-457.83"/>
<polygon fill="#b6ecf3" stroke="#b6ecf3" points="1665.08,-460.53 1671.02,-451.75 1660.9,-454.91 1665.08,-460.53"/>
</g>
<!-- cv_depot\.ops\.filter&#45;&gt;cv_depot\.ops\.draw -->
<g id="edge34" class="edge">
<title>cv_depot\.ops\.filter&#45;&gt;cv_depot\.ops\.draw</title>
<path fill="none" stroke="#b6ecf3" d="M1372.25,-440.72C1378.1,-443.3 1383.76,-446.23 1389,-449.55 1430.03,-475.53 1465.3,-520.33 1485.21,-548.92"/>
<polygon fill="#b6ecf3" stroke="#b6ecf3" points="1482.35,-550.95 1490.88,-557.24 1488.13,-547 1482.35,-550.95"/>
</g>
<!-- click -->
<g id="node17" class="node">
<title>click</title>
<polygon fill="#343434" stroke="#343434" points="70.5,-92.55 12.5,-92.55 12.5,-56.55 70.5,-56.55 70.5,-92.55"/>
<text text-anchor="middle" x="41.5" y="-70.85" font-family="Courier,monospace" font-size="14.00" fill="#de958e">click</text>
</g>
<!-- click&#45;&gt;cv_depot\.command -->
<g id="edge35" class="edge">
<title>click&#45;&gt;cv_depot\.command</title>
<path fill="none" stroke="#de958e" d="M70.71,-74.55C81.78,-74.55 95.1,-74.55 108.82,-74.55"/>
<polygon fill="#de958e" stroke="#de958e" points="108.85,-78.05 118.85,-74.55 108.85,-71.05 108.85,-78.05"/>
</g>
<!-- IPython\.display -->
<g id="node18" class="node">
<title>IPython\.display</title>
<polygon fill="#343434" stroke="#343434" points="263.5,-1075.55 123.5,-1075.55 123.5,-1039.55 263.5,-1039.55 263.5,-1075.55"/>
<text text-anchor="middle" x="193.5" y="-1053.85" font-family="Courier,monospace" font-size="14.00" fill="#de958e">IPython.display</text>
</g>
<!-- IPython\.display&#45;&gt;cv_depot\.core\.viewer -->
<g id="edge36" class="edge">
<title>IPython\.display&#45;&gt;cv_depot\.core\.viewer</title>
<path fill="none" stroke="#de958e" d="M263.68,-1041.57C278.52,-1038.14 294.39,-1034.48 309.84,-1030.91"/>
<polygon fill="#de958e" stroke="#de958e" points="310.96,-1034.24 319.91,-1028.58 309.38,-1027.42 310.96,-1034.24"/>
</g>
<!-- cv_depot -->
<g id="node19" class="node">
<title>cv_depot</title>
<polygon fill="#343434" stroke="#343434" points="83,-161.55 0,-161.55 0,-125.55 83,-125.55 83,-161.55"/>
<text text-anchor="middle" x="41.5" y="-139.85" font-family="Courier,monospace" font-size="14.00" fill="#a0d17b">cv_depot</text>
</g>
<!-- cv_depot&#45;&gt;cv_depot\.api -->
<g id="edge37" class="edge">
<title>cv_depot&#45;&gt;cv_depot\.api</title>
<path fill="none" stroke="#a0d17b" d="M83.17,-154.34C264.8,-202.55 1002.7,-398.43 1230.02,-458.77"/>
<polygon fill="#a0d17b" stroke="#a0d17b" points="1229.25,-462.18 1239.81,-461.37 1231.05,-455.42 1229.25,-462.18"/>
</g>
<!-- cv_depot&#45;&gt;cv_depot\.command -->
<g id="edge38" class="edge">
<title>cv_depot&#45;&gt;cv_depot\.command</title>
<path fill="none" stroke="#a0d17b" d="M79.32,-125.37C91.86,-119.28 106,-112.52 119,-106.55 126.03,-103.32 133.46,-99.99 140.8,-96.75"/>
<polygon fill="#a0d17b" stroke="#a0d17b" points="142.26,-99.93 150.01,-92.7 139.44,-93.52 142.26,-99.93"/>
</g>
<!-- cv_depot\.ops -->
<g id="node20" class="node">
<title>cv_depot\.ops</title>
<polygon fill="#343434" stroke="#343434" points="1117.5,-242.55 1001.5,-242.55 1001.5,-206.55 1117.5,-206.55 1117.5,-242.55"/>
<text text-anchor="middle" x="1059.5" y="-220.85" font-family="Courier,monospace" font-size="14.00" fill="#a0d17b">cv_depot.ops</text>
</g>
<!-- cv_depot&#45;&gt;cv_depot\.ops -->
<g id="edge39" class="edge">
<title>cv_depot&#45;&gt;cv_depot\.ops</title>
<path fill="none" stroke="#a0d17b" d="M83.04,-141.76C162.18,-138.69 342.71,-133.71 494,-144.55 675.01,-157.51 886.28,-192.94 991.63,-212"/>
<polygon fill="#a0d17b" stroke="#a0d17b" points="991.02,-215.45 1001.49,-213.8 992.28,-208.56 991.02,-215.45"/>
</g>
<!-- cv_depot\.core -->
<g id="node24" class="node">
<title>cv_depot\.core</title>
<polygon fill="#343434" stroke="#343434" points="255.5,-952.55 131.5,-952.55 131.5,-916.55 255.5,-916.55 255.5,-952.55"/>
<text text-anchor="middle" x="193.5" y="-930.85" font-family="Courier,monospace" font-size="14.00" fill="#a0d17b">cv_depot.core</text>
</g>
<!-- cv_depot&#45;&gt;cv_depot\.core -->
<g id="edge40" class="edge">
<title>cv_depot&#45;&gt;cv_depot\.core</title>
<path fill="none" stroke="#a0d17b" d="M45.91,-161.55C65.45,-264.56 163,-779 187.11,-906.11"/>
<polygon fill="#a0d17b" stroke="#a0d17b" points="183.72,-907.05 189.02,-916.22 190.6,-905.74 183.72,-907.05"/>
</g>
<!-- cv_depot\.ops&#45;&gt;cv_depot\.api -->
<g id="edge41" class="edge">
<title>cv_depot\.ops&#45;&gt;cv_depot\.api</title>
<path fill="none" stroke="#a0d17b" d="M1109.28,-242.62C1131.25,-253.12 1155.65,-268.51 1171,-289.55 1213.95,-348.43 1157.3,-396.23 1207,-449.55 1213.37,-456.38 1221.4,-461.51 1230.02,-465.35"/>
<polygon fill="#a0d17b" stroke="#a0d17b" points="1228.97,-468.7 1239.56,-469.04 1231.49,-462.17 1228.97,-468.7"/>
</g>
<!-- cv_depot\.ops&#45;&gt;cv_depot\.ops\.channel -->
<g id="edge42" class="edge">
<title>cv_depot\.ops&#45;&gt;cv_depot\.ops\.channel</title>
<path fill="none" stroke="#a0d17b" d="M1110.65,-242.66C1132.51,-253.07 1156.42,-268.37 1171,-289.55 1225.69,-368.99 1163.96,-417.23 1207,-503.55 1220.78,-531.19 1245.31,-556.26 1265.28,-573.7"/>
<polygon fill="#a0d17b" stroke="#a0d17b" points="1263.07,-576.42 1272.96,-580.23 1267.61,-571.09 1263.07,-576.42"/>
</g>
<!-- cv_depot\.ops&#45;&gt;cv_depot\.ops\.draw -->
<g id="edge43" class="edge">
<title>cv_depot\.ops&#45;&gt;cv_depot\.ops\.draw</title>
<path fill="none" stroke="#a0d17b" d="M1117.67,-231.71C1136.29,-236.34 1156,-243.98 1171,-256.55 1198.73,-279.78 1180.05,-305.42 1207,-329.55 1271.1,-386.94 1321.99,-341.57 1389,-395.55 1440.61,-437.12 1475.62,-508.81 1491.96,-548"/>
<polygon fill="#a0d17b" stroke="#a0d17b" points="1488.79,-549.51 1495.79,-557.45 1495.27,-546.87 1488.79,-549.51"/>
</g>
<!-- cv_depot\.ops&#45;&gt;cv_depot\.ops\.edit -->
<g id="edge44" class="edge">
<title>cv_depot\.ops&#45;&gt;cv_depot\.ops\.edit</title>
<path fill="none" stroke="#a0d17b" d="M1117.65,-240.81C1134.82,-245.77 1153.7,-251.31 1171,-256.55 1268.26,-286.02 1292.62,-293.32 1389,-325.55 1475.34,-354.42 1574.62,-389.8 1636.21,-412.02"/>
<polygon fill="#a0d17b" stroke="#a0d17b" points="1635.17,-415.36 1645.77,-415.47 1637.55,-408.78 1635.17,-415.36"/>
</g>
<!-- cv_depot\.ops&#45;&gt;cv_depot\.ops\.filter -->
<g id="edge45" class="edge">
<title>cv_depot\.ops&#45;&gt;cv_depot\.ops\.filter</title>
<path fill="none" stroke="#a0d17b" d="M1117.6,-229.89C1136.76,-234.34 1156.83,-242.33 1171,-256.55 1212.11,-297.8 1168.8,-338.59 1207,-382.55 1212.72,-389.13 1219.74,-394.68 1227.31,-399.35"/>
<polygon fill="#a0d17b" stroke="#a0d17b" points="1225.97,-402.61 1236.4,-404.43 1229.38,-396.5 1225.97,-402.61"/>
</g>
<!-- PIL\.Image -->
<g id="node21" class="node">
<title>PIL\.Image</title>
<polygon fill="#343434" stroke="#343434" points="871,-990.55 780,-990.55 780,-954.55 871,-954.55 871,-990.55"/>
<text text-anchor="middle" x="825.5" y="-968.85" font-family="Courier,monospace" font-size="14.00" fill="#de958e">PIL.Image</text>
</g>
<!-- PIL\.Image&#45;&gt;cv_depot\.core\.image -->
<g id="edge46" class="edge">
<title>PIL\.Image&#45;&gt;cv_depot\.core\.image</title>
<path fill="none" stroke="#de958e" d="M871.23,-967.92C897.13,-965.24 930.77,-961.76 962.39,-958.49"/>
<polygon fill="#de958e" stroke="#de958e" points="962.98,-961.95 972.57,-957.44 962.26,-954.98 962.98,-961.95"/>
</g>
<!-- ipywidgets -->
<g id="node22" class="node">
<title>ipywidgets</title>
<polygon fill="#343434" stroke="#343434" points="243,-1021.55 144,-1021.55 144,-985.55 243,-985.55 243,-1021.55"/>
<text text-anchor="middle" x="193.5" y="-999.85" font-family="Courier,monospace" font-size="14.00" fill="#de958e">ipywidgets</text>
</g>
<!-- ipywidgets&#45;&gt;cv_depot\.core\.viewer -->
<g id="edge47" class="edge">
<title>ipywidgets&#45;&gt;cv_depot\.core\.viewer</title>
<path fill="none" stroke="#de958e" d="M243.24,-1005.22C259.69,-1005.79 278.7,-1006.44 297.64,-1007.09"/>
<polygon fill="#de958e" stroke="#de958e" points="297.72,-1010.6 307.84,-1007.45 297.96,-1003.6 297.72,-1010.6"/>
</g>
<!-- openexr_tools\.tools -->
<g id="node23" class="node">
<title>openexr_tools\.tools</title>
<polygon fill="#343434" stroke="#343434" points="912,-1250.55 739,-1250.55 739,-1214.55 912,-1214.55 912,-1250.55"/>
<text text-anchor="middle" x="825.5" y="-1228.85" font-family="Courier,monospace" font-size="14.00" fill="#de958e">openexr_tools.tools</text>
</g>
<!-- openexr_tools\.tools&#45;&gt;cv_depot\.core\.image -->
<g id="edge48" class="edge">
<title>openexr_tools\.tools&#45;&gt;cv_depot\.core\.image</title>
<path fill="none" stroke="#de958e" d="M898.59,-1214.35C903.35,-1211.79 907.88,-1208.87 912,-1205.55 988.98,-1143.39 1033.07,-1029.23 1050.17,-976.55"/>
<polygon fill="#de958e" stroke="#de958e" points="1053.55,-977.45 1053.23,-966.86 1046.88,-975.34 1053.55,-977.45"/>
</g>
<!-- cv_depot\.core&#45;&gt;cv_depot\.core\.channel_map -->
<g id="edge49" class="edge">
<title>cv_depot\.core&#45;&gt;cv_depot\.core\.channel_map</title>
<path fill="none" stroke="#a0d17b" d="M240.12,-952.57C250.69,-958.72 260.91,-966.62 268,-976.55 317.46,-1045.77 249.34,-1099.35 304,-1164.55 459.81,-1350.38 767.49,-1371.07 937.87,-1366.78"/>
<polygon fill="#a0d17b" stroke="#a0d17b" points="937.99,-1370.28 947.88,-1366.5 937.79,-1363.28 937.99,-1370.28"/>
</g>
<!-- cv_depot\.core&#45;&gt;cv_depot\.core\.color -->
<g id="edge50" class="edge">
<title>cv_depot\.core&#45;&gt;cv_depot\.core\.color</title>
<path fill="none" stroke="#a0d17b" d="M195.32,-916.54C198.73,-864.56 216.12,-713.29 304,-639.55 363.49,-589.63 452.16,-577.44 519.7,-576.55"/>
<polygon fill="#a0d17b" stroke="#a0d17b" points="519.95,-580.05 529.93,-576.5 519.91,-573.05 519.95,-580.05"/>
</g>
<!-- cv_depot\.core&#45;&gt;cv_depot\.core\.enforce -->
<g id="edge51" class="edge">
<title>cv_depot\.core&#45;&gt;cv_depot\.core\.enforce</title>
<path fill="none" stroke="#a0d17b" d="M241.53,-952.58C251.81,-958.67 261.54,-966.55 268,-976.55 313.55,-1047.05 251.94,-1286.71 304,-1352.55 306.26,-1355.41 308.79,-1358.01 311.52,-1360.38"/>
<polygon fill="#a0d17b" stroke="#a0d17b" points="309.62,-1363.33 319.74,-1366.48 313.79,-1357.71 309.62,-1363.33"/>
</g>
<!-- cv_depot\.core&#45;&gt;cv_depot\.core\.enum -->
<g id="edge52" class="edge">
<title>cv_depot\.core&#45;&gt;cv_depot\.core\.enum</title>
<path fill="none" stroke="#a0d17b" d="M198.7,-916.49C209.3,-874.6 240.92,-769.7 304,-708.55 311.86,-700.93 321.34,-694.55 331.22,-689.25"/>
<polygon fill="#a0d17b" stroke="#a0d17b" points="332.97,-692.29 340.36,-684.69 329.85,-686.02 332.97,-692.29"/>
</g>
<!-- cv_depot\.core&#45;&gt;cv_depot\.core\.image -->
<g id="edge53" class="edge">
<title>cv_depot\.core&#45;&gt;cv_depot\.core\.image</title>
<path fill="none" stroke="#a0d17b" d="M255.71,-944.14C405.28,-966.91 786.21,-1020.82 912,-999.55 945.26,-993.92 981.03,-981.6 1008.91,-970.47"/>
<polygon fill="#a0d17b" stroke="#a0d17b" points="1010.48,-973.61 1018.42,-966.6 1007.84,-967.13 1010.48,-973.61"/>
</g>
<!-- cv_depot\.core&#45;&gt;cv_depot\.core\.tools -->
<g id="edge54" class="edge">
<title>cv_depot\.core&#45;&gt;cv_depot\.core\.tools</title>
<path fill="none" stroke="#a0d17b" d="M239.45,-952.55C250.16,-958.73 260.61,-966.66 268,-976.55 309.8,-1032.52 250.01,-1085.22 304,-1129.55 370.17,-1183.88 473.53,-1175.26 542.84,-1160.74"/>
<polygon fill="#a0d17b" stroke="#a0d17b" points="543.79,-1164.11 552.81,-1158.56 542.29,-1157.28 543.79,-1164.11"/>
</g>
<!-- cv_depot\.core&#45;&gt;cv_depot\.core\.types -->
<g id="edge55" class="edge">
<title>cv_depot\.core&#45;&gt;cv_depot\.core\.types</title>
<path fill="none" stroke="#a0d17b" d="M233.25,-916.4C321.75,-875.3 545.94,-773.14 739,-701.55 744.11,-699.65 749.42,-697.77 754.78,-695.94"/>
<polygon fill="#a0d17b" stroke="#a0d17b" points="756.08,-699.19 764.45,-692.69 753.86,-692.55 756.08,-699.19"/>
</g>
<!-- cv_depot\.core&#45;&gt;cv_depot\.core\.video -->
<g id="edge56" class="edge">
<title>cv_depot\.core&#45;&gt;cv_depot\.core\.video</title>
<path fill="none" stroke="#a0d17b" d="M255.6,-930.09C403.86,-919.28 783.62,-891.59 962.53,-878.54"/>
<polygon fill="#a0d17b" stroke="#a0d17b" points="963,-882.02 972.72,-877.8 962.49,-875.04 963,-882.02"/>
</g>
<!-- cv_depot\.core&#45;&gt;cv_depot\.core\.viewer -->
<g id="edge57" class="edge">
<title>cv_depot\.core&#45;&gt;cv_depot\.core\.viewer</title>
<path fill="none" stroke="#a0d17b" d="M237.98,-952.65C257.99,-960.81 282.1,-970.43 304,-978.55 313.55,-982.09 323.71,-985.7 333.67,-989.16"/>
<polygon fill="#a0d17b" stroke="#a0d17b" points="332.55,-992.48 343.15,-992.43 334.83,-985.86 332.55,-992.48"/>
</g>
<!-- openexr_tools\.enum -->
<g id="node25" class="node">
<title>openexr_tools\.enum</title>
<polygon fill="#343434" stroke="#343434" points="908,-1196.55 743,-1196.55 743,-1160.55 908,-1160.55 908,-1196.55"/>
<text text-anchor="middle" x="825.5" y="-1174.85" font-family="Courier,monospace" font-size="14.00" fill="#de958e">openexr_tools.enum</text>
</g>
<!-- openexr_tools\.enum&#45;&gt;cv_depot\.core\.image -->
<g id="edge58" class="edge">
<title>openexr_tools\.enum&#45;&gt;cv_depot\.core\.image</title>
<path fill="none" stroke="#de958e" d="M888.09,-1160.46C896.55,-1156.59 904.79,-1151.99 912,-1146.55 974.72,-1099.26 1022.86,-1017.89 1045.05,-975.7"/>
<polygon fill="#de958e" stroke="#de958e" points="1048.28,-977.07 1049.76,-966.58 1042.06,-973.86 1048.28,-977.07"/>
</g>
<!-- numpy\.typing -->
<g id="node26" class="node">
<title>numpy\.typing</title>
<polygon fill="#343434" stroke="#343434" points="457,-1120.55 341,-1120.55 341,-1084.55 457,-1084.55 457,-1120.55"/>
<text text-anchor="middle" x="399" y="-1098.85" font-family="Courier,monospace" font-size="14.00" fill="#de958e">numpy.typing</text>
</g>
<!-- numpy\.typing&#45;&gt;cv_depot\.core\.color -->
<g id="edge59" class="edge">
<title>numpy\.typing&#45;&gt;cv_depot\.core\.color</title>
<path fill="none" stroke="#de958e" d="M457.01,-1093.06C470.71,-1088.32 484.2,-1081.21 494,-1070.55 557.51,-1001.45 600.04,-704.24 612.03,-610.79"/>
<polygon fill="#de958e" stroke="#de958e" points="615.53,-611.03 613.32,-600.67 608.59,-610.15 615.53,-611.03"/>
</g>
<!-- numpy\.typing&#45;&gt;cv_depot\.core\.image -->
<g id="edge60" class="edge">
<title>numpy\.typing&#45;&gt;cv_depot\.core\.image</title>
<path fill="none" stroke="#de958e" d="M457.14,-1107.2C554.15,-1112.98 755.74,-1115.8 912,-1056.55 959.87,-1038.4 1005.82,-999.97 1033.11,-974.19"/>
<polygon fill="#de958e" stroke="#de958e" points="1035.85,-976.42 1040.63,-966.96 1031,-971.37 1035.85,-976.42"/>
</g>
<!-- numpy\.typing&#45;&gt;cv_depot\.core\.tools -->
<g id="edge61" class="edge">
<title>numpy\.typing&#45;&gt;cv_depot\.core\.tools</title>
<path fill="none" stroke="#de958e" d="M457.18,-1112.63C476.35,-1116.01 498.26,-1119.87 519.56,-1123.63"/>
<polygon fill="#de958e" stroke="#de958e" points="519.16,-1127.11 529.62,-1125.4 520.38,-1120.22 519.16,-1127.11"/>
</g>
<!-- cv2 -->
<g id="node27" class="node">
<title>cv2</title>
<polygon fill="#343434" stroke="#343434" points="1086.5,-188.55 1032.5,-188.55 1032.5,-152.55 1086.5,-152.55 1086.5,-188.55"/>
<text text-anchor="middle" x="1059.5" y="-166.85" font-family="Courier,monospace" font-size="14.00" fill="#de958e">cv2</text>
</g>
<!-- cv2&#45;&gt;cv_depot\.ops\.channel -->
<g id="edge62" class="edge">
<title>cv2&#45;&gt;cv_depot\.ops\.channel</title>
<path fill="none" stroke="#de958e" d="M1086.63,-169.1C1112.14,-169.25 1150.07,-173.88 1171,-197.55 1216.36,-248.84 1177.98,-441.53 1207,-503.55 1220.09,-531.52 1244.66,-556.58 1264.83,-573.92"/>
<polygon fill="#de958e" stroke="#de958e" points="1262.67,-576.68 1272.59,-580.41 1267.16,-571.31 1262.67,-576.68"/>
</g>
<!-- cv2&#45;&gt;cv_depot\.ops\.draw -->
<g id="edge63" class="edge">
<title>cv2&#45;&gt;cv_depot\.ops\.draw</title>
<path fill="none" stroke="#de958e" d="M1086.66,-174.62C1109.51,-178.71 1143.26,-186.08 1171,-197.55 1197.17,-208.37 1370.13,-308.43 1389,-329.55 1448.27,-395.87 1481.91,-498.46 1495.45,-547.53"/>
<polygon fill="#de958e" stroke="#de958e" points="1492.13,-548.68 1498.1,-557.44 1498.89,-546.87 1492.13,-548.68"/>
</g>
<!-- cv2&#45;&gt;cv_depot\.ops\.edit -->
<g id="edge64" class="edge">
<title>cv2&#45;&gt;cv_depot\.ops\.edit</title>
<path fill="none" stroke="#de958e" d="M1086.6,-174.61C1165.84,-187.8 1408.83,-234.59 1582,-336.55 1615.77,-356.43 1649.23,-386.66 1670.98,-408.08"/>
<polygon fill="#de958e" stroke="#de958e" points="1668.62,-410.66 1678.16,-415.25 1673.56,-405.71 1668.62,-410.66"/>
</g>
<!-- cv2&#45;&gt;cv_depot\.ops\.filter -->
<g id="edge65" class="edge">
<title>cv2&#45;&gt;cv_depot\.ops\.filter</title>
<path fill="none" stroke="#de958e" d="M1086.85,-169.82C1111.79,-170.6 1148.64,-175.78 1171,-197.55 1214.57,-239.97 1176.91,-276.7 1207,-329.55 1222.05,-355.97 1246.34,-380.45 1265.9,-397.66"/>
<polygon fill="#de958e" stroke="#de958e" points="1263.81,-400.48 1273.68,-404.34 1268.37,-395.17 1263.81,-400.48"/>
</g>
<!-- lunchbox\.enforce -->
<g id="node28" class="node">
<title>lunchbox\.enforce</title>
<polygon fill="#343434" stroke="#343434" points="268,-1360.55 119,-1360.55 119,-1324.55 268,-1324.55 268,-1360.55"/>
<text text-anchor="middle" x="193.5" y="-1338.85" font-family="Courier,monospace" font-size="14.00" fill="#de958e">lunchbox.enforce</text>
</g>
<!-- lunchbox\.enforce&#45;&gt;cv_depot\.core\.channel_map -->
<g id="edge66" class="edge">
<title>lunchbox\.enforce&#45;&gt;cv_depot\.core\.channel_map</title>
<path fill="none" stroke="#de958e" d="M215.36,-1360.81C236.17,-1377.72 269.89,-1401.7 304,-1411.55 385.13,-1434.98 409.65,-1415.5 494,-1411.55 647.43,-1404.36 823.55,-1386.24 937.69,-1373.19"/>
<polygon fill="#de958e" stroke="#de958e" points="938.32,-1376.64 947.85,-1372.02 937.52,-1369.69 938.32,-1376.64"/>
</g>
<!-- lunchbox\.enforce&#45;&gt;cv_depot\.core\.color -->
<g id="edge67" class="edge">
<title>lunchbox\.enforce&#45;&gt;cv_depot\.core\.color</title>
<path fill="none" stroke="#de958e" d="M196.2,-1324.2C201.77,-1275.37 223.98,-1141.52 304,-1075.55 370.44,-1020.76 431.2,-1096.48 494,-1037.55 557.74,-977.74 599.76,-700.45 611.88,-610.68"/>
<polygon fill="#de958e" stroke="#de958e" points="615.36,-611.06 613.21,-600.68 608.42,-610.14 615.36,-611.06"/>
</g>
<!-- lunchbox\.enforce&#45;&gt;cv_depot\.core\.enforce -->
<g id="edge68" class="edge">
<title>lunchbox\.enforce&#45;&gt;cv_depot\.core\.enforce</title>
<path fill="none" stroke="#de958e" d="M268.26,-1357.77C278.79,-1359.94 289.77,-1362.21 300.67,-1364.46"/>
<polygon fill="#de958e" stroke="#de958e" points="300.15,-1367.93 310.65,-1366.52 301.56,-1361.07 300.15,-1367.93"/>
</g>
<!-- lunchbox\.enforce&#45;&gt;cv_depot\.core\.enum -->
<g id="edge69" class="edge">
<title>lunchbox\.enforce&#45;&gt;cv_depot\.core\.enum</title>
<path fill="none" stroke="#de958e" d="M199.94,-1324.47C227.92,-1231.52 355.58,-807.47 389.63,-694.35"/>
<polygon fill="#de958e" stroke="#de958e" points="393.01,-695.27 392.54,-684.68 386.31,-693.25 393.01,-695.27"/>
</g>
<!-- lunchbox\.enforce&#45;&gt;cv_depot\.core\.image -->
<g id="edge70" class="edge">
<title>lunchbox\.enforce&#45;&gt;cv_depot\.core\.image</title>
<path fill="none" stroke="#de958e" d="M221.97,-1324.28C243.34,-1311.14 274.27,-1294.41 304,-1286.55 434.75,-1251.97 799.43,-1334.51 912,-1259.55 1011.56,-1193.25 1045.02,-1040.16 1054.86,-976.8"/>
<polygon fill="#de958e" stroke="#de958e" points="1058.35,-977.14 1056.34,-966.74 1051.42,-976.12 1058.35,-977.14"/>
</g>
<!-- lunchbox\.enforce&#45;&gt;cv_depot\.core\.video -->
<g id="edge71" class="edge">
<title>lunchbox\.enforce&#45;&gt;cv_depot\.core\.video</title>
<path fill="none" stroke="#de958e" d="M218.53,-1324.39C239.96,-1308.96 272.69,-1287.19 304,-1273.55 472.21,-1200.24 579.83,-1303.55 703,-1167.55 770.1,-1093.46 670.72,-1018.55 739,-945.55 742.98,-941.29 872.64,-912.19 965.54,-891.78"/>
<polygon fill="#de958e" stroke="#de958e" points="966.53,-895.15 975.54,-889.58 965.02,-888.31 966.53,-895.15"/>
</g>
<!-- lunchbox\.enforce&#45;&gt;cv_depot\.ops\.channel -->
<g id="edge72" class="edge">
<title>lunchbox\.enforce&#45;&gt;cv_depot\.ops\.channel</title>
<path fill="none" stroke="#de958e" d="M209.69,-1360.63C229.02,-1382.09 264.66,-1416.7 304,-1430.55 358.95,-1449.89 1118.56,-1438.22 1171,-1385.55 1216.63,-1339.71 1191.82,-867.42 1207,-804.55 1223.25,-737.22 1260.22,-664.25 1281.37,-625.81"/>
<polygon fill="#de958e" stroke="#de958e" points="1284.58,-627.24 1286.39,-616.8 1278.47,-623.84 1284.58,-627.24"/>
</g>
<!-- lunchbox\.enforce&#45;&gt;cv_depot\.ops\.draw -->
<g id="edge73" class="edge">
<title>lunchbox\.enforce&#45;&gt;cv_depot\.ops\.draw</title>
<path fill="none" stroke="#de958e" d="M206.38,-1360.65C224.13,-1385.86 260.22,-1430.49 304,-1448.55 482.22,-1522.06 1017.31,-1534.92 1171,-1418.55 1450.31,-1207.06 1494.54,-725.26 1501.31,-603.77"/>
<polygon fill="#de958e" stroke="#de958e" points="1504.81,-603.94 1501.83,-593.77 1497.82,-603.58 1504.81,-603.94"/>
</g>
<!-- lunchbox\.enforce&#45;&gt;cv_depot\.ops\.edit -->
<g id="edge74" class="edge">
<title>lunchbox\.enforce&#45;&gt;cv_depot\.ops\.edit</title>
<path fill="none" stroke="#de958e" d="M203.07,-1360.64C218.59,-1391.27 254.38,-1452.99 304,-1483.55 424.13,-1557.52 474.43,-1544.55 615.5,-1544.55 615.5,-1544.55 615.5,-1544.55 1299,-1544.55 1484.57,-1544.55 1515,-1410.6 1582,-1237.55 1693.21,-950.29 1697.26,-567.63 1696.07,-461.73"/>
<polygon fill="#de958e" stroke="#de958e" points="1699.56,-461.5 1695.92,-451.55 1692.56,-461.6 1699.56,-461.5"/>
</g>
<!-- lunchbox\.enforce&#45;&gt;cv_depot\.ops\.filter -->
<g id="edge75" class="edge">
<title>lunchbox\.enforce&#45;&gt;cv_depot\.ops\.filter</title>
<path fill="none" stroke="#de958e" d="M268.05,-1344.31C427.88,-1347 801.41,-1346.76 912,-1289.55 1072.68,-1206.42 1104.06,-1143.61 1171,-975.55 1214.35,-866.7 1133.89,-541.1 1207,-449.55 1207.5,-448.93 1208.01,-448.32 1208.53,-447.72"/>
<polygon fill="#de958e" stroke="#de958e" points="1211.09,-450.13 1216.01,-440.74 1206.31,-445.01 1211.09,-450.13"/>
</g>
<!-- numpy -->
<g id="node29" class="node">
<title>numpy</title>
<polygon fill="#343434" stroke="#343434" points="222.5,-342.55 164.5,-342.55 164.5,-306.55 222.5,-306.55 222.5,-342.55"/>
<text text-anchor="middle" x="193.5" y="-320.85" font-family="Courier,monospace" font-size="14.00" fill="#de958e">numpy</text>
</g>
<!-- numpy&#45;&gt;cv_depot\.core\.color -->
<g id="edge76" class="edge">
<title>numpy&#45;&gt;cv_depot\.core\.color</title>
<path fill="none" stroke="#de958e" d="M222.78,-341.88C296.33,-386.95 493.71,-507.91 577.28,-559.13"/>
<polygon fill="#de958e" stroke="#de958e" points="575.6,-562.2 585.95,-564.44 579.25,-556.23 575.6,-562.2"/>
</g>
<!-- numpy&#45;&gt;cv_depot\.core\.enum -->
<g id="edge77" class="edge">
<title>numpy&#45;&gt;cv_depot\.core\.enum</title>
<path fill="none" stroke="#de958e" d="M199.61,-342.58C212.41,-385.74 248.78,-497.29 304,-576.55 321.37,-601.48 346.43,-625.05 366.3,-641.81"/>
<polygon fill="#de958e" stroke="#de958e" points="364.26,-644.66 374.19,-648.34 368.72,-639.27 364.26,-644.66"/>
</g>
<!-- numpy&#45;&gt;cv_depot\.core\.image -->
<g id="edge78" class="edge">
<title>numpy&#45;&gt;cv_depot\.core\.image</title>
<path fill="none" stroke="#de958e" d="M194.52,-342.62C195.57,-401.29 206.75,-588.7 304,-693.55 480.08,-883.38 802.28,-931.94 962.61,-944.33"/>
<polygon fill="#de958e" stroke="#de958e" points="962.7,-947.84 972.93,-945.09 963.22,-940.86 962.7,-947.84"/>
</g>
<!-- numpy&#45;&gt;cv_depot\.ops\.channel -->
<g id="edge79" class="edge">
<title>numpy&#45;&gt;cv_depot\.ops\.channel</title>
<path fill="none" stroke="#de958e" d="M222.67,-330.26C275.85,-341.13 394.63,-365.84 494,-389.55 762.72,-453.65 1079.45,-539 1221.47,-577.79"/>
<polygon fill="#de958e" stroke="#de958e" points="1220.82,-581.24 1231.39,-580.5 1222.67,-574.48 1220.82,-581.24"/>
</g>
<!-- numpy&#45;&gt;cv_depot\.ops\.draw -->
<g id="edge80" class="edge">
<title>numpy&#45;&gt;cv_depot\.ops\.draw</title>
<path fill="none" stroke="#de958e" d="M222.77,-312.14C339.33,-262.51 794.24,-83.74 1171,-143.55 1271.64,-159.52 1317.32,-142.13 1389,-214.55 1482.47,-308.98 1499.09,-479.51 1501.95,-546.97"/>
<polygon fill="#de958e" stroke="#de958e" points="1498.46,-547.37 1502.31,-557.24 1505.46,-547.13 1498.46,-547.37"/>
</g>
<!-- numpy&#45;&gt;cv_depot\.ops\.edit -->
<g id="edge81" class="edge">
<title>numpy&#45;&gt;cv_depot\.ops\.edit</title>
<path fill="none" stroke="#de958e" d="M207.17,-306.51C225.62,-281.61 262.24,-237.03 304,-212.55 725.81,34.76 902.59,19.33 1389,-30.55 1476.14,-39.48 1517.08,-11.73 1582,-70.55 1681.64,-160.81 1694.58,-337.11 1695.7,-405.5"/>
<polygon fill="#de958e" stroke="#de958e" points="1692.2,-405.55 1695.79,-415.52 1699.2,-405.49 1692.2,-405.55"/>
</g>
<!-- numpy&#45;&gt;cv_depot\.ops\.filter -->
<g id="edge82" class="edge">
<title>numpy&#45;&gt;cv_depot\.ops\.filter</title>
<path fill="none" stroke="#de958e" d="M222.78,-320.18C244.85,-316.96 276.3,-312.76 304,-310.55 400.05,-302.86 1090.89,-236 1171,-289.55 1205.79,-312.8 1178.62,-345.8 1207,-376.55 1215.55,-385.81 1226.38,-393.49 1237.54,-399.75"/>
<polygon fill="#de958e" stroke="#de958e" points="1236.05,-402.92 1246.53,-404.48 1239.3,-396.73 1236.05,-402.92"/>
</g>
<!-- lunchbox\.stopwatch -->
<g id="node30" class="node">
<title>lunchbox\.stopwatch</title>
<polygon fill="#343434" stroke="#343434" points="1142,-334.55 977,-334.55 977,-298.55 1142,-298.55 1142,-334.55"/>
<text text-anchor="middle" x="1059.5" y="-312.85" font-family="Courier,monospace" font-size="14.00" fill="#de958e">lunchbox.stopwatch</text>
</g>
<!-- lunchbox\.stopwatch&#45;&gt;cv_depot\.ops\.filter -->
<g id="edge83" class="edge">
<title>lunchbox\.stopwatch&#45;&gt;cv_depot\.ops\.filter</title>
<path fill="none" stroke="#de958e" d="M1139.96,-334.56C1150.73,-338.43 1161.38,-343.05 1171,-348.55 1190.11,-359.47 1188.68,-370.35 1207,-382.55 1216.9,-389.14 1228.05,-395.1 1239.06,-400.29"/>
<polygon fill="#de958e" stroke="#de958e" points="1237.69,-403.51 1248.24,-404.46 1240.59,-397.13 1237.69,-403.51"/>
</g>
<!-- ffmpeg -->
<g id="node31" class="node">
<title>ffmpeg</title>
<polygon fill="#343434" stroke="#343434" points="858.5,-746.55 792.5,-746.55 792.5,-710.55 858.5,-710.55 858.5,-746.55"/>
<text text-anchor="middle" x="825.5" y="-724.85" font-family="Courier,monospace" font-size="14.00" fill="#de958e">ffmpeg</text>
</g>
<!-- ffmpeg&#45;&gt;cv_depot\.core\.video -->
<g id="edge84" class="edge">
<title>ffmpeg&#45;&gt;cv_depot\.core\.video</title>
<path fill="none" stroke="#de958e" d="M858.54,-734.28C876.12,-738.83 897.28,-746.82 912,-760.55 940.21,-786.87 918.8,-814.32 948,-839.55 952.81,-843.7 958.13,-847.32 963.76,-850.47"/>
<polygon fill="#de958e" stroke="#de958e" points="962.34,-853.67 972.84,-855.04 965.48,-847.42 962.34,-853.67"/>
</g>
</g>
</svg>
