<?xml version="1.0" encoding="UTF-8" standalone="no"?>
<!DOCTYPE svg PUBLIC "-//W3C//DTD SVG 1.1//EN"
 "http://www.w3.org/Graphics/SVG/1.1/DTD/svg11.dtd">
<!-- Generated by graphviz version 2.43.0 (0)
 -->
<!-- Title: %3 Pages: 1 -->
<svg width="752pt" height="514pt"
 viewBox="0.00 0.00 752.00 514.00" xmlns="http://www.w3.org/2000/svg" xmlns:xlink="http://www.w3.org/1999/xlink">
<g id="graph0" class="graph" transform="scale(1 1) rotate(0) translate(4 510)">
<title>%3</title>
<polygon fill="#242424" stroke="transparent" points="-4,4 -4,-510 748,-510 748,4 -4,4"/>
<!-- cli -->
<g id="node1" class="node">
<title>cli</title>
<polygon fill="#343434" stroke="#343434" points="68.5,-225 14.5,-225 14.5,-189 68.5,-189 68.5,-225"/>
<text text-anchor="middle" x="41.5" y="-203.3" font-family="Courier,monospace" font-size="14.00" fill="#b6ecf3">cli</text>
</g>
<!-- cv_depot\.command -->
<g id="node2" class="node">
<title>cv_depot\.command</title>
<polygon fill="#343434" stroke="#343434" points="288.5,-360 139.5,-360 139.5,-324 288.5,-324 288.5,-360"/>
<text text-anchor="middle" x="214" y="-338.3" font-family="Courier,monospace" font-size="14.00" fill="#b6ecf3">cv_depot.command</text>
</g>
<!-- cv_depot\.core\.channel -->
<g id="node3" class="node">
<title>cv_depot\.core\.channel</title>
<polygon fill="#343434" stroke="#343434" points="535,-306 345,-306 345,-270 535,-270 535,-306"/>
<text text-anchor="middle" x="440" y="-284.3" font-family="Courier,monospace" font-size="14.00" fill="#b6ecf3">cv_depot.core.channel</text>
</g>
<!-- cv_depot\.core\.enum -->
<g id="node4" class="node">
<title>cv_depot\.core\.enum</title>
<polygon fill="#343434" stroke="#343434" points="522.5,-252 357.5,-252 357.5,-216 522.5,-216 522.5,-252"/>
<text text-anchor="middle" x="440" y="-230.3" font-family="Courier,monospace" font-size="14.00" fill="#b6ecf3">cv_depot.core.enum</text>
</g>
<!-- cv_depot\.core\.image -->
<g id="node5" class="node">
<title>cv_depot\.core\.image</title>
<polygon fill="#343434" stroke="#343434" points="744,-252 571,-252 571,-216 744,-216 744,-252"/>
<text text-anchor="middle" x="657.5" y="-230.3" font-family="Courier,monospace" font-size="14.00" fill="#b6ecf3">cv_depot.core.image</text>
</g>
<!-- cv_depot\.core\.enum&#45;&gt;cv_depot\.core\.image -->
<g id="edge1" class="edge">
<title>cv_depot\.core\.enum&#45;&gt;cv_depot\.core\.image</title>
<path fill="none" stroke="#b6ecf3" d="M522.78,-234C535.18,-234 548.07,-234 560.74,-234"/>
<polygon fill="#b6ecf3" stroke="#b6ecf3" points="560.83,-237.5 570.83,-234 560.83,-230.5 560.83,-237.5"/>
</g>
<!-- cv_depot\.core\.tools -->
<g id="node6" class="node">
<title>cv_depot\.core\.tools</title>
<polygon fill="#343434" stroke="#343434" points="526.5,-122 353.5,-122 353.5,-86 526.5,-86 526.5,-122"/>
<text text-anchor="middle" x="440" y="-100.3" font-family="Courier,monospace" font-size="14.00" fill="#b6ecf3">cv_depot.core.tools</text>
</g>
<!-- cv_depot\.core\.tools&#45;&gt;cv_depot\.core\.image -->
<g id="edge2" class="edge">
<title>cv_depot\.core\.tools&#45;&gt;cv_depot\.core\.image</title>
<path fill="none" stroke="#b6ecf3" d="M504,-122.02C514.63,-126.02 525.34,-130.68 535,-136 571.26,-155.97 607.5,-186.99 630.84,-208.77"/>
<polygon fill="#b6ecf3" stroke="#b6ecf3" points="628.57,-211.45 638.24,-215.78 633.38,-206.36 628.57,-211.45"/>
</g>
<!-- click -->
<g id="node7" class="node">
<title>click</title>
<polygon fill="#343434" stroke="#343434" points="70.5,-360 12.5,-360 12.5,-324 70.5,-324 70.5,-360"/>
<text text-anchor="middle" x="41.5" y="-338.3" font-family="Courier,monospace" font-size="14.00" fill="#de958e">click</text>
</g>
<!-- click&#45;&gt;cv_depot\.command -->
<g id="edge3" class="edge">
<title>click&#45;&gt;cv_depot\.command</title>
<path fill="none" stroke="#de958e" d="M70.65,-342C86.82,-342 108.06,-342 129.18,-342"/>
<polygon fill="#de958e" stroke="#de958e" points="129.18,-345.5 139.18,-342 129.18,-338.5 129.18,-345.5"/>
</g>
<!-- cv_depot -->
<g id="node8" class="node">
<title>cv_depot</title>
<polygon fill="#343434" stroke="#343434" points="83,-279 0,-279 0,-243 83,-243 83,-279"/>
<text text-anchor="middle" x="41.5" y="-257.3" font-family="Courier,monospace" font-size="14.00" fill="#a0d17b">cv_depot</text>
</g>
<!-- cv_depot&#45;&gt;cv_depot\.command -->
<g id="edge4" class="edge">
<title>cv_depot&#45;&gt;cv_depot\.command</title>
<path fill="none" stroke="#a0d17b" d="M64.03,-279.17C78.72,-290.8 99.06,-305.44 119,-315 122.98,-316.91 127.13,-318.71 131.36,-320.4"/>
<polygon fill="#a0d17b" stroke="#a0d17b" points="130.14,-323.69 140.73,-323.94 132.61,-317.14 130.14,-323.69"/>
</g>
<!-- cv_depot\.core -->
<g id="node9" class="node">
<title>cv_depot\.core</title>
<polygon fill="#343434" stroke="#343434" points="276,-252 152,-252 152,-216 276,-216 276,-252"/>
<text text-anchor="middle" x="214" y="-230.3" font-family="Courier,monospace" font-size="14.00" fill="#a0d17b">cv_depot.core</text>
</g>
<!-- cv_depot&#45;&gt;cv_depot\.core -->
<g id="edge5" class="edge">
<title>cv_depot&#45;&gt;cv_depot\.core</title>
<path fill="none" stroke="#a0d17b" d="M83.34,-254.53C100.87,-251.76 121.87,-248.43 141.82,-245.27"/>
<polygon fill="#a0d17b" stroke="#a0d17b" points="142.49,-248.71 151.82,-243.69 141.4,-241.8 142.49,-248.71"/>
</g>
<!-- cv_depot\.core&#45;&gt;cv_depot\.core\.channel -->
<g id="edge6" class="edge">
<title>cv_depot\.core&#45;&gt;cv_depot\.core\.channel</title>
<path fill="none" stroke="#a0d17b" d="M276.21,-248.76C300.33,-254.57 328.44,-261.35 354.44,-267.62"/>
<polygon fill="#a0d17b" stroke="#a0d17b" points="353.75,-271.05 364.29,-269.99 355.39,-264.24 353.75,-271.05"/>
</g>
<!-- cv_depot\.core&#45;&gt;cv_depot\.core\.enum -->
<g id="edge7" class="edge">
<title>cv_depot\.core&#45;&gt;cv_depot\.core\.enum</title>
<path fill="none" stroke="#a0d17b" d="M276.21,-234C298.08,-234 323.24,-234 347.13,-234"/>
<polygon fill="#a0d17b" stroke="#a0d17b" points="347.28,-237.5 357.28,-234 347.28,-230.5 347.28,-237.5"/>
</g>
<!-- cv_depot\.core&#45;&gt;cv_depot\.core\.image -->
<g id="edge8" class="edge">
<title>cv_depot\.core&#45;&gt;cv_depot\.core\.image</title>
<path fill="none" stroke="#a0d17b" d="M276.1,-218.62C297.71,-213.9 322.3,-209.33 345,-207 429,-198.37 451.06,-197.79 535,-207 548.83,-208.52 563.38,-210.98 577.43,-213.81"/>
<polygon fill="#a0d17b" stroke="#a0d17b" points="577.04,-217.31 587.55,-215.94 578.48,-210.46 577.04,-217.31"/>
</g>
<!-- cv_depot\.core&#45;&gt;cv_depot\.core\.tools -->
<g id="edge9" class="edge">
<title>cv_depot\.core&#45;&gt;cv_depot\.core\.tools</title>
<path fill="none" stroke="#a0d17b" d="M276.33,-220.84C287.57,-217.2 298.93,-212.64 309,-207 327.93,-196.39 328.27,-187.83 345,-174 364.27,-158.06 386.7,-141.3 404.82,-128.17"/>
<polygon fill="#a0d17b" stroke="#a0d17b" points="407.26,-130.72 413.33,-122.04 403.17,-125.04 407.26,-130.72"/>
</g>
<!-- lunchbox\.enforce -->
<g id="node10" class="node">
<title>lunchbox\.enforce</title>
<polygon fill="#343434" stroke="#343434" points="288.5,-306 139.5,-306 139.5,-270 288.5,-270 288.5,-306"/>
<text text-anchor="middle" x="214" y="-284.3" font-family="Courier,monospace" font-size="14.00" fill="#de958e">lunchbox.enforce</text>
</g>
<!-- lunchbox\.enforce&#45;&gt;cv_depot\.core\.channel -->
<g id="edge10" class="edge">
<title>lunchbox\.enforce&#45;&gt;cv_depot\.core\.channel</title>
<path fill="none" stroke="#de958e" d="M288.66,-288C303.41,-288 319.16,-288 334.72,-288"/>
<polygon fill="#de958e" stroke="#de958e" points="334.9,-291.5 344.9,-288 334.9,-284.5 334.9,-291.5"/>
</g>
<!-- lunchbox\.enforce&#45;&gt;cv_depot\.core\.enum -->
<g id="edge11" class="edge">
<title>lunchbox\.enforce&#45;&gt;cv_depot\.core\.enum</title>
<path fill="none" stroke="#de958e" d="M288.66,-270.24C309.67,-265.18 332.72,-259.62 354.33,-254.41"/>
<polygon fill="#de958e" stroke="#de958e" points="355.25,-257.79 364.15,-252.04 353.61,-250.99 355.25,-257.79"/>
</g>
<!-- lunchbox\.enforce&#45;&gt;cv_depot\.core\.image -->
<g id="edge12" class="edge">
<title>lunchbox\.enforce&#45;&gt;cv_depot\.core\.image</title>
<path fill="none" stroke="#de958e" d="M274.78,-306.07C340.12,-322.85 447.22,-341.58 535,-315 571.25,-304.03 606.56,-278.28 629.69,-258.73"/>
<polygon fill="#de958e" stroke="#de958e" points="632.07,-261.3 637.35,-252.11 627.49,-256.01 632.07,-261.3"/>
</g>
<!-- numpy -->
<g id="node11" class="node">
<title>numpy</title>
<polygon fill="#343434" stroke="#343434" points="243,-198 185,-198 185,-162 243,-162 243,-198"/>
<text text-anchor="middle" x="214" y="-176.3" font-family="Courier,monospace" font-size="14.00" fill="#de958e">numpy</text>
</g>
<!-- numpy&#45;&gt;cv_depot\.core\.enum -->
<g id="edge13" class="edge">
<title>numpy&#45;&gt;cv_depot\.core\.enum</title>
<path fill="none" stroke="#de958e" d="M243.37,-186.84C271.26,-193.56 315.23,-204.16 354.42,-213.61"/>
<polygon fill="#de958e" stroke="#de958e" points="353.73,-217.04 364.27,-215.99 355.37,-210.24 353.73,-217.04"/>
</g>
<!-- numpy&#45;&gt;cv_depot\.core\.image -->
<g id="edge14" class="edge">
<title>numpy&#45;&gt;cv_depot\.core\.image</title>
<path fill="none" stroke="#de958e" d="M243.08,-179.22C299.08,-178.17 428.43,-178.23 535,-197 555.62,-200.63 577.66,-206.66 597.23,-212.81"/>
<polygon fill="#de958e" stroke="#de958e" points="596.33,-216.19 606.92,-215.92 598.47,-209.53 596.33,-216.19"/>
</g>
<!-- numpy&#45;&gt;cv_depot\.core\.tools -->
<g id="edge15" class="edge">
<title>numpy&#45;&gt;cv_depot\.core\.tools</title>
<path fill="none" stroke="#de958e" d="M243.36,-173.13C262.21,-168.26 287.39,-161.14 309,-153 325.56,-146.76 328.6,-142.64 345,-136 353.89,-132.4 363.37,-128.85 372.74,-125.5"/>
<polygon fill="#de958e" stroke="#de958e" points="374.17,-128.71 382.45,-122.09 371.86,-122.11 374.17,-128.71"/>
</g>
<!-- numpy\.typing -->
<g id="node12" class="node">
<title>numpy\.typing</title>
<polygon fill="#343434" stroke="#343434" points="272,-36 156,-36 156,0 272,0 272,-36"/>
<text text-anchor="middle" x="214" y="-14.3" font-family="Courier,monospace" font-size="14.00" fill="#de958e">numpy.typing</text>
</g>
<!-- numpy\.typing&#45;&gt;cv_depot\.core\.image -->
<g id="edge16" class="edge">
<title>numpy\.typing&#45;&gt;cv_depot\.core\.image</title>
<path fill="none" stroke="#de958e" d="M272.21,-16.59C339.79,-17.49 453.35,-27.25 535,-77 586.87,-108.61 624.91,-171.11 643.58,-206.99"/>
<polygon fill="#de958e" stroke="#de958e" points="640.46,-208.59 648.11,-215.93 646.71,-205.42 640.46,-208.59"/>
</g>
<!-- numpy\.typing&#45;&gt;cv_depot\.core\.tools -->
<g id="edge17" class="edge">
<title>numpy\.typing&#45;&gt;cv_depot\.core\.tools</title>
<path fill="none" stroke="#de958e" d="M272.1,-32.95C284.38,-36.57 297.21,-40.66 309,-45 337.77,-55.6 369.09,-69.73 393.78,-81.5"/>
<polygon fill="#de958e" stroke="#de958e" points="392.36,-84.71 402.89,-85.89 395.4,-78.4 392.36,-84.71"/>
</g>
<!-- openexr_tools\.enum -->
<g id="node13" class="node">
<title>openexr_tools\.enum</title>
<polygon fill="#343434" stroke="#343434" points="522.5,-506 357.5,-506 357.5,-470 522.5,-470 522.5,-506"/>
<text text-anchor="middle" x="440" y="-484.3" font-family="Courier,monospace" font-size="14.00" fill="#de958e">openexr_tools.enum</text>
</g>
<!-- openexr_tools\.enum&#45;&gt;cv_depot\.core\.image -->
<g id="edge18" class="edge">
<title>openexr_tools\.enum&#45;&gt;cv_depot\.core\.image</title>
<path fill="none" stroke="#de958e" d="M521.71,-469.76C526.42,-467.21 530.91,-464.31 535,-461 600.6,-408.01 635.5,-309.84 649.32,-261.86"/>
<polygon fill="#de958e" stroke="#de958e" points="652.71,-262.72 652.02,-252.15 645.97,-260.84 652.71,-262.72"/>
</g>
<!-- pandas -->
<g id="node14" class="node">
<title>pandas</title>
<polygon fill="#343434" stroke="#343434" points="247,-90 181,-90 181,-54 247,-54 247,-90"/>
<text text-anchor="middle" x="214" y="-68.3" font-family="Courier,monospace" font-size="14.00" fill="#de958e">pandas</text>
</g>
<!-- pandas&#45;&gt;cv_depot\.core\.tools -->
<g id="edge19" class="edge">
<title>pandas&#45;&gt;cv_depot\.core\.tools</title>
<path fill="none" stroke="#de958e" d="M247.09,-76.58C272.31,-80.19 308.8,-85.4 343.2,-90.31"/>
<polygon fill="#de958e" stroke="#de958e" points="342.92,-93.81 353.31,-91.76 343.91,-86.88 342.92,-93.81"/>
</g>
<!-- sklearn\.preprocessing -->
<g id="node15" class="node">
<title>sklearn\.preprocessing</title>
<polygon fill="#343434" stroke="#343434" points="309,-144 119,-144 119,-108 309,-108 309,-144"/>
<text text-anchor="middle" x="214" y="-122.3" font-family="Courier,monospace" font-size="14.00" fill="#de958e">sklearn.preprocessing</text>
</g>
<!-- sklearn\.preprocessing&#45;&gt;cv_depot\.core\.tools -->
<g id="edge20" class="edge">
<title>sklearn\.preprocessing&#45;&gt;cv_depot\.core\.tools</title>
<path fill="none" stroke="#de958e" d="M309.02,-116.77C320.41,-115.65 332.06,-114.5 343.47,-113.38"/>
<polygon fill="#de958e" stroke="#de958e" points="343.81,-116.87 353.42,-112.4 343.13,-109.9 343.81,-116.87"/>
</g>
<!-- openexr_tools\.tools -->
<g id="node16" class="node">
<title>openexr_tools\.tools</title>
<polygon fill="#343434" stroke="#343434" points="526.5,-452 353.5,-452 353.5,-416 526.5,-416 526.5,-452"/>
<text text-anchor="middle" x="440" y="-430.3" font-family="Courier,monospace" font-size="14.00" fill="#de958e">openexr_tools.tools</text>
</g>
<!-- openexr_tools\.tools&#45;&gt;cv_depot\.core\.image -->
<g id="edge21" class="edge">
<title>openexr_tools\.tools&#45;&gt;cv_depot\.core\.image</title>
<path fill="none" stroke="#de958e" d="M519.86,-415.86C525.19,-413.29 530.3,-410.35 535,-407 588.23,-369.07 626.2,-300.19 644.38,-261.78"/>
<polygon fill="#de958e" stroke="#de958e" points="647.76,-262.8 648.78,-252.26 641.41,-259.87 647.76,-262.8"/>
</g>
<!-- skimage\.io -->
<g id="node17" class="node">
<title>skimage\.io</title>
<polygon fill="#343434" stroke="#343434" points="489.5,-398 390.5,-398 390.5,-362 489.5,-362 489.5,-398"/>
<text text-anchor="middle" x="440" y="-376.3" font-family="Courier,monospace" font-size="14.00" fill="#de958e">skimage.io</text>
</g>
<!-- skimage\.io&#45;&gt;cv_depot\.core\.image -->
<g id="edge22" class="edge">
<title>skimage\.io&#45;&gt;cv_depot\.core\.image</title>
<path fill="none" stroke="#de958e" d="M489.6,-367.8C504.74,-362.87 521.11,-356.34 535,-348 574.6,-324.21 612.08,-285.74 634.67,-260.15"/>
<polygon fill="#de958e" stroke="#de958e" points="637.55,-262.18 641.47,-252.34 632.27,-257.59 637.55,-262.18"/>
</g>
</g>
</svg>
