<?xml version="1.0" encoding="UTF-8" standalone="no"?>
<!DOCTYPE svg PUBLIC "-//W3C//DTD SVG 1.1//EN"
 "http://www.w3.org/Graphics/SVG/1.1/DTD/svg11.dtd">
<!-- Generated by graphviz version 2.43.0 (0)
 -->
<!-- Title: %3 Pages: 1 -->
<svg width="920pt" height="607pt"
 viewBox="0.00 0.00 920.00 607.24" xmlns="http://www.w3.org/2000/svg" xmlns:xlink="http://www.w3.org/1999/xlink">
<g id="graph0" class="graph" transform="scale(1 1) rotate(0) translate(4 603.24)">
<title>%3</title>
<polygon fill="#242424" stroke="transparent" points="-4,4 -4,-603.24 916,-603.24 916,4 -4,4"/>
<!-- cli -->
<g id="node1" class="node">
<title>cli</title>
<polygon fill="#343434" stroke="#343434" points="68.5,-339.24 14.5,-339.24 14.5,-303.24 68.5,-303.24 68.5,-339.24"/>
<text text-anchor="middle" x="41.5" y="-317.54" font-family="Courier,monospace" font-size="14.00" fill="#b6ecf3">cli</text>
</g>
<!-- cv_depot\.command -->
<g id="node2" class="node">
<title>cv_depot\.command</title>
<polygon fill="#343434" stroke="#343434" points="268,-599.24 119,-599.24 119,-563.24 268,-563.24 268,-599.24"/>
<text text-anchor="middle" x="193.5" y="-577.54" font-family="Courier,monospace" font-size="14.00" fill="#b6ecf3">cv_depot.command</text>
</g>
<!-- cv_depot\.core\.channel -->
<g id="node3" class="node">
<title>cv_depot\.core\.channel</title>
<polygon fill="#343434" stroke="#343434" points="494,-503.24 304,-503.24 304,-467.24 494,-467.24 494,-503.24"/>
<text text-anchor="middle" x="399" y="-481.54" font-family="Courier,monospace" font-size="14.00" fill="#b6ecf3">cv_depot.core.channel</text>
</g>
<!-- cv_depot\.core\.color -->
<g id="node4" class="node">
<title>cv_depot\.core\.color</title>
<polygon fill="#343434" stroke="#343434" points="912,-314.24 739,-314.24 739,-278.24 912,-278.24 912,-314.24"/>
<text text-anchor="middle" x="825.5" y="-292.54" font-family="Courier,monospace" font-size="14.00" fill="#b6ecf3">cv_depot.core.color</text>
</g>
<!-- cv_depot\.core\.enum -->
<g id="node5" class="node">
<title>cv_depot\.core\.enum</title>
<polygon fill="#343434" stroke="#343434" points="481.5,-341.24 316.5,-341.24 316.5,-305.24 481.5,-305.24 481.5,-341.24"/>
<text text-anchor="middle" x="399" y="-319.54" font-family="Courier,monospace" font-size="14.00" fill="#b6ecf3">cv_depot.core.enum</text>
</g>
<!-- cv_depot\.core\.image -->
<g id="node6" class="node">
<title>cv_depot\.core\.image</title>
<polygon fill="#343434" stroke="#343434" points="703,-314.24 530,-314.24 530,-278.24 703,-278.24 703,-314.24"/>
<text text-anchor="middle" x="616.5" y="-292.54" font-family="Courier,monospace" font-size="14.00" fill="#b6ecf3">cv_depot.core.image</text>
</g>
<!-- cv_depot\.core\.enum&#45;&gt;cv_depot\.core\.image -->
<g id="edge1" class="edge">
<title>cv_depot\.core\.enum&#45;&gt;cv_depot\.core\.image</title>
<path fill="none" stroke="#b6ecf3" d="M481.78,-312.99C494.18,-311.44 507.07,-309.82 519.74,-308.24"/>
<polygon fill="#b6ecf3" stroke="#b6ecf3" points="520.35,-311.69 529.83,-306.97 519.48,-304.74 520.35,-311.69"/>
</g>
<!-- cv_depot\.core\.image&#45;&gt;cv_depot\.core\.color -->
<g id="edge2" class="edge">
<title>cv_depot\.core\.image&#45;&gt;cv_depot\.core\.color</title>
<path fill="none" stroke="#b6ecf3" d="M703.19,-296.24C711.66,-296.24 720.3,-296.24 728.87,-296.24"/>
<polygon fill="#b6ecf3" stroke="#b6ecf3" points="728.88,-299.74 738.88,-296.24 728.88,-292.74 728.88,-299.74"/>
</g>
<!-- cv_depot\.core\.tools -->
<g id="node7" class="node">
<title>cv_depot\.core\.tools</title>
<polygon fill="#343434" stroke="#343434" points="485.5,-103.24 312.5,-103.24 312.5,-67.24 485.5,-67.24 485.5,-103.24"/>
<text text-anchor="middle" x="399" y="-81.54" font-family="Courier,monospace" font-size="14.00" fill="#b6ecf3">cv_depot.core.tools</text>
</g>
<!-- cv_depot\.core\.tools&#45;&gt;cv_depot\.core\.image -->
<g id="edge3" class="edge">
<title>cv_depot\.core\.tools&#45;&gt;cv_depot\.core\.image</title>
<path fill="none" stroke="#b6ecf3" d="M479.44,-103.46C484.57,-106.01 489.48,-108.92 494,-112.24 549.87,-153.27 587.49,-228.31 604.72,-268.72"/>
<polygon fill="#b6ecf3" stroke="#b6ecf3" points="601.5,-270.08 608.57,-277.97 607.96,-267.4 601.5,-270.08"/>
</g>
<!-- cv_depot\.core\.viewer -->
<g id="node8" class="node">
<title>cv_depot\.core\.viewer</title>
<polygon fill="#343434" stroke="#343434" points="490,-157.24 308,-157.24 308,-121.24 490,-121.24 490,-157.24"/>
<text text-anchor="middle" x="399" y="-135.54" font-family="Courier,monospace" font-size="14.00" fill="#b6ecf3">cv_depot.core.viewer</text>
</g>
<!-- cv_depot\.core\.viewer&#45;&gt;cv_depot\.core\.image -->
<g id="edge4" class="edge">
<title>cv_depot\.core\.viewer&#45;&gt;cv_depot\.core\.image</title>
<path fill="none" stroke="#b6ecf3" d="M424.72,-157.25C463.59,-185.57 539.03,-240.53 582.49,-272.19"/>
<polygon fill="#b6ecf3" stroke="#b6ecf3" points="580.59,-275.14 590.74,-278.2 584.72,-269.48 580.59,-275.14"/>
</g>
<!-- click -->
<g id="node9" class="node">
<title>click</title>
<polygon fill="#343434" stroke="#343434" points="70.5,-599.24 12.5,-599.24 12.5,-563.24 70.5,-563.24 70.5,-599.24"/>
<text text-anchor="middle" x="41.5" y="-577.54" font-family="Courier,monospace" font-size="14.00" fill="#de958e">click</text>
</g>
<!-- click&#45;&gt;cv_depot\.command -->
<g id="edge5" class="edge">
<title>click&#45;&gt;cv_depot\.command</title>
<path fill="none" stroke="#de958e" d="M70.71,-581.24C81.78,-581.24 95.1,-581.24 108.82,-581.24"/>
<polygon fill="#de958e" stroke="#de958e" points="108.85,-584.74 118.85,-581.24 108.85,-577.74 108.85,-584.74"/>
</g>
<!-- cv_depot -->
<g id="node10" class="node">
<title>cv_depot</title>
<polygon fill="#343434" stroke="#343434" points="83,-393.24 0,-393.24 0,-357.24 83,-357.24 83,-393.24"/>
<text text-anchor="middle" x="41.5" y="-371.54" font-family="Courier,monospace" font-size="14.00" fill="#a0d17b">cv_depot</text>
</g>
<!-- cv_depot&#45;&gt;cv_depot\.command -->
<g id="edge6" class="edge">
<title>cv_depot&#45;&gt;cv_depot\.command</title>
<path fill="none" stroke="#a0d17b" d="M45.37,-393.43C51.94,-429.17 71.33,-508.98 119,-554.24 120.11,-555.29 121.26,-556.3 122.45,-557.28"/>
<polygon fill="#a0d17b" stroke="#a0d17b" points="120.62,-560.27 130.81,-563.16 124.65,-554.54 120.62,-560.27"/>
</g>
<!-- cv_depot\.core -->
<g id="node11" class="node">
<title>cv_depot\.core</title>
<polygon fill="#343434" stroke="#343434" points="255.5,-241.24 131.5,-241.24 131.5,-205.24 255.5,-205.24 255.5,-241.24"/>
<text text-anchor="middle" x="193.5" y="-219.54" font-family="Courier,monospace" font-size="14.00" fill="#a0d17b">cv_depot.core</text>
</g>
<!-- cv_depot&#45;&gt;cv_depot\.core -->
<g id="edge7" class="edge">
<title>cv_depot&#45;&gt;cv_depot\.core</title>
<path fill="none" stroke="#a0d17b" d="M71.94,-356.95C75.78,-354.19 79.57,-351.25 83,-348.24 117.85,-317.69 152.07,-276.27 172.74,-249.65"/>
<polygon fill="#a0d17b" stroke="#a0d17b" points="175.64,-251.62 178.95,-241.55 170.09,-247.35 175.64,-251.62"/>
</g>
<!-- cv_depot\.core&#45;&gt;cv_depot\.core\.channel -->
<g id="edge8" class="edge">
<title>cv_depot\.core&#45;&gt;cv_depot\.core\.channel</title>
<path fill="none" stroke="#a0d17b" d="M197.64,-241.33C206.25,-285.33 234.37,-398.73 304,-458.24 305.33,-459.38 306.71,-460.47 308.12,-461.51"/>
<polygon fill="#a0d17b" stroke="#a0d17b" points="306.32,-464.52 316.62,-467 310.12,-458.64 306.32,-464.52"/>
</g>
<!-- cv_depot\.core&#45;&gt;cv_depot\.core\.color -->
<g id="edge9" class="edge">
<title>cv_depot\.core&#45;&gt;cv_depot\.core\.color</title>
<path fill="none" stroke="#a0d17b" d="M255.58,-219.3C271.35,-218.44 288.3,-217.67 304,-217.24 388.41,-214.93 410.14,-207.35 494,-217.24 586.79,-228.17 691.26,-255.81 757.44,-275.3"/>
<polygon fill="#a0d17b" stroke="#a0d17b" points="756.75,-278.75 767.33,-278.24 758.74,-272.04 756.75,-278.75"/>
</g>
<!-- cv_depot\.core&#45;&gt;cv_depot\.core\.enum -->
<g id="edge10" class="edge">
<title>cv_depot\.core&#45;&gt;cv_depot\.core\.enum</title>
<path fill="none" stroke="#a0d17b" d="M217.18,-241.41C238.5,-257.73 271.87,-281.35 304,-296.24 308.1,-298.14 312.36,-299.93 316.7,-301.63"/>
<polygon fill="#a0d17b" stroke="#a0d17b" points="315.73,-305 326.32,-305.17 318.15,-298.43 315.73,-305"/>
</g>
<!-- cv_depot\.core&#45;&gt;cv_depot\.core\.image -->
<g id="edge11" class="edge">
<title>cv_depot\.core&#45;&gt;cv_depot\.core\.image</title>
<path fill="none" stroke="#a0d17b" d="M255.68,-220.86C316.89,-219.92 413.3,-222.42 494,-242.24 521.88,-249.08 551.35,-262.02 574.28,-273.52"/>
<polygon fill="#a0d17b" stroke="#a0d17b" points="572.87,-276.73 583.36,-278.17 576.05,-270.5 572.87,-276.73"/>
</g>
<!-- cv_depot\.core&#45;&gt;cv_depot\.core\.tools -->
<g id="edge12" class="edge">
<title>cv_depot\.core&#45;&gt;cv_depot\.core\.tools</title>
<path fill="none" stroke="#a0d17b" d="M240.69,-205.06C250.52,-199.72 260.25,-193.13 268,-185.24 293.34,-159.42 276.24,-135.44 304,-112.24 305.39,-111.08 306.82,-109.97 308.3,-108.91"/>
<polygon fill="#a0d17b" stroke="#a0d17b" points="310.56,-111.62 317.16,-103.32 306.83,-105.69 310.56,-111.62"/>
</g>
<!-- cv_depot\.core&#45;&gt;cv_depot\.core\.viewer -->
<g id="edge13" class="edge">
<title>cv_depot\.core&#45;&gt;cv_depot\.core\.viewer</title>
<path fill="none" stroke="#a0d17b" d="M230.04,-205.08C251.24,-194.58 278.85,-181.45 304,-171.24 312.89,-167.63 322.36,-164.07 331.73,-160.72"/>
<polygon fill="#a0d17b" stroke="#a0d17b" points="333.17,-163.93 341.44,-157.31 330.85,-157.33 333.17,-163.93"/>
</g>
<!-- IPython\.display -->
<g id="node12" class="node">
<title>IPython\.display</title>
<polygon fill="#343434" stroke="#343434" points="263.5,-176.24 123.5,-176.24 123.5,-140.24 263.5,-140.24 263.5,-176.24"/>
<text text-anchor="middle" x="193.5" y="-154.54" font-family="Courier,monospace" font-size="14.00" fill="#de958e">IPython.display</text>
</g>
<!-- IPython\.display&#45;&gt;cv_depot\.core\.viewer -->
<g id="edge14" class="edge">
<title>IPython\.display&#45;&gt;cv_depot\.core\.viewer</title>
<path fill="none" stroke="#de958e" d="M263.68,-151.78C274.64,-150.76 286.17,-149.68 297.67,-148.61"/>
<polygon fill="#de958e" stroke="#de958e" points="298.12,-152.08 307.75,-147.66 297.47,-145.11 298.12,-152.08"/>
</g>
<!-- lunchbox\.enforce -->
<g id="node13" class="node">
<title>lunchbox\.enforce</title>
<polygon fill="#343434" stroke="#343434" points="268,-545.24 119,-545.24 119,-509.24 268,-509.24 268,-545.24"/>
<text text-anchor="middle" x="193.5" y="-523.54" font-family="Courier,monospace" font-size="14.00" fill="#de958e">lunchbox.enforce</text>
</g>
<!-- lunchbox\.enforce&#45;&gt;cv_depot\.core\.channel -->
<g id="edge15" class="edge">
<title>lunchbox\.enforce&#45;&gt;cv_depot\.core\.channel</title>
<path fill="none" stroke="#de958e" d="M268.26,-512.02C278.79,-509.84 289.77,-507.58 300.67,-505.33"/>
<polygon fill="#de958e" stroke="#de958e" points="301.56,-508.72 310.65,-503.27 300.15,-501.86 301.56,-508.72"/>
</g>
<!-- lunchbox\.enforce&#45;&gt;cv_depot\.core\.color -->
<g id="edge16" class="edge">
<title>lunchbox\.enforce&#45;&gt;cv_depot\.core\.color</title>
<path fill="none" stroke="#de958e" d="M240.09,-545.29C259.46,-552.04 282.51,-558.89 304,-562.24 387.44,-575.25 410.96,-577.59 494,-562.24 591.8,-544.16 625.59,-544.69 703,-482.24 757.24,-438.48 795.44,-363.83 813.22,-323.7"/>
<polygon fill="#de958e" stroke="#de958e" points="816.54,-324.85 817.3,-314.28 810.12,-322.06 816.54,-324.85"/>
</g>
<!-- lunchbox\.enforce&#45;&gt;cv_depot\.core\.enum -->
<g id="edge17" class="edge">
<title>lunchbox\.enforce&#45;&gt;cv_depot\.core\.enum</title>
<path fill="none" stroke="#de958e" d="M257.86,-509.1C261.58,-506.53 265.02,-503.59 268,-500.24 313.57,-449.02 256.6,-399.78 304,-350.24 305.25,-348.93 306.56,-347.69 307.92,-346.5"/>
<polygon fill="#de958e" stroke="#de958e" points="310.29,-349.1 316.23,-340.33 306.12,-343.48 310.29,-349.1"/>
</g>
<!-- lunchbox\.enforce&#45;&gt;cv_depot\.core\.image -->
<g id="edge18" class="edge">
<title>lunchbox\.enforce&#45;&gt;cv_depot\.core\.image</title>
<path fill="none" stroke="#de958e" d="M246.57,-545.24C310.06,-563.75 418.25,-583.88 494,-537.24 570.9,-489.89 600.87,-377.25 610.99,-324.45"/>
<polygon fill="#de958e" stroke="#de958e" points="614.47,-324.9 612.81,-314.44 607.58,-323.65 614.47,-324.9"/>
</g>
<!-- PIL\.Image -->
<g id="node14" class="node">
<title>PIL\.Image</title>
<polygon fill="#343434" stroke="#343434" points="444.5,-449.24 353.5,-449.24 353.5,-413.24 444.5,-413.24 444.5,-449.24"/>
<text text-anchor="middle" x="399" y="-427.54" font-family="Courier,monospace" font-size="14.00" fill="#de958e">PIL.Image</text>
</g>
<!-- PIL\.Image&#45;&gt;cv_depot\.core\.image -->
<g id="edge19" class="edge">
<title>PIL\.Image&#45;&gt;cv_depot\.core\.image</title>
<path fill="none" stroke="#de958e" d="M444.65,-422.75C460.82,-418.57 478.83,-412.59 494,-404.24 533.27,-382.63 570.57,-346.26 593.24,-321.77"/>
<polygon fill="#de958e" stroke="#de958e" points="595.92,-324.02 600.07,-314.27 590.75,-319.31 595.92,-324.02"/>
</g>
<!-- ipywidgets -->
<g id="node15" class="node">
<title>ipywidgets</title>
<polygon fill="#343434" stroke="#343434" points="243,-122.24 144,-122.24 144,-86.24 243,-86.24 243,-122.24"/>
<text text-anchor="middle" x="193.5" y="-100.54" font-family="Courier,monospace" font-size="14.00" fill="#de958e">ipywidgets</text>
</g>
<!-- ipywidgets&#45;&gt;cv_depot\.core\.viewer -->
<g id="edge20" class="edge">
<title>ipywidgets&#45;&gt;cv_depot\.core\.viewer</title>
<path fill="none" stroke="#de958e" d="M243.24,-112.62C259.76,-115.46 278.87,-118.75 297.9,-122.02"/>
<polygon fill="#de958e" stroke="#de958e" points="297.39,-125.49 307.84,-123.73 298.57,-118.59 297.39,-125.49"/>
</g>
<!-- numpy -->
<g id="node16" class="node">
<title>numpy</title>
<polygon fill="#343434" stroke="#343434" points="222.5,-491.24 164.5,-491.24 164.5,-455.24 222.5,-455.24 222.5,-491.24"/>
<text text-anchor="middle" x="193.5" y="-469.54" font-family="Courier,monospace" font-size="14.00" fill="#de958e">numpy</text>
</g>
<!-- numpy&#45;&gt;cv_depot\.core\.color -->
<g id="edge21" class="edge">
<title>numpy&#45;&gt;cv_depot\.core\.color</title>
<path fill="none" stroke="#de958e" d="M222.75,-480.38C237.03,-484.76 254.2,-491.29 268,-500.24 287.25,-512.73 282.86,-528.31 304,-537.24 381.79,-570.09 413.71,-563.4 494,-537.24 626.94,-493.92 750.89,-374.67 801.04,-321.92"/>
<polygon fill="#de958e" stroke="#de958e" points="803.87,-324.02 808.17,-314.34 798.77,-319.23 803.87,-324.02"/>
</g>
<!-- numpy&#45;&gt;cv_depot\.core\.enum -->
<g id="edge22" class="edge">
<title>numpy&#45;&gt;cv_depot\.core\.enum</title>
<path fill="none" stroke="#de958e" d="M205.91,-454.85C223.6,-427.87 260.2,-377.79 304,-350.24 306.49,-348.67 309.08,-347.19 311.73,-345.8"/>
<polygon fill="#de958e" stroke="#de958e" points="313.49,-348.84 321,-341.37 310.47,-342.52 313.49,-348.84"/>
</g>
<!-- numpy&#45;&gt;cv_depot\.core\.image -->
<g id="edge23" class="edge">
<title>numpy&#45;&gt;cv_depot\.core\.image</title>
<path fill="none" stroke="#de958e" d="M222.66,-483.54C253.7,-494.85 299.81,-511.52 304,-512.24 387.21,-526.61 421.11,-554.87 494,-512.24 564.24,-471.16 597.01,-372.89 609.34,-324.35"/>
<polygon fill="#de958e" stroke="#de958e" points="612.77,-325.05 611.73,-314.51 605.97,-323.4 612.77,-325.05"/>
</g>
<!-- numpy\.typing -->
<g id="node17" class="node">
<title>numpy\.typing</title>
<polygon fill="#343434" stroke="#343434" points="251.5,-57.24 135.5,-57.24 135.5,-21.24 251.5,-21.24 251.5,-57.24"/>
<text text-anchor="middle" x="193.5" y="-35.54" font-family="Courier,monospace" font-size="14.00" fill="#de958e">numpy.typing</text>
</g>
<!-- numpy\.typing&#45;&gt;cv_depot\.core\.color -->
<g id="edge24" class="edge">
<title>numpy\.typing&#45;&gt;cv_depot\.core\.color</title>
<path fill="none" stroke="#de958e" d="M251.06,-21.21C312.76,-4.63 413.46,13.29 494,-16.24 635.66,-68.18 758.27,-210.69 804.69,-269.9"/>
<polygon fill="#de958e" stroke="#de958e" points="802.08,-272.25 810.98,-278.01 807.61,-267.96 802.08,-272.25"/>
</g>
<!-- numpy\.typing&#45;&gt;cv_depot\.core\.image -->
<g id="edge25" class="edge">
<title>numpy\.typing&#45;&gt;cv_depot\.core\.image</title>
<path fill="none" stroke="#de958e" d="M251.56,-27.21C315.98,-16.94 421.27,-10.48 494,-58.24 568.4,-107.1 599.52,-216.39 610.45,-268.1"/>
<polygon fill="#de958e" stroke="#de958e" points="607.08,-269.1 612.48,-278.22 613.95,-267.72 607.08,-269.1"/>
</g>
<!-- numpy\.typing&#45;&gt;cv_depot\.core\.tools -->
<g id="edge26" class="edge">
<title>numpy\.typing&#45;&gt;cv_depot\.core\.tools</title>
<path fill="none" stroke="#de958e" d="M251.73,-52.17C269.25,-56.13 288.96,-60.59 308.1,-64.92"/>
<polygon fill="#de958e" stroke="#de958e" points="307.52,-68.38 318.05,-67.17 309.07,-61.55 307.52,-68.38"/>
</g>
<!-- openexr_tools\.enum -->
<g id="node18" class="node">
<title>openexr_tools\.enum</title>
<polygon fill="#343434" stroke="#343434" points="481.5,-395.24 316.5,-395.24 316.5,-359.24 481.5,-359.24 481.5,-395.24"/>
<text text-anchor="middle" x="399" y="-373.54" font-family="Courier,monospace" font-size="14.00" fill="#de958e">openexr_tools.enum</text>
</g>
<!-- openexr_tools\.enum&#45;&gt;cv_depot\.core\.image -->
<g id="edge27" class="edge">
<title>openexr_tools\.enum&#45;&gt;cv_depot\.core\.image</title>
<path fill="none" stroke="#de958e" d="M467.12,-359.19C476.22,-356.39 485.38,-353.37 494,-350.24 519.34,-341.02 546.85,-328.97 569.28,-318.59"/>
<polygon fill="#de958e" stroke="#de958e" points="570.98,-321.66 578.56,-314.26 568.01,-315.32 570.98,-321.66"/>
</g>
<!-- openexr_tools\.tools -->
<g id="node19" class="node">
<title>openexr_tools\.tools</title>
<polygon fill="#343434" stroke="#343434" points="485.5,-287.24 312.5,-287.24 312.5,-251.24 485.5,-251.24 485.5,-287.24"/>
<text text-anchor="middle" x="399" y="-265.54" font-family="Courier,monospace" font-size="14.00" fill="#de958e">openexr_tools.tools</text>
</g>
<!-- openexr_tools\.tools&#45;&gt;cv_depot\.core\.image -->
<g id="edge28" class="edge">
<title>openexr_tools\.tools&#45;&gt;cv_depot\.core\.image</title>
<path fill="none" stroke="#de958e" d="M485.79,-279.99C496.84,-281.37 508.22,-282.8 519.42,-284.2"/>
<polygon fill="#de958e" stroke="#de958e" points="519.3,-287.71 529.65,-285.48 520.17,-280.77 519.3,-287.71"/>
</g>
</g>
</svg>
