<?xml version="1.0" encoding="UTF-8" standalone="no"?>
<!DOCTYPE svg PUBLIC "-//W3C//DTD SVG 1.1//EN"
 "http://www.w3.org/Graphics/SVG/1.1/DTD/svg11.dtd">
<!-- Generated by graphviz version 2.43.0 (0)
 -->
<!-- Title: %3 Pages: 1 -->
<svg width="477pt" height="206pt"
 viewBox="0.00 0.00 477.00 206.00" xmlns="http://www.w3.org/2000/svg" xmlns:xlink="http://www.w3.org/1999/xlink">
<g id="graph0" class="graph" transform="scale(1 1) rotate(0) translate(4 202)">
<title>%3</title>
<polygon fill="#242424" stroke="transparent" points="-4,4 -4,-202 473,-202 473,4 -4,4"/>
<!-- cli -->
<g id="node1" class="node">
<title>cli</title>
<polygon fill="#343434" stroke="#343434" points="68.5,-90 14.5,-90 14.5,-54 68.5,-54 68.5,-90"/>
<text text-anchor="middle" x="41.5" y="-68.3" font-family="Courier,monospace" font-size="14.00" fill="#b6ecf3">cli</text>
</g>
<!-- cv_tools\.command -->
<g id="node2" class="node">
<title>cv_tools\.command</title>
<polygon fill="#343434" stroke="#343434" points="268,-198 119,-198 119,-162 268,-162 268,-198"/>
<text text-anchor="middle" x="193.5" y="-176.3" font-family="Courier,monospace" font-size="14.00" fill="#b6ecf3">cv_tools.command</text>
</g>
<!-- cv_tools\.core\.enum -->
<g id="node3" class="node">
<title>cv_tools\.core\.enum</title>
<polygon fill="#343434" stroke="#343434" points="469,-90 304,-90 304,-54 469,-54 469,-90"/>
<text text-anchor="middle" x="386.5" y="-68.3" font-family="Courier,monospace" font-size="14.00" fill="#b6ecf3">cv_tools.core.enum</text>
</g>
<!-- cv_tools -->
<g id="node4" class="node">
<title>cv_tools</title>
<polygon fill="#343434" stroke="#343434" points="83,-144 0,-144 0,-108 83,-108 83,-144"/>
<text text-anchor="middle" x="41.5" y="-122.3" font-family="Courier,monospace" font-size="14.00" fill="#a0d17b">cv_tools</text>
</g>
<!-- cv_tools&#45;&gt;cv_tools\.command -->
<g id="edge1" class="edge">
<title>cv_tools&#45;&gt;cv_tools\.command</title>
<path fill="none" stroke="#a0d17b" d="M83.09,-140.61C98.32,-146.1 115.97,-152.45 132.59,-158.43"/>
<polygon fill="#a0d17b" stroke="#a0d17b" points="131.63,-161.81 142.23,-161.9 134,-155.22 131.63,-161.81"/>
</g>
<!-- cv_tools\.core -->
<g id="node6" class="node">
<title>cv_tools\.core</title>
<polygon fill="#343434" stroke="#343434" points="255.5,-144 131.5,-144 131.5,-108 255.5,-108 255.5,-144"/>
<text text-anchor="middle" x="193.5" y="-122.3" font-family="Courier,monospace" font-size="14.00" fill="#a0d17b">cv_tools.core</text>
</g>
<!-- cv_tools&#45;&gt;cv_tools\.core -->
<g id="edge2" class="edge">
<title>cv_tools&#45;&gt;cv_tools\.core</title>
<path fill="none" stroke="#a0d17b" d="M83.09,-126C94.8,-126 107.93,-126 120.93,-126"/>
<polygon fill="#a0d17b" stroke="#a0d17b" points="121.3,-129.5 131.3,-126 121.3,-122.5 121.3,-129.5"/>
</g>
<!-- click -->
<g id="node5" class="node">
<title>click</title>
<polygon fill="#343434" stroke="#343434" points="70.5,-198 12.5,-198 12.5,-162 70.5,-162 70.5,-198"/>
<text text-anchor="middle" x="41.5" y="-176.3" font-family="Courier,monospace" font-size="14.00" fill="#de958e">click</text>
</g>
<!-- click&#45;&gt;cv_tools\.command -->
<g id="edge3" class="edge">
<title>click&#45;&gt;cv_tools\.command</title>
<path fill="none" stroke="#de958e" d="M70.71,-180C81.78,-180 95.1,-180 108.82,-180"/>
<polygon fill="#de958e" stroke="#de958e" points="108.85,-183.5 118.85,-180 108.85,-176.5 108.85,-183.5"/>
</g>
<!-- cv_tools\.core&#45;&gt;cv_tools\.core\.enum -->
<g id="edge4" class="edge">
<title>cv_tools\.core&#45;&gt;cv_tools\.core\.enum</title>
<path fill="none" stroke="#a0d17b" d="M255.72,-108.69C273.57,-103.64 293.27,-98.08 311.8,-92.84"/>
<polygon fill="#a0d17b" stroke="#a0d17b" points="313,-96.14 321.67,-90.05 311.09,-89.4 313,-96.14"/>
</g>
<!-- lunchbox\.enforce -->
<g id="node7" class="node">
<title>lunchbox\.enforce</title>
<polygon fill="#343434" stroke="#343434" points="268,-90 119,-90 119,-54 268,-54 268,-90"/>
<text text-anchor="middle" x="193.5" y="-68.3" font-family="Courier,monospace" font-size="14.00" fill="#de958e">lunchbox.enforce</text>
</g>
<!-- lunchbox\.enforce&#45;&gt;cv_tools\.core\.enum -->
<g id="edge5" class="edge">
<title>lunchbox\.enforce&#45;&gt;cv_tools\.core\.enum</title>
<path fill="none" stroke="#de958e" d="M268.07,-72C276.46,-72 285.08,-72 293.66,-72"/>
<polygon fill="#de958e" stroke="#de958e" points="293.7,-75.5 303.7,-72 293.7,-68.5 293.7,-75.5"/>
</g>
<!-- numpy -->
<g id="node8" class="node">
<title>numpy</title>
<polygon fill="#343434" stroke="#343434" points="222.5,-36 164.5,-36 164.5,0 222.5,0 222.5,-36"/>
<text text-anchor="middle" x="193.5" y="-14.3" font-family="Courier,monospace" font-size="14.00" fill="#de958e">numpy</text>
</g>
<!-- numpy&#45;&gt;cv_tools\.core\.enum -->
<g id="edge6" class="edge">
<title>numpy&#45;&gt;cv_tools\.core\.enum</title>
<path fill="none" stroke="#de958e" d="M222.68,-25.97C246.09,-32.59 280.48,-42.31 311.63,-51.11"/>
<polygon fill="#de958e" stroke="#de958e" points="311.03,-54.58 321.61,-53.94 312.94,-47.85 311.03,-54.58"/>
</g>
</g>
</svg>
