<?xml version="1.0" encoding="UTF-8" standalone="no"?>
<!DOCTYPE svg PUBLIC "-//W3C//DTD SVG 1.1//EN"
 "http://www.w3.org/Graphics/SVG/1.1/DTD/svg11.dtd">
<!-- Generated by graphviz version 2.43.0 (0)
 -->
<!-- Title: %3 Pages: 1 -->
<svg width="1783pt" height="1466pt"
 viewBox="0.00 0.00 1783.00 1466.34" xmlns="http://www.w3.org/2000/svg" xmlns:xlink="http://www.w3.org/1999/xlink">
<g id="graph0" class="graph" transform="scale(1 1) rotate(0) translate(4 1462.34)">
<title>%3</title>
<polygon fill="#242424" stroke="transparent" points="-4,4 -4,-1462.34 1779,-1462.34 1779,4 -4,4"/>
<!-- cli -->
<g id="node1" class="node">
<title>cli</title>
<polygon fill="#343434" stroke="#343434" points="68.5,-83.37 14.5,-83.37 14.5,-47.37 68.5,-47.37 68.5,-83.37"/>
<text text-anchor="middle" x="41.5" y="-61.67" font-family="Courier,monospace" font-size="14.00" fill="#b6ecf3">cli</text>
</g>
<!-- cv_depot\.api -->
<g id="node2" class="node">
<title>cv_depot\.api</title>
<polygon fill="#343434" stroke="#343434" points="1356,-990.37 1240,-990.37 1240,-954.37 1356,-954.37 1356,-990.37"/>
<text text-anchor="middle" x="1298" y="-968.67" font-family="Courier,monospace" font-size="14.00" fill="#b6ecf3">cv_depot.api</text>
</g>
<!-- cv_depot\.command -->
<g id="node3" class="node">
<title>cv_depot\.command</title>
<polygon fill="#343434" stroke="#343434" points="268,-137.37 119,-137.37 119,-101.37 268,-101.37 268,-137.37"/>
<text text-anchor="middle" x="193.5" y="-115.67" font-family="Courier,monospace" font-size="14.00" fill="#b6ecf3">cv_depot.command</text>
</g>
<!-- cv_depot\.core\.channel_map -->
<g id="node4" class="node">
<title>cv_depot\.core\.channel_map</title>
<polygon fill="#343434" stroke="#343434" points="1171,-1277.37 948,-1277.37 948,-1241.37 1171,-1241.37 1171,-1277.37"/>
<text text-anchor="middle" x="1059.5" y="-1255.67" font-family="Courier,monospace" font-size="14.00" fill="#b6ecf3">cv_depot.core.channel_map</text>
</g>
<!-- cv_depot\.core\.channel_map&#45;&gt;cv_depot\.api -->
<g id="edge1" class="edge">
<title>cv_depot\.core\.channel_map&#45;&gt;cv_depot\.api</title>
<path fill="none" stroke="#b6ecf3" d="M1157.62,-1241.25C1162.35,-1238.67 1166.85,-1235.72 1171,-1232.37 1246.53,-1171.34 1279.88,-1053.93 1291.65,-1000.31"/>
<polygon fill="#b6ecf3" stroke="#b6ecf3" points="1295.09,-1000.98 1293.73,-990.47 1288.24,-999.54 1295.09,-1000.98"/>
</g>
<!-- cv_depot\.ops\.channel -->
<g id="node13" class="node">
<title>cv_depot\.ops\.channel</title>
<polygon fill="#343434" stroke="#343434" points="1389,-738.37 1207,-738.37 1207,-702.37 1389,-702.37 1389,-738.37"/>
<text text-anchor="middle" x="1298" y="-716.67" font-family="Courier,monospace" font-size="14.00" fill="#b6ecf3">cv_depot.ops.channel</text>
</g>
<!-- cv_depot\.core\.channel_map&#45;&gt;cv_depot\.ops\.channel -->
<g id="edge2" class="edge">
<title>cv_depot\.core\.channel_map&#45;&gt;cv_depot\.ops\.channel</title>
<path fill="none" stroke="#b6ecf3" d="M1161.45,-1241.07C1164.9,-1238.5 1168.11,-1235.62 1171,-1232.37 1213.77,-1184.39 1190.93,-1007.61 1207,-945.37 1226.08,-871.46 1263.33,-789.28 1283.4,-747.69"/>
<polygon fill="#b6ecf3" stroke="#b6ecf3" points="1286.65,-749.02 1287.88,-738.5 1280.36,-745.96 1286.65,-749.02"/>
</g>
<!-- cv_depot\.ops\.draw -->
<g id="node14" class="node">
<title>cv_depot\.ops\.draw</title>
<polygon fill="#343434" stroke="#343434" points="1582,-706.37 1425,-706.37 1425,-670.37 1582,-670.37 1582,-706.37"/>
<text text-anchor="middle" x="1503.5" y="-684.67" font-family="Courier,monospace" font-size="14.00" fill="#b6ecf3">cv_depot.ops.draw</text>
</g>
<!-- cv_depot\.core\.channel_map&#45;&gt;cv_depot\.ops\.draw -->
<g id="edge3" class="edge">
<title>cv_depot\.core\.channel_map&#45;&gt;cv_depot\.ops\.draw</title>
<path fill="none" stroke="#b6ecf3" d="M1146.8,-1241.31C1155.11,-1238.68 1163.3,-1235.71 1171,-1232.37 1277.12,-1186.44 1320.47,-1183.51 1389,-1090.37 1476.5,-971.44 1496.61,-787.4 1501.18,-717.05"/>
<polygon fill="#b6ecf3" stroke="#b6ecf3" points="1504.69,-716.95 1501.79,-706.76 1497.7,-716.54 1504.69,-716.95"/>
</g>
<!-- cv_depot\.core\.color -->
<g id="node5" class="node">
<title>cv_depot\.core\.color</title>
<polygon fill="#343434" stroke="#343434" points="703,-730.37 530,-730.37 530,-694.37 703,-694.37 703,-730.37"/>
<text text-anchor="middle" x="616.5" y="-708.67" font-family="Courier,monospace" font-size="14.00" fill="#b6ecf3">cv_depot.core.color</text>
</g>
<!-- cv_depot\.core\.color&#45;&gt;cv_depot\.api -->
<g id="edge4" class="edge">
<title>cv_depot\.core\.color&#45;&gt;cv_depot\.api</title>
<path fill="none" stroke="#b6ecf3" d="M658.35,-730.43C681.83,-740.67 711.95,-753.55 739,-764.37 833.86,-802.33 1114.86,-905.66 1238.03,-950.79"/>
<polygon fill="#b6ecf3" stroke="#b6ecf3" points="1237.09,-954.18 1247.68,-954.33 1239.49,-947.6 1237.09,-954.18"/>
</g>
<!-- cv_depot\.core\.types -->
<g id="node10" class="node">
<title>cv_depot\.core\.types</title>
<polygon fill="#343434" stroke="#343434" points="912,-608.37 739,-608.37 739,-572.37 912,-572.37 912,-608.37"/>
<text text-anchor="middle" x="825.5" y="-586.67" font-family="Courier,monospace" font-size="14.00" fill="#b6ecf3">cv_depot.core.types</text>
</g>
<!-- cv_depot\.core\.color&#45;&gt;cv_depot\.core\.types -->
<g id="edge5" class="edge">
<title>cv_depot\.core\.color&#45;&gt;cv_depot\.core\.types</title>
<path fill="none" stroke="#b6ecf3" d="M638.22,-694.18C661.47,-674.46 700.94,-643.06 739,-622.37 745.51,-618.83 752.49,-615.52 759.56,-612.47"/>
<polygon fill="#b6ecf3" stroke="#b6ecf3" points="761.31,-615.53 769.21,-608.47 758.64,-609.06 761.31,-615.53"/>
</g>
<!-- cv_depot\.core\.color&#45;&gt;cv_depot\.ops\.channel -->
<g id="edge6" class="edge">
<title>cv_depot\.core\.color&#45;&gt;cv_depot\.ops\.channel</title>
<path fill="none" stroke="#b6ecf3" d="M703.21,-713.38C829,-714.86 1063.11,-717.62 1196.72,-719.19"/>
<polygon fill="#b6ecf3" stroke="#b6ecf3" points="1196.91,-722.69 1206.95,-719.31 1196.99,-715.69 1196.91,-722.69"/>
</g>
<!-- cv_depot\.core\.color&#45;&gt;cv_depot\.ops\.draw -->
<g id="edge7" class="edge">
<title>cv_depot\.core\.color&#45;&gt;cv_depot\.ops\.draw</title>
<path fill="none" stroke="#b6ecf3" d="M703.4,-709.19C818.16,-705.04 1027.86,-697.77 1207,-693.37 1276.68,-691.66 1355.62,-690.36 1414.37,-689.51"/>
<polygon fill="#b6ecf3" stroke="#b6ecf3" points="1414.77,-693.01 1424.72,-689.36 1414.67,-686.01 1414.77,-693.01"/>
</g>
<!-- cv_depot\.ops\.edit -->
<g id="node15" class="node">
<title>cv_depot\.ops\.edit</title>
<polygon fill="#343434" stroke="#343434" points="1775,-752.37 1618,-752.37 1618,-716.37 1775,-716.37 1775,-752.37"/>
<text text-anchor="middle" x="1696.5" y="-730.67" font-family="Courier,monospace" font-size="14.00" fill="#b6ecf3">cv_depot.ops.edit</text>
</g>
<!-- cv_depot\.core\.color&#45;&gt;cv_depot\.ops\.edit -->
<g id="edge8" class="edge">
<title>cv_depot\.core\.color&#45;&gt;cv_depot\.ops\.edit</title>
<path fill="none" stroke="#b6ecf3" d="M703.02,-724.62C715.08,-726.06 727.34,-727.37 739,-728.37 1026.95,-753.13 1100.05,-753.5 1389,-747.37 1462.77,-745.81 1546.46,-742.13 1607.72,-739.08"/>
<polygon fill="#b6ecf3" stroke="#b6ecf3" points="1607.93,-742.58 1617.74,-738.58 1607.58,-735.59 1607.93,-742.58"/>
</g>
<!-- cv_depot\.ops\.filter -->
<g id="node16" class="node">
<title>cv_depot\.ops\.filter</title>
<polygon fill="#343434" stroke="#343434" points="1384.5,-570.37 1211.5,-570.37 1211.5,-534.37 1384.5,-534.37 1384.5,-570.37"/>
<text text-anchor="middle" x="1298" y="-548.67" font-family="Courier,monospace" font-size="14.00" fill="#b6ecf3">cv_depot.ops.filter</text>
</g>
<!-- cv_depot\.core\.color&#45;&gt;cv_depot\.ops\.filter -->
<g id="edge9" class="edge">
<title>cv_depot\.core\.color&#45;&gt;cv_depot\.ops\.filter</title>
<path fill="none" stroke="#b6ecf3" d="M655.46,-694.25C679.12,-683.44 710.4,-669.98 739,-660.37 814.11,-635.15 852.47,-669.66 912,-617.37 944.99,-588.4 911.73,-550.12 948,-525.37 1029.86,-469.5 1072.44,-514.93 1171,-525.37 1185.46,-526.9 1200.7,-529.4 1215.39,-532.27"/>
<polygon fill="#b6ecf3" stroke="#b6ecf3" points="1214.96,-535.75 1225.46,-534.31 1216.35,-528.89 1214.96,-535.75"/>
</g>
<!-- cv_depot\.core\.enforce -->
<g id="node6" class="node">
<title>cv_depot\.core\.enforce</title>
<polygon fill="#343434" stroke="#343434" points="494,-1191.37 304,-1191.37 304,-1155.37 494,-1155.37 494,-1191.37"/>
<text text-anchor="middle" x="399" y="-1169.67" font-family="Courier,monospace" font-size="14.00" fill="#b6ecf3">cv_depot.core.enforce</text>
</g>
<!-- cv_depot\.core\.enforce&#45;&gt;cv_depot\.ops\.edit -->
<g id="edge10" class="edge">
<title>cv_depot\.core\.enforce&#45;&gt;cv_depot\.ops\.edit</title>
<path fill="none" stroke="#b6ecf3" d="M440.61,-1191.41C556.82,-1240.47 899.76,-1367.4 1171,-1286.37 1384.47,-1222.6 1444.13,-1174.39 1582,-999.37 1641.25,-924.15 1675.33,-813.36 1688.77,-762.17"/>
<polygon fill="#b6ecf3" stroke="#b6ecf3" points="1692.17,-763.03 1691.26,-752.47 1685.39,-761.29 1692.17,-763.03"/>
</g>
<!-- cv_depot\.core\.enum -->
<g id="node7" class="node">
<title>cv_depot\.core\.enum</title>
<polygon fill="#343434" stroke="#343434" points="481.5,-827.37 316.5,-827.37 316.5,-791.37 481.5,-791.37 481.5,-827.37"/>
<text text-anchor="middle" x="399" y="-805.67" font-family="Courier,monospace" font-size="14.00" fill="#b6ecf3">cv_depot.core.enum</text>
</g>
<!-- cv_depot\.core\.enum&#45;&gt;cv_depot\.api -->
<g id="edge11" class="edge">
<title>cv_depot\.core\.enum&#45;&gt;cv_depot\.api</title>
<path fill="none" stroke="#b6ecf3" d="M427.1,-827.57C452.53,-843.69 492.22,-866.48 530,-878.37 660.15,-919.34 1067.71,-954.55 1229.67,-967.29"/>
<polygon fill="#b6ecf3" stroke="#b6ecf3" points="1229.73,-970.8 1239.98,-968.09 1230.28,-963.82 1229.73,-970.8"/>
</g>
<!-- cv_depot\.core\.enum&#45;&gt;cv_depot\.core\.color -->
<g id="edge12" class="edge">
<title>cv_depot\.core\.enum&#45;&gt;cv_depot\.core\.color</title>
<path fill="none" stroke="#b6ecf3" d="M440.03,-791.35C475.6,-775.34 527.73,-751.88 565.93,-734.69"/>
<polygon fill="#b6ecf3" stroke="#b6ecf3" points="567.64,-737.75 575.32,-730.46 564.77,-731.37 567.64,-737.75"/>
</g>
<!-- cv_depot\.core\.image -->
<g id="node8" class="node">
<title>cv_depot\.core\.image</title>
<polygon fill="#343434" stroke="#343434" points="1146,-478.37 973,-478.37 973,-442.37 1146,-442.37 1146,-478.37"/>
<text text-anchor="middle" x="1059.5" y="-456.67" font-family="Courier,monospace" font-size="14.00" fill="#b6ecf3">cv_depot.core.image</text>
</g>
<!-- cv_depot\.core\.enum&#45;&gt;cv_depot\.core\.image -->
<g id="edge13" class="edge">
<title>cv_depot\.core\.enum&#45;&gt;cv_depot\.core\.image</title>
<path fill="none" stroke="#b6ecf3" d="M406.76,-791.24C422.24,-752.24 464.12,-660.07 530,-612.37 672.52,-509.18 744.88,-563.45 912,-508.37 928.3,-503 931.79,-500.01 948,-494.37 960.61,-489.99 974.14,-485.58 987.24,-481.47"/>
<polygon fill="#b6ecf3" stroke="#b6ecf3" points="988.65,-484.69 997.16,-478.38 986.57,-478.01 988.65,-484.69"/>
</g>
<!-- cv_depot\.core\.enum&#45;&gt;cv_depot\.core\.types -->
<g id="edge14" class="edge">
<title>cv_depot\.core\.enum&#45;&gt;cv_depot\.core\.types</title>
<path fill="none" stroke="#b6ecf3" d="M414.44,-791.11C436.59,-764.28 481.49,-714.25 530,-685.37 591.55,-648.74 668.87,-624.49 728.84,-609.67"/>
<polygon fill="#b6ecf3" stroke="#b6ecf3" points="729.79,-613.04 738.69,-607.28 728.14,-606.24 729.79,-613.04"/>
</g>
<!-- cv_depot\.core\.video -->
<g id="node11" class="node">
<title>cv_depot\.core\.video</title>
<polygon fill="#343434" stroke="#343434" points="1146,-1034.37 973,-1034.37 973,-998.37 1146,-998.37 1146,-1034.37"/>
<text text-anchor="middle" x="1059.5" y="-1012.67" font-family="Courier,monospace" font-size="14.00" fill="#b6ecf3">cv_depot.core.video</text>
</g>
<!-- cv_depot\.core\.enum&#45;&gt;cv_depot\.core\.video -->
<g id="edge15" class="edge">
<title>cv_depot\.core\.enum&#45;&gt;cv_depot\.core\.video</title>
<path fill="none" stroke="#b6ecf3" d="M416.11,-827.39C438.93,-851.68 483.14,-894.44 530,-916.37 605.42,-951.68 832.27,-986.33 962.95,-1004.1"/>
<polygon fill="#b6ecf3" stroke="#b6ecf3" points="962.58,-1007.58 972.96,-1005.45 963.52,-1000.64 962.58,-1007.58"/>
</g>
<!-- cv_depot\.core\.enum&#45;&gt;cv_depot\.ops\.channel -->
<g id="edge16" class="edge">
<title>cv_depot\.core\.enum&#45;&gt;cv_depot\.ops\.channel</title>
<path fill="none" stroke="#b6ecf3" d="M481.58,-801.28C646.17,-784.95 1017.51,-748.1 1196.63,-730.33"/>
<polygon fill="#b6ecf3" stroke="#b6ecf3" points="1197.24,-733.79 1206.84,-729.32 1196.55,-726.82 1197.24,-733.79"/>
</g>
<!-- cv_depot\.core\.enum&#45;&gt;cv_depot\.ops\.edit -->
<g id="edge17" class="edge">
<title>cv_depot\.core\.enum&#45;&gt;cv_depot\.ops\.edit</title>
<path fill="none" stroke="#b6ecf3" d="M481.77,-826.32C566.95,-842.48 704.48,-864.37 824.5,-864.37 824.5,-864.37 824.5,-864.37 1299,-864.37 1434.89,-864.37 1584.51,-794.58 1654.79,-757.27"/>
<polygon fill="#b6ecf3" stroke="#b6ecf3" points="1656.61,-760.26 1663.77,-752.45 1653.3,-754.09 1656.61,-760.26"/>
</g>
<!-- cv_depot\.core\.image&#45;&gt;cv_depot\.api -->
<g id="edge18" class="edge">
<title>cv_depot\.core\.image&#45;&gt;cv_depot\.api</title>
<path fill="none" stroke="#b6ecf3" d="M1110.7,-478.44C1132.58,-488.85 1156.49,-504.15 1171,-525.37 1227.43,-607.87 1180.28,-651.05 1207,-747.37 1227.41,-820.93 1264.1,-903.25 1283.74,-944.96"/>
<polygon fill="#b6ecf3" stroke="#b6ecf3" points="1280.67,-946.65 1288.12,-954.18 1286.99,-943.65 1280.67,-946.65"/>
</g>
<!-- cv_depot\.core\.image&#45;&gt;cv_depot\.ops\.channel -->
<g id="edge19" class="edge">
<title>cv_depot\.core\.image&#45;&gt;cv_depot\.ops\.channel</title>
<path fill="none" stroke="#b6ecf3" d="M1101.12,-478.48C1123.46,-489.79 1150.68,-505.89 1171,-525.37 1174.56,-528.78 1246.29,-640.91 1279.9,-693.56"/>
<polygon fill="#b6ecf3" stroke="#b6ecf3" points="1277,-695.52 1285.33,-702.07 1282.9,-691.76 1277,-695.52"/>
</g>
<!-- cv_depot\.core\.image&#45;&gt;cv_depot\.ops\.draw -->
<g id="edge20" class="edge">
<title>cv_depot\.core\.image&#45;&gt;cv_depot\.ops\.draw</title>
<path fill="none" stroke="#b6ecf3" d="M1146.07,-469.95C1229.62,-480.6 1349.77,-499.73 1389,-525.37 1440.14,-558.8 1474.86,-624.03 1491.39,-661.03"/>
<polygon fill="#b6ecf3" stroke="#b6ecf3" points="1488.19,-662.45 1495.38,-670.23 1494.61,-659.67 1488.19,-662.45"/>
</g>
<!-- cv_depot\.core\.image&#45;&gt;cv_depot\.ops\.edit -->
<g id="edge21" class="edge">
<title>cv_depot\.core\.image&#45;&gt;cv_depot\.ops\.edit</title>
<path fill="none" stroke="#b6ecf3" d="M1146.3,-449.89C1214.48,-444.97 1311.01,-445.75 1389,-476.37 1517.09,-526.67 1630.26,-653.32 1675.06,-708.26"/>
<polygon fill="#b6ecf3" stroke="#b6ecf3" points="1672.41,-710.55 1681.42,-716.14 1677.86,-706.16 1672.41,-710.55"/>
</g>
<!-- cv_depot\.core\.image&#45;&gt;cv_depot\.ops\.filter -->
<g id="edge22" class="edge">
<title>cv_depot\.core\.image&#45;&gt;cv_depot\.ops\.filter</title>
<path fill="none" stroke="#b6ecf3" d="M1135.81,-478.4C1147.85,-482.35 1159.96,-486.99 1171,-492.37 1188.74,-501.02 1189.62,-509.03 1207,-518.37 1215.1,-522.73 1223.88,-526.78 1232.68,-530.47"/>
<polygon fill="#b6ecf3" stroke="#b6ecf3" points="1231.61,-533.81 1242.19,-534.31 1234.23,-527.32 1231.61,-533.81"/>
</g>
<!-- cv_depot\.core\.tools -->
<g id="node9" class="node">
<title>cv_depot\.core\.tools</title>
<polygon fill="#343434" stroke="#343434" points="703,-426.37 530,-426.37 530,-390.37 703,-390.37 703,-426.37"/>
<text text-anchor="middle" x="616.5" y="-404.67" font-family="Courier,monospace" font-size="14.00" fill="#b6ecf3">cv_depot.core.tools</text>
</g>
<!-- cv_depot\.core\.tools&#45;&gt;cv_depot\.core\.image -->
<g id="edge23" class="edge">
<title>cv_depot\.core\.tools&#45;&gt;cv_depot\.core\.image</title>
<path fill="none" stroke="#b6ecf3" d="M629.42,-390.3C648.66,-362.97 689.46,-312.22 739,-292.37 810.37,-263.77 842.01,-260.54 912,-292.37 975.92,-321.44 1022.83,-393.71 1044.73,-433.33"/>
<polygon fill="#b6ecf3" stroke="#b6ecf3" points="1041.68,-435.05 1049.51,-442.19 1047.84,-431.72 1041.68,-435.05"/>
</g>
<!-- cv_depot\.core\.types&#45;&gt;cv_depot\.core\.image -->
<g id="edge24" class="edge">
<title>cv_depot\.core\.types&#45;&gt;cv_depot\.core\.image</title>
<path fill="none" stroke="#b6ecf3" d="M890.56,-572.31C898.27,-568.48 905.66,-563.88 912,-558.37 937.23,-536.47 921.95,-513.3 948,-492.37 952.74,-488.57 957.91,-485.21 963.35,-482.26"/>
<polygon fill="#b6ecf3" stroke="#b6ecf3" points="965.29,-485.21 972.72,-477.65 962.2,-478.92 965.29,-485.21"/>
</g>
<!-- cv_depot\.core\.types&#45;&gt;cv_depot\.core\.video -->
<g id="edge25" class="edge">
<title>cv_depot\.core\.types&#45;&gt;cv_depot\.core\.video</title>
<path fill="none" stroke="#b6ecf3" d="M836.32,-608.4C872.7,-675.21 999.96,-908.88 1043.65,-989.1"/>
<polygon fill="#b6ecf3" stroke="#b6ecf3" points="1040.69,-990.99 1048.55,-998.1 1046.84,-987.64 1040.69,-990.99"/>
</g>
<!-- cv_depot\.core\.types&#45;&gt;cv_depot\.ops\.draw -->
<g id="edge26" class="edge">
<title>cv_depot\.core\.types&#45;&gt;cv_depot\.ops\.draw</title>
<path fill="none" stroke="#b6ecf3" d="M912.27,-597.87C1022.99,-608.27 1221.35,-629.37 1389,-660.37 1400.69,-662.53 1412.98,-665.17 1424.98,-667.96"/>
<polygon fill="#b6ecf3" stroke="#b6ecf3" points="1424.43,-671.43 1434.96,-670.32 1426.04,-664.61 1424.43,-671.43"/>
</g>
<!-- cv_depot\.core\.types&#45;&gt;cv_depot\.ops\.edit -->
<g id="edge27" class="edge">
<title>cv_depot\.core\.types&#45;&gt;cv_depot\.ops\.edit</title>
<path fill="none" stroke="#b6ecf3" d="M847.55,-572.28C867.94,-553.37 897.78,-521.73 912,-487.37 945.29,-406.95 883.69,-156.02 948,-97.37 1021.23,-30.59 1072.2,-89.49 1171,-97.37 1361.98,-112.61 1463.51,-76.82 1582,-227.37 1642.16,-303.81 1681.52,-611.34 1692.42,-706.3"/>
<polygon fill="#b6ecf3" stroke="#b6ecf3" points="1688.95,-706.77 1693.55,-716.31 1695.9,-705.98 1688.95,-706.77"/>
</g>
<!-- cv_depot\.core\.types&#45;&gt;cv_depot\.ops\.filter -->
<g id="edge28" class="edge">
<title>cv_depot\.core\.types&#45;&gt;cv_depot\.ops\.filter</title>
<path fill="none" stroke="#b6ecf3" d="M912.12,-591.88C982.03,-592.1 1083.24,-590.09 1171,-579.37 1184.85,-577.68 1199.43,-575.21 1213.56,-572.44"/>
<polygon fill="#b6ecf3" stroke="#b6ecf3" points="1214.65,-575.79 1223.75,-570.38 1213.26,-568.93 1214.65,-575.79"/>
</g>
<!-- cv_depot\.core\.viewer -->
<g id="node12" class="node">
<title>cv_depot\.core\.viewer</title>
<polygon fill="#343434" stroke="#343434" points="490,-323.37 308,-323.37 308,-287.37 490,-287.37 490,-323.37"/>
<text text-anchor="middle" x="399" y="-301.67" font-family="Courier,monospace" font-size="14.00" fill="#b6ecf3">cv_depot.core.viewer</text>
</g>
<!-- cv_depot\.core\.viewer&#45;&gt;cv_depot\.core\.image -->
<g id="edge29" class="edge">
<title>cv_depot\.core\.viewer&#45;&gt;cv_depot\.core\.image</title>
<path fill="none" stroke="#b6ecf3" d="M445.06,-287.25C538,-252.89 755.39,-188.39 912,-266.37 982.42,-301.44 1027.96,-388.29 1047.52,-432.93"/>
<polygon fill="#b6ecf3" stroke="#b6ecf3" points="1044.37,-434.46 1051.51,-442.29 1050.81,-431.72 1044.37,-434.46"/>
</g>
<!-- cv_depot\.ops\.channel&#45;&gt;cv_depot\.ops\.draw -->
<g id="edge30" class="edge">
<title>cv_depot\.ops\.channel&#45;&gt;cv_depot\.ops\.draw</title>
<path fill="none" stroke="#b6ecf3" d="M1372.18,-702.36C1385.93,-699.96 1400.45,-697.61 1414.59,-695.5"/>
<polygon fill="#b6ecf3" stroke="#b6ecf3" points="1415.43,-698.92 1424.82,-694.01 1414.41,-691.99 1415.43,-698.92"/>
</g>
<!-- cv_depot\.ops\.draw&#45;&gt;cv_depot\.ops\.channel -->
<g id="edge31" class="edge">
<title>cv_depot\.ops\.draw&#45;&gt;cv_depot\.ops\.channel</title>
<path fill="none" stroke="#b6ecf3" d="M1429.2,-706.41C1419.46,-708.11 1409.33,-709.78 1399.23,-711.36"/>
<polygon fill="#b6ecf3" stroke="#b6ecf3" points="1398.5,-707.93 1389.15,-712.91 1399.56,-714.85 1398.5,-707.93"/>
</g>
<!-- cv_depot\.ops\.draw&#45;&gt;cv_depot\.ops\.draw -->
<g id="edge32" class="edge">
<title>cv_depot\.ops\.draw&#45;&gt;cv_depot\.ops\.draw</title>
<path fill="none" stroke="#b6ecf3" d="M1468.77,-706.52C1463.42,-715.91 1475,-724.37 1503.5,-724.37 1520.87,-724.37 1531.95,-721.23 1536.75,-716.65"/>
<polygon fill="#b6ecf3" stroke="#b6ecf3" points="1540.25,-716.93 1538.23,-706.52 1533.32,-715.91 1540.25,-716.93"/>
</g>
<!-- cv_depot\.ops\.draw&#45;&gt;cv_depot\.ops\.edit -->
<g id="edge33" class="edge">
<title>cv_depot\.ops\.draw&#45;&gt;cv_depot\.ops\.edit</title>
<path fill="none" stroke="#b6ecf3" d="M1579.44,-706.42C1589.66,-708.88 1600.2,-711.42 1610.58,-713.92"/>
<polygon fill="#b6ecf3" stroke="#b6ecf3" points="1609.92,-717.36 1620.46,-716.3 1611.56,-710.56 1609.92,-717.36"/>
</g>
<!-- cv_depot\.ops\.filter&#45;&gt;cv_depot\.ops\.draw -->
<g id="edge34" class="edge">
<title>cv_depot\.ops\.filter&#45;&gt;cv_depot\.ops\.draw</title>
<path fill="none" stroke="#b6ecf3" d="M1326.02,-570.43C1362.28,-594.67 1426.77,-637.76 1466.94,-664.6"/>
<polygon fill="#b6ecf3" stroke="#b6ecf3" points="1465.11,-667.59 1475.37,-670.24 1469,-661.77 1465.11,-667.59"/>
</g>
<!-- click -->
<g id="node17" class="node">
<title>click</title>
<polygon fill="#343434" stroke="#343434" points="70.5,-137.37 12.5,-137.37 12.5,-101.37 70.5,-101.37 70.5,-137.37"/>
<text text-anchor="middle" x="41.5" y="-115.67" font-family="Courier,monospace" font-size="14.00" fill="#de958e">click</text>
</g>
<!-- click&#45;&gt;cv_depot\.command -->
<g id="edge35" class="edge">
<title>click&#45;&gt;cv_depot\.command</title>
<path fill="none" stroke="#de958e" d="M70.71,-119.37C81.78,-119.37 95.1,-119.37 108.82,-119.37"/>
<polygon fill="#de958e" stroke="#de958e" points="108.85,-122.87 118.85,-119.37 108.85,-115.87 108.85,-122.87"/>
</g>
<!-- ffmpeg -->
<g id="node18" class="node">
<title>ffmpeg</title>
<polygon fill="#343434" stroke="#343434" points="858.5,-1080.37 792.5,-1080.37 792.5,-1044.37 858.5,-1044.37 858.5,-1080.37"/>
<text text-anchor="middle" x="825.5" y="-1058.67" font-family="Courier,monospace" font-size="14.00" fill="#de958e">ffmpeg</text>
</g>
<!-- ffmpeg&#45;&gt;cv_depot\.core\.video -->
<g id="edge36" class="edge">
<title>ffmpeg&#45;&gt;cv_depot\.core\.video</title>
<path fill="none" stroke="#de958e" d="M858.76,-1055.98C885.79,-1050.62 925.81,-1042.68 962.94,-1035.32"/>
<polygon fill="#de958e" stroke="#de958e" points="963.69,-1038.74 972.82,-1033.36 962.33,-1031.87 963.69,-1038.74"/>
</g>
<!-- cv_depot -->
<g id="node19" class="node">
<title>cv_depot</title>
<polygon fill="#343434" stroke="#343434" points="83,-951.37 0,-951.37 0,-915.37 83,-915.37 83,-951.37"/>
<text text-anchor="middle" x="41.5" y="-929.67" font-family="Courier,monospace" font-size="14.00" fill="#a0d17b">cv_depot</text>
</g>
<!-- cv_depot&#45;&gt;cv_depot\.api -->
<g id="edge37" class="edge">
<title>cv_depot&#45;&gt;cv_depot\.api</title>
<path fill="none" stroke="#a0d17b" d="M42.58,-951.45C43.7,-1000.46 52.9,-1137.9 119,-1223.37 235.88,-1374.51 339.17,-1340.11 530,-1349.37 815.92,-1363.26 947.17,-1464.83 1171,-1286.37 1262.64,-1213.31 1287.97,-1063.4 1294.69,-1000.81"/>
<polygon fill="#a0d17b" stroke="#a0d17b" points="1298.2,-1000.81 1295.71,-990.52 1291.24,-1000.12 1298.2,-1000.81"/>
</g>
<!-- cv_depot&#45;&gt;cv_depot\.command -->
<g id="edge38" class="edge">
<title>cv_depot&#45;&gt;cv_depot\.command</title>
<path fill="none" stroke="#a0d17b" d="M43.12,-915.22C47.09,-803.26 70.37,-209.31 119,-146.37 119.48,-145.75 119.98,-145.14 120.5,-144.54"/>
<polygon fill="#a0d17b" stroke="#a0d17b" points="123.05,-146.95 127.94,-137.55 118.26,-141.84 123.05,-146.95"/>
</g>
<!-- cv_depot\.core -->
<g id="node20" class="node">
<title>cv_depot\.core</title>
<polygon fill="#343434" stroke="#343434" points="255.5,-795.37 131.5,-795.37 131.5,-759.37 255.5,-759.37 255.5,-795.37"/>
<text text-anchor="middle" x="193.5" y="-773.67" font-family="Courier,monospace" font-size="14.00" fill="#a0d17b">cv_depot.core</text>
</g>
<!-- cv_depot&#45;&gt;cv_depot\.core -->
<g id="edge39" class="edge">
<title>cv_depot&#45;&gt;cv_depot\.core</title>
<path fill="none" stroke="#a0d17b" d="M60,-915.17C86.65,-887.46 137.49,-834.58 167.86,-803"/>
<polygon fill="#a0d17b" stroke="#a0d17b" points="170.7,-805.09 175.11,-795.46 165.66,-800.24 170.7,-805.09"/>
</g>
<!-- cv_depot\.ops -->
<g id="node23" class="node">
<title>cv_depot\.ops</title>
<polygon fill="#343434" stroke="#343434" points="1117.5,-1223.37 1001.5,-1223.37 1001.5,-1187.37 1117.5,-1187.37 1117.5,-1223.37"/>
<text text-anchor="middle" x="1059.5" y="-1201.67" font-family="Courier,monospace" font-size="14.00" fill="#a0d17b">cv_depot.ops</text>
</g>
<!-- cv_depot&#45;&gt;cv_depot\.ops -->
<g id="edge40" class="edge">
<title>cv_depot&#45;&gt;cv_depot\.ops</title>
<path fill="none" stroke="#a0d17b" d="M83.27,-944.29C239.08,-986 797.86,-1135.59 991.7,-1187.49"/>
<polygon fill="#a0d17b" stroke="#a0d17b" points="990.91,-1190.9 1001.48,-1190.11 992.72,-1184.14 990.91,-1190.9"/>
</g>
<!-- cv_depot\.core&#45;&gt;cv_depot\.core\.channel_map -->
<g id="edge41" class="edge">
<title>cv_depot\.core&#45;&gt;cv_depot\.core\.channel_map</title>
<path fill="none" stroke="#a0d17b" d="M207.28,-795.55C226.14,-821.37 263.56,-869.01 304,-900.37 558.45,-1097.73 646.38,-1119.59 948,-1232.37 953.77,-1234.53 959.77,-1236.56 965.86,-1238.46"/>
<polygon fill="#a0d17b" stroke="#a0d17b" points="964.9,-1241.83 975.49,-1241.35 966.91,-1235.13 964.9,-1241.83"/>
</g>
<!-- cv_depot\.core&#45;&gt;cv_depot\.core\.color -->
<g id="edge42" class="edge">
<title>cv_depot\.core&#45;&gt;cv_depot\.core\.color</title>
<path fill="none" stroke="#a0d17b" d="M255.72,-767.92C324.94,-757.23 438.52,-739.7 519.55,-727.19"/>
<polygon fill="#a0d17b" stroke="#a0d17b" points="520.41,-730.59 529.76,-725.61 519.35,-723.68 520.41,-730.59"/>
</g>
<!-- cv_depot\.core&#45;&gt;cv_depot\.core\.enforce -->
<g id="edge43" class="edge">
<title>cv_depot\.core&#45;&gt;cv_depot\.core\.enforce</title>
<path fill="none" stroke="#a0d17b" d="M201.26,-795.41C217.15,-837.19 258.97,-943.45 304,-1027.37 327.25,-1070.71 359.04,-1118.1 379.04,-1146.78"/>
<polygon fill="#a0d17b" stroke="#a0d17b" points="376.24,-1148.88 384.85,-1155.05 381.97,-1144.86 376.24,-1148.88"/>
</g>
<!-- cv_depot\.core&#45;&gt;cv_depot\.core\.enum -->
<g id="edge44" class="edge">
<title>cv_depot\.core&#45;&gt;cv_depot\.core\.enum</title>
<path fill="none" stroke="#a0d17b" d="M255.56,-786.97C271.51,-789.48 289.06,-792.24 306.23,-794.94"/>
<polygon fill="#a0d17b" stroke="#a0d17b" points="305.85,-798.43 316.28,-796.52 306.94,-791.51 305.85,-798.43"/>
</g>
<!-- cv_depot\.core&#45;&gt;cv_depot\.core\.image -->
<g id="edge45" class="edge">
<title>cv_depot\.core&#45;&gt;cv_depot\.core\.image</title>
<path fill="none" stroke="#a0d17b" d="M194.99,-759.26C197.49,-706.28 212.64,-550.9 304,-479.37 444.48,-369.39 564.52,-547.86 703,-435.37 742.93,-402.94 697.35,-355.56 739,-325.37 801.25,-280.24 840.38,-297.4 912,-325.37 967.9,-347.2 1015.32,-401.45 1040.08,-434.15"/>
<polygon fill="#a0d17b" stroke="#a0d17b" points="1037.39,-436.41 1046.16,-442.36 1043.02,-432.24 1037.39,-436.41"/>
</g>
<!-- cv_depot\.core&#45;&gt;cv_depot\.core\.tools -->
<g id="edge46" class="edge">
<title>cv_depot\.core&#45;&gt;cv_depot\.core\.tools</title>
<path fill="none" stroke="#a0d17b" d="M194.1,-759.01C193.95,-701.33 202.07,-522.71 304,-440.37 363.63,-392.2 452.08,-387.39 519.51,-392.78"/>
<polygon fill="#a0d17b" stroke="#a0d17b" points="519.45,-396.29 529.72,-393.69 520.07,-389.32 519.45,-396.29"/>
</g>
<!-- cv_depot\.core&#45;&gt;cv_depot\.core\.types -->
<g id="edge47" class="edge">
<title>cv_depot\.core&#45;&gt;cv_depot\.core\.types</title>
<path fill="none" stroke="#a0d17b" d="M196.77,-759.22C205.97,-688.77 242.97,-434.91 304,-387.37 373.96,-332.88 630.92,-329.73 703,-381.37 743.44,-410.35 714.71,-443.95 739,-487.37 755.23,-516.38 780.01,-545.12 798.72,-564.84"/>
<polygon fill="#a0d17b" stroke="#a0d17b" points="796.36,-567.43 805.82,-572.2 801.39,-562.57 796.36,-567.43"/>
</g>
<!-- cv_depot\.core&#45;&gt;cv_depot\.core\.video -->
<g id="edge48" class="edge">
<title>cv_depot\.core&#45;&gt;cv_depot\.core\.video</title>
<path fill="none" stroke="#a0d17b" d="M227.95,-795.62C249.59,-807.37 278.39,-822.9 304,-836.37 403.92,-888.93 423.59,-914.63 530,-952.37 619.46,-984.1 644.94,-983.6 739,-996.37 813.75,-1006.53 899.06,-1011.54 962.71,-1014"/>
<polygon fill="#a0d17b" stroke="#a0d17b" points="962.61,-1017.5 972.73,-1014.37 962.87,-1010.5 962.61,-1017.5"/>
</g>
<!-- cv_depot\.core&#45;&gt;cv_depot\.core\.viewer -->
<g id="edge49" class="edge">
<title>cv_depot\.core&#45;&gt;cv_depot\.core\.viewer</title>
<path fill="none" stroke="#a0d17b" d="M193.9,-759.01C192.76,-694.61 197.32,-476.1 304,-348.37 310.71,-340.34 319.25,-333.73 328.43,-328.32"/>
<polygon fill="#a0d17b" stroke="#a0d17b" points="330.25,-331.31 337.39,-323.49 326.93,-325.15 330.25,-331.31"/>
</g>
<!-- lunchbox\.enforce -->
<g id="node21" class="node">
<title>lunchbox\.enforce</title>
<polygon fill="#343434" stroke="#343434" points="268,-1214.37 119,-1214.37 119,-1178.37 268,-1178.37 268,-1214.37"/>
<text text-anchor="middle" x="193.5" y="-1192.67" font-family="Courier,monospace" font-size="14.00" fill="#de958e">lunchbox.enforce</text>
</g>
<!-- lunchbox\.enforce&#45;&gt;cv_depot\.core\.channel_map -->
<g id="edge50" class="edge">
<title>lunchbox\.enforce&#45;&gt;cv_depot\.core\.channel_map</title>
<path fill="none" stroke="#de958e" d="M207.97,-1214.63C226.53,-1238.07 262.44,-1277.61 304,-1293.37 542.02,-1383.64 852.96,-1317.44 989.32,-1280.18"/>
<polygon fill="#de958e" stroke="#de958e" points="990.52,-1283.48 999.23,-1277.44 988.66,-1276.73 990.52,-1283.48"/>
</g>
<!-- lunchbox\.enforce&#45;&gt;cv_depot\.core\.color -->
<g id="edge51" class="edge">
<title>lunchbox\.enforce&#45;&gt;cv_depot\.core\.color</title>
<path fill="none" stroke="#de958e" d="M205.75,-1178.05C224.66,-1147.74 264.62,-1085.7 304,-1037.37 329.84,-1005.66 521.77,-808.43 590.83,-737.63"/>
<polygon fill="#de958e" stroke="#de958e" points="593.4,-740.02 597.88,-730.41 588.39,-735.13 593.4,-740.02"/>
</g>
<!-- lunchbox\.enforce&#45;&gt;cv_depot\.core\.enforce -->
<g id="edge52" class="edge">
<title>lunchbox\.enforce&#45;&gt;cv_depot\.core\.enforce</title>
<path fill="none" stroke="#de958e" d="M268.26,-1188.04C276.59,-1187.09 285.21,-1186.12 293.84,-1185.14"/>
<polygon fill="#de958e" stroke="#de958e" points="294.43,-1188.6 303.97,-1184 293.64,-1181.64 294.43,-1188.6"/>
</g>
<!-- lunchbox\.enforce&#45;&gt;cv_depot\.core\.enum -->
<g id="edge53" class="edge">
<title>lunchbox\.enforce&#45;&gt;cv_depot\.core\.enum</title>
<path fill="none" stroke="#de958e" d="M197.76,-1178.14C207.28,-1128.58 238.6,-988.67 304,-892.37 319.63,-869.36 343.06,-848.65 362.63,-833.67"/>
<polygon fill="#de958e" stroke="#de958e" points="364.82,-836.4 370.74,-827.61 360.63,-830.79 364.82,-836.4"/>
</g>
<!-- lunchbox\.enforce&#45;&gt;cv_depot\.core\.image -->
<g id="edge54" class="edge">
<title>lunchbox\.enforce&#45;&gt;cv_depot\.core\.image</title>
<path fill="none" stroke="#de958e" d="M218.36,-1178.29C336.84,-1088.35 858.37,-690.56 912,-617.37 937.95,-581.96 919.51,-558.78 948,-525.37 963.15,-507.6 984.45,-493.48 1004.3,-483"/>
<polygon fill="#de958e" stroke="#de958e" points="1005.96,-486.08 1013.3,-478.44 1002.8,-479.84 1005.96,-486.08"/>
</g>
<!-- lunchbox\.enforce&#45;&gt;cv_depot\.core\.video -->
<g id="edge55" class="edge">
<title>lunchbox\.enforce&#45;&gt;cv_depot\.core\.video</title>
<path fill="none" stroke="#de958e" d="M226.49,-1178.3C247.78,-1167.16 276.74,-1153.65 304,-1146.37 566.22,-1076.36 651,-1163.82 912,-1089.37 951.21,-1078.19 992.48,-1056.61 1021.19,-1039.8"/>
<polygon fill="#de958e" stroke="#de958e" points="1023.25,-1042.65 1030.05,-1034.53 1019.67,-1036.64 1023.25,-1042.65"/>
</g>
<!-- lunchbox\.enforce&#45;&gt;cv_depot\.ops\.channel -->
<g id="edge56" class="edge">
<title>lunchbox\.enforce&#45;&gt;cv_depot\.ops\.channel</title>
<path fill="none" stroke="#de958e" d="M237.1,-1214.37C257.03,-1221.85 281.33,-1229.65 304,-1233.37 387.33,-1247.07 409.62,-1236.6 494,-1233.37 680.29,-1226.25 733.84,-1253.27 912,-1198.37 929.49,-1192.98 930.8,-1184.63 948,-1178.37 1042.86,-1143.88 1099.74,-1206.86 1171,-1135.37 1231.68,-1074.5 1182.93,-1027.88 1207,-945.37 1228.38,-872.09 1264.67,-789.65 1283.99,-747.86"/>
<polygon fill="#de958e" stroke="#de958e" points="1287.24,-749.16 1288.29,-738.61 1280.9,-746.2 1287.24,-749.16"/>
</g>
<!-- lunchbox\.enforce&#45;&gt;cv_depot\.ops\.draw -->
<g id="edge57" class="edge">
<title>lunchbox\.enforce&#45;&gt;cv_depot\.ops\.draw</title>
<path fill="none" stroke="#de958e" d="M262.18,-1214.44C264.24,-1215.95 266.19,-1217.59 268,-1219.37 304.11,-1254.82 264.44,-1295.83 304,-1327.37 454.82,-1447.61 988.53,-1348.89 1171,-1286.37 1275.63,-1250.52 1323.17,-1255.24 1389,-1166.37 1435.23,-1103.96 1407.49,-1071.04 1425,-995.37 1448.87,-892.19 1480.71,-770.44 1495,-716.51"/>
<polygon fill="#de958e" stroke="#de958e" points="1498.43,-717.21 1497.62,-706.65 1491.67,-715.42 1498.43,-717.21"/>
</g>
<!-- lunchbox\.enforce&#45;&gt;cv_depot\.ops\.edit -->
<g id="edge58" class="edge">
<title>lunchbox\.enforce&#45;&gt;cv_depot\.ops\.edit</title>
<path fill="none" stroke="#de958e" d="M200.39,-1214.46C213.06,-1250.21 246.49,-1329.72 304,-1367.37 499.99,-1495.69 590.24,-1450.37 824.5,-1450.37 824.5,-1450.37 824.5,-1450.37 1299,-1450.37 1619.3,-1450.37 1682.95,-895.25 1693.59,-762.59"/>
<polygon fill="#de958e" stroke="#de958e" points="1697.09,-762.67 1694.37,-752.43 1690.11,-762.13 1697.09,-762.67"/>
</g>
<!-- lunchbox\.enforce&#45;&gt;cv_depot\.ops\.filter -->
<g id="edge59" class="edge">
<title>lunchbox\.enforce&#45;&gt;cv_depot\.ops\.filter</title>
<path fill="none" stroke="#de958e" d="M268.23,-1201.86C328.97,-1205.31 417.27,-1207.83 494,-1200.37 570.86,-1192.9 1121.51,-1102.64 1171,-1043.37 1221.11,-983.36 1181.27,-767.21 1207,-693.37 1222.26,-649.57 1253.51,-605.54 1274.86,-578.62"/>
<polygon fill="#de958e" stroke="#de958e" points="1277.85,-580.48 1281.41,-570.5 1272.41,-576.08 1277.85,-580.48"/>
</g>
<!-- numpy -->
<g id="node22" class="node">
<title>numpy</title>
<polygon fill="#343434" stroke="#343434" points="222.5,-191.37 164.5,-191.37 164.5,-155.37 222.5,-155.37 222.5,-191.37"/>
<text text-anchor="middle" x="193.5" y="-169.67" font-family="Courier,monospace" font-size="14.00" fill="#de958e">numpy</text>
</g>
<!-- numpy&#45;&gt;cv_depot\.core\.color -->
<g id="edge60" class="edge">
<title>numpy&#45;&gt;cv_depot\.core\.color</title>
<path fill="none" stroke="#de958e" d="M222.7,-182.44C295.46,-205.95 484.52,-267.77 494,-278.37 541.71,-331.74 511.43,-366.23 530,-435.37 554.74,-527.49 589.71,-635.03 606.2,-684.67"/>
<polygon fill="#de958e" stroke="#de958e" points="602.95,-685.98 609.43,-694.36 609.59,-683.76 602.95,-685.98"/>
</g>
<!-- numpy&#45;&gt;cv_depot\.core\.enum -->
<g id="edge61" class="edge">
<title>numpy&#45;&gt;cv_depot\.core\.enum</title>
<path fill="none" stroke="#de958e" d="M218.18,-191.49C235.03,-205.8 256.63,-227.31 268,-251.37 321.97,-365.62 275.49,-410.28 304,-533.37 325.64,-626.8 366.73,-733.1 386.63,-782.05"/>
<polygon fill="#de958e" stroke="#de958e" points="383.4,-783.4 390.43,-791.33 389.88,-780.75 383.4,-783.4"/>
</g>
<!-- numpy&#45;&gt;cv_depot\.core\.image -->
<g id="edge62" class="edge">
<title>numpy&#45;&gt;cv_depot\.core\.image</title>
<path fill="none" stroke="#de958e" d="M222.52,-173.96C347.69,-176.76 852.1,-190.26 912,-226.37 990.72,-273.84 1033.72,-381.52 1050.33,-432.55"/>
<polygon fill="#de958e" stroke="#de958e" points="1047.05,-433.77 1053.39,-442.25 1053.72,-431.66 1047.05,-433.77"/>
</g>
<!-- numpy&#45;&gt;cv_depot\.ops\.channel -->
<g id="edge63" class="edge">
<title>numpy&#45;&gt;cv_depot\.ops\.channel</title>
<path fill="none" stroke="#de958e" d="M222.77,-171.52C339.66,-164.3 785,-140.92 912,-195.37 1055.68,-256.97 1091.34,-298.86 1171,-433.37 1205.06,-490.88 1180.67,-517.94 1207,-579.37 1225.38,-622.24 1256.12,-666.82 1276.48,-694.09"/>
<polygon fill="#de958e" stroke="#de958e" points="1273.87,-696.45 1282.7,-702.31 1279.46,-692.22 1273.87,-696.45"/>
</g>
<!-- numpy&#45;&gt;cv_depot\.ops\.draw -->
<g id="edge64" class="edge">
<title>numpy&#45;&gt;cv_depot\.ops\.draw</title>
<path fill="none" stroke="#de958e" d="M222.59,-165.99C236.83,-161.54 254.02,-155.03 268,-146.37 286.71,-134.79 284.02,-121.6 304,-112.37 430.43,-53.96 476.23,-78.37 615.5,-78.37 615.5,-78.37 615.5,-78.37 1060.5,-78.37 1216.56,-78.37 1291.4,-80.61 1389,-202.37 1447.19,-274.97 1487.62,-567.76 1499.14,-660.23"/>
<polygon fill="#de958e" stroke="#de958e" points="1495.68,-660.75 1500.37,-670.25 1502.63,-659.9 1495.68,-660.75"/>
</g>
<!-- numpy&#45;&gt;cv_depot\.ops\.edit -->
<g id="edge65" class="edge">
<title>numpy&#45;&gt;cv_depot\.ops\.edit</title>
<path fill="none" stroke="#de958e" d="M222.71,-168.43C237.67,-164.57 255.48,-157.86 268,-146.37 295.83,-120.82 274.45,-92.91 304,-69.37 414.76,18.86 473.89,-2.37 615.5,-2.37 615.5,-2.37 615.5,-2.37 1299,-2.37 1434.11,-2.37 1496.12,-9.08 1582,-113.37 1658.53,-206.31 1687.3,-597.12 1693.92,-706.07"/>
<polygon fill="#de958e" stroke="#de958e" points="1690.44,-706.5 1694.52,-716.27 1697.42,-706.08 1690.44,-706.5"/>
</g>
<!-- numpy&#45;&gt;cv_depot\.ops\.filter -->
<g id="edge66" class="edge">
<title>numpy&#45;&gt;cv_depot\.ops\.filter</title>
<path fill="none" stroke="#de958e" d="M222.8,-162.34C244.6,-154.46 275.71,-144.54 304,-140.37 571.33,-100.96 644.74,-100.45 912,-140.37 928.55,-142.84 931.76,-147.34 948,-151.37 1045.96,-175.71 1098.58,-124.06 1171,-194.37 1223.61,-245.45 1183.64,-285.87 1207,-355.37 1228.06,-418.03 1262.64,-487.53 1282.23,-524.93"/>
<polygon fill="#de958e" stroke="#de958e" points="1279.34,-526.95 1287.11,-534.16 1285.53,-523.68 1279.34,-526.95"/>
</g>
<!-- cv_depot\.ops&#45;&gt;cv_depot\.api -->
<g id="edge67" class="edge">
<title>cv_depot\.ops&#45;&gt;cv_depot\.api</title>
<path fill="none" stroke="#a0d17b" d="M1117.53,-1197.18C1135.93,-1192.46 1155.53,-1185.04 1171,-1173.37 1187.01,-1161.29 1251.62,-1051.21 1281.59,-999.27"/>
<polygon fill="#a0d17b" stroke="#a0d17b" points="1284.64,-1000.99 1286.59,-990.57 1278.57,-997.49 1284.64,-1000.99"/>
</g>
<!-- cv_depot\.ops&#45;&gt;cv_depot\.ops\.channel -->
<g id="edge68" class="edge">
<title>cv_depot\.ops&#45;&gt;cv_depot\.ops\.channel</title>
<path fill="none" stroke="#a0d17b" d="M1117.72,-1201.15C1137.25,-1196.83 1157.53,-1188.65 1171,-1173.37 1238.86,-1096.43 1179.78,-1044.28 1207,-945.37 1227.26,-871.77 1264.01,-789.47 1283.7,-747.77"/>
<polygon fill="#a0d17b" stroke="#a0d17b" points="1286.95,-749.09 1288.09,-738.56 1280.63,-746.08 1286.95,-749.09"/>
</g>
<!-- cv_depot\.ops&#45;&gt;cv_depot\.ops\.draw -->
<g id="edge69" class="edge">
<title>cv_depot\.ops&#45;&gt;cv_depot\.ops\.draw</title>
<path fill="none" stroke="#a0d17b" d="M1117.5,-1193.44C1135.21,-1188.54 1154.42,-1181.96 1171,-1173.37 1281.09,-1116.37 1316.61,-1100.01 1389,-999.37 1454.74,-907.98 1486.33,-774.37 1497.54,-716.65"/>
<polygon fill="#a0d17b" stroke="#a0d17b" points="1501.04,-716.95 1499.45,-706.47 1494.16,-715.65 1501.04,-716.95"/>
</g>
<!-- cv_depot\.ops&#45;&gt;cv_depot\.ops\.edit -->
<g id="edge70" class="edge">
<title>cv_depot\.ops&#45;&gt;cv_depot\.ops\.edit</title>
<path fill="none" stroke="#a0d17b" d="M1117.76,-1194.8C1186.76,-1180.04 1303.98,-1148.29 1389,-1090.37 1526.16,-996.93 1638.93,-827.1 1679.42,-761.37"/>
<polygon fill="#a0d17b" stroke="#a0d17b" points="1682.64,-762.8 1684.86,-752.44 1676.66,-759.16 1682.64,-762.8"/>
</g>
<!-- cv_depot\.ops&#45;&gt;cv_depot\.ops\.filter -->
<g id="edge71" class="edge">
<title>cv_depot\.ops&#45;&gt;cv_depot\.ops\.filter</title>
<path fill="none" stroke="#a0d17b" d="M1108.14,-1187.26C1131.11,-1175.95 1156.73,-1158.99 1171,-1135.37 1221.98,-1051.03 1175.56,-786.77 1207,-693.37 1221.86,-649.22 1253.43,-605.04 1274.94,-578.2"/>
<polygon fill="#a0d17b" stroke="#a0d17b" points="1277.66,-580.41 1281.26,-570.45 1272.23,-575.99 1277.66,-580.41"/>
</g>
<!-- numpy\.typing -->
<g id="node24" class="node">
<title>numpy\.typing</title>
<polygon fill="#343434" stroke="#343434" points="457,-524.37 341,-524.37 341,-488.37 457,-488.37 457,-524.37"/>
<text text-anchor="middle" x="399" y="-502.67" font-family="Courier,monospace" font-size="14.00" fill="#de958e">numpy.typing</text>
</g>
<!-- numpy\.typing&#45;&gt;cv_depot\.core\.color -->
<g id="edge72" class="edge">
<title>numpy\.typing&#45;&gt;cv_depot\.core\.color</title>
<path fill="none" stroke="#de958e" d="M419.12,-524.65C457.7,-561.53 544.91,-644.9 588.97,-687.01"/>
<polygon fill="#de958e" stroke="#de958e" points="586.77,-689.75 596.42,-694.13 591.61,-684.69 586.77,-689.75"/>
</g>
<!-- numpy\.typing&#45;&gt;cv_depot\.core\.image -->
<g id="edge73" class="edge">
<title>numpy\.typing&#45;&gt;cv_depot\.core\.image</title>
<path fill="none" stroke="#de958e" d="M457.02,-506.95C551.78,-507.31 747.55,-505.48 912,-487.37 928.55,-485.55 946.03,-482.94 962.94,-480.05"/>
<polygon fill="#de958e" stroke="#de958e" points="963.58,-483.49 972.82,-478.32 962.37,-476.59 963.58,-483.49"/>
</g>
<!-- numpy\.typing&#45;&gt;cv_depot\.core\.tools -->
<g id="edge74" class="edge">
<title>numpy\.typing&#45;&gt;cv_depot\.core\.tools</title>
<path fill="none" stroke="#de958e" d="M439.78,-488.28C475.43,-472.07 527.86,-448.23 566.17,-430.8"/>
<polygon fill="#de958e" stroke="#de958e" points="567.94,-433.85 575.59,-426.52 565.04,-427.48 567.94,-433.85"/>
</g>
<!-- IPython\.display -->
<g id="node25" class="node">
<title>IPython\.display</title>
<polygon fill="#343434" stroke="#343434" points="263.5,-296.37 123.5,-296.37 123.5,-260.37 263.5,-260.37 263.5,-296.37"/>
<text text-anchor="middle" x="193.5" y="-274.67" font-family="Courier,monospace" font-size="14.00" fill="#de958e">IPython.display</text>
</g>
<!-- IPython\.display&#45;&gt;cv_depot\.core\.viewer -->
<g id="edge75" class="edge">
<title>IPython\.display&#45;&gt;cv_depot\.core\.viewer</title>
<path fill="none" stroke="#de958e" d="M263.68,-287.55C274.64,-289.01 286.17,-290.53 297.67,-292.06"/>
<polygon fill="#de958e" stroke="#de958e" points="297.38,-295.55 307.75,-293.4 298.3,-288.61 297.38,-295.55"/>
</g>
<!-- PIL\.Image -->
<g id="node26" class="node">
<title>PIL\.Image</title>
<polygon fill="#343434" stroke="#343434" points="871,-478.37 780,-478.37 780,-442.37 871,-442.37 871,-478.37"/>
<text text-anchor="middle" x="825.5" y="-456.67" font-family="Courier,monospace" font-size="14.00" fill="#de958e">PIL.Image</text>
</g>
<!-- PIL\.Image&#45;&gt;cv_depot\.core\.image -->
<g id="edge76" class="edge">
<title>PIL\.Image&#45;&gt;cv_depot\.core\.image</title>
<path fill="none" stroke="#de958e" d="M871.23,-460.37C897.13,-460.37 930.77,-460.37 962.39,-460.37"/>
<polygon fill="#de958e" stroke="#de958e" points="962.57,-463.87 972.57,-460.37 962.56,-456.87 962.57,-463.87"/>
</g>
<!-- ipywidgets -->
<g id="node27" class="node">
<title>ipywidgets</title>
<polygon fill="#343434" stroke="#343434" points="243,-350.37 144,-350.37 144,-314.37 243,-314.37 243,-350.37"/>
<text text-anchor="middle" x="193.5" y="-328.67" font-family="Courier,monospace" font-size="14.00" fill="#de958e">ipywidgets</text>
</g>
<!-- ipywidgets&#45;&gt;cv_depot\.core\.viewer -->
<g id="edge77" class="edge">
<title>ipywidgets&#45;&gt;cv_depot\.core\.viewer</title>
<path fill="none" stroke="#de958e" d="M243.24,-325.91C259.76,-323.71 278.87,-321.18 297.9,-318.65"/>
<polygon fill="#de958e" stroke="#de958e" points="298.38,-322.12 307.84,-317.34 297.46,-315.18 298.38,-322.12"/>
</g>
<!-- openexr_tools\.enum -->
<g id="node28" class="node">
<title>openexr_tools\.enum</title>
<polygon fill="#343434" stroke="#343434" points="908,-424.37 743,-424.37 743,-388.37 908,-388.37 908,-424.37"/>
<text text-anchor="middle" x="825.5" y="-402.67" font-family="Courier,monospace" font-size="14.00" fill="#de958e">openexr_tools.enum</text>
</g>
<!-- openexr_tools\.enum&#45;&gt;cv_depot\.core\.image -->
<g id="edge78" class="edge">
<title>openexr_tools\.enum&#45;&gt;cv_depot\.core\.image</title>
<path fill="none" stroke="#de958e" d="M904.08,-424.43C925.55,-429.43 949.01,-434.89 971.01,-440.01"/>
<polygon fill="#de958e" stroke="#de958e" points="970.46,-443.47 981,-442.33 972.05,-436.66 970.46,-443.47"/>
</g>
<!-- openexr_tools\.tools -->
<g id="node29" class="node">
<title>openexr_tools\.tools</title>
<polygon fill="#343434" stroke="#343434" points="912,-370.37 739,-370.37 739,-334.37 912,-334.37 912,-370.37"/>
<text text-anchor="middle" x="825.5" y="-348.67" font-family="Courier,monospace" font-size="14.00" fill="#de958e">openexr_tools.tools</text>
</g>
<!-- openexr_tools\.tools&#45;&gt;cv_depot\.core\.image -->
<g id="edge79" class="edge">
<title>openexr_tools\.tools&#45;&gt;cv_depot\.core\.image</title>
<path fill="none" stroke="#de958e" d="M888.68,-370.4C896.62,-373.17 904.56,-376.18 912,-379.37 950.6,-395.94 992.32,-419.62 1021.33,-437.1"/>
<polygon fill="#de958e" stroke="#de958e" points="1019.54,-440.11 1029.9,-442.32 1023.17,-434.13 1019.54,-440.11"/>
</g>
<!-- cv2 -->
<g id="node30" class="node">
<title>cv2</title>
<polygon fill="#343434" stroke="#343434" points="1086.5,-142.37 1032.5,-142.37 1032.5,-106.37 1086.5,-106.37 1086.5,-142.37"/>
<text text-anchor="middle" x="1059.5" y="-120.67" font-family="Courier,monospace" font-size="14.00" fill="#de958e">cv2</text>
</g>
<!-- cv2&#45;&gt;cv_depot\.ops\.channel -->
<g id="edge80" class="edge">
<title>cv2&#45;&gt;cv_depot\.ops\.channel</title>
<path fill="none" stroke="#de958e" d="M1086.97,-133.26C1113.12,-143.55 1151.9,-163.2 1171,-194.37 1215.89,-267.64 1179.1,-498.1 1207,-579.37 1222.06,-623.24 1253.36,-667.25 1274.77,-694.16"/>
<polygon fill="#de958e" stroke="#de958e" points="1272.33,-696.7 1281.35,-702.27 1277.77,-692.29 1272.33,-696.7"/>
</g>
<!-- cv2&#45;&gt;cv_depot\.ops\.draw -->
<g id="edge81" class="edge">
<title>cv2&#45;&gt;cv_depot\.ops\.draw</title>
<path fill="none" stroke="#de958e" d="M1086.82,-126.91C1110.7,-130.32 1145.92,-138.22 1171,-156.37 1188.39,-168.96 1377.88,-457.01 1389,-475.37 1428.39,-540.41 1468.96,-620.26 1489.25,-661.25"/>
<polygon fill="#de958e" stroke="#de958e" points="1486.17,-662.91 1493.73,-670.33 1492.45,-659.82 1486.17,-662.91"/>
</g>
<!-- cv2&#45;&gt;cv_depot\.ops\.edit -->
<g id="edge82" class="edge">
<title>cv2&#45;&gt;cv_depot\.ops\.edit</title>
<path fill="none" stroke="#de958e" d="M1086.53,-124.31C1145.68,-125.4 1292.56,-135.2 1389,-202.37 1576,-332.61 1664.42,-616.34 1688.5,-706.37"/>
<polygon fill="#de958e" stroke="#de958e" points="1685.14,-707.35 1691.06,-716.13 1691.91,-705.57 1685.14,-707.35"/>
</g>
<!-- cv2&#45;&gt;cv_depot\.ops\.filter -->
<g id="edge83" class="edge">
<title>cv2&#45;&gt;cv_depot\.ops\.filter</title>
<path fill="none" stroke="#de958e" d="M1086.98,-124.46C1112.37,-126.05 1149.88,-132.65 1171,-156.37 1235.42,-228.74 1177.11,-279.21 1207,-371.37 1225.61,-428.74 1259.79,-490.65 1280.25,-525.15"/>
<polygon fill="#de958e" stroke="#de958e" points="1277.49,-527.35 1285.63,-534.13 1283.49,-523.75 1277.49,-527.35"/>
</g>
<!-- lunchbox\.stopwatch -->
<g id="node31" class="node">
<title>lunchbox\.stopwatch</title>
<polygon fill="#343434" stroke="#343434" points="1142,-570.37 977,-570.37 977,-534.37 1142,-534.37 1142,-570.37"/>
<text text-anchor="middle" x="1059.5" y="-548.67" font-family="Courier,monospace" font-size="14.00" fill="#de958e">lunchbox.stopwatch</text>
</g>
<!-- lunchbox\.stopwatch&#45;&gt;cv_depot\.ops\.filter -->
<g id="edge84" class="edge">
<title>lunchbox\.stopwatch&#45;&gt;cv_depot\.ops\.filter</title>
<path fill="none" stroke="#de958e" d="M1142.22,-552.37C1161.21,-552.37 1181.59,-552.37 1201.12,-552.37"/>
<polygon fill="#de958e" stroke="#de958e" points="1201.25,-555.87 1211.25,-552.37 1201.25,-548.87 1201.25,-555.87"/>
</g>
</g>
</svg>
