<?xml version="1.0" encoding="UTF-8" standalone="no"?>
<!DOCTYPE svg PUBLIC "-//W3C//DTD SVG 1.1//EN"
 "http://www.w3.org/Graphics/SVG/1.1/DTD/svg11.dtd">
<!-- Generated by graphviz version 2.43.0 (0)
 -->
<!-- Title: %3 Pages: 1 -->
<svg width="920pt" height="825pt"
 viewBox="0.00 0.00 920.00 824.66" xmlns="http://www.w3.org/2000/svg" xmlns:xlink="http://www.w3.org/1999/xlink">
<g id="graph0" class="graph" transform="scale(1 1) rotate(0) translate(4 820.66)">
<title>%3</title>
<polygon fill="#242424" stroke="transparent" points="-4,4 -4,-820.66 916,-820.66 916,4 -4,4"/>
<!-- cli -->
<g id="node1" class="node">
<title>cli</title>
<polygon fill="#343434" stroke="#343434" points="68.5,-531.32 14.5,-531.32 14.5,-495.32 68.5,-495.32 68.5,-531.32"/>
<text text-anchor="middle" x="41.5" y="-509.62" font-family="Courier,monospace" font-size="14.00" fill="#b6ecf3">cli</text>
</g>
<!-- cv_depot\.command -->
<g id="node2" class="node">
<title>cv_depot\.command</title>
<polygon fill="#343434" stroke="#343434" points="268,-735.32 119,-735.32 119,-699.32 268,-699.32 268,-735.32"/>
<text text-anchor="middle" x="193.5" y="-713.62" font-family="Courier,monospace" font-size="14.00" fill="#b6ecf3">cv_depot.command</text>
</g>
<!-- cv_depot\.core\.channel -->
<g id="node3" class="node">
<title>cv_depot\.core\.channel</title>
<polygon fill="#343434" stroke="#343434" points="494,-581.32 304,-581.32 304,-545.32 494,-545.32 494,-581.32"/>
<text text-anchor="middle" x="399" y="-559.62" font-family="Courier,monospace" font-size="14.00" fill="#b6ecf3">cv_depot.core.channel</text>
</g>
<!-- cv_depot\.core\.color -->
<g id="node4" class="node">
<title>cv_depot\.core\.color</title>
<polygon fill="#343434" stroke="#343434" points="912,-405.32 739,-405.32 739,-369.32 912,-369.32 912,-405.32"/>
<text text-anchor="middle" x="825.5" y="-383.62" font-family="Courier,monospace" font-size="14.00" fill="#b6ecf3">cv_depot.core.color</text>
</g>
<!-- cv_depot\.core\.enum -->
<g id="node5" class="node">
<title>cv_depot\.core\.enum</title>
<polygon fill="#343434" stroke="#343434" points="481.5,-635.32 316.5,-635.32 316.5,-599.32 481.5,-599.32 481.5,-635.32"/>
<text text-anchor="middle" x="399" y="-613.62" font-family="Courier,monospace" font-size="14.00" fill="#b6ecf3">cv_depot.core.enum</text>
</g>
<!-- cv_depot\.core\.image -->
<g id="node6" class="node">
<title>cv_depot\.core\.image</title>
<polygon fill="#343434" stroke="#343434" points="703,-336.32 530,-336.32 530,-300.32 703,-300.32 703,-336.32"/>
<text text-anchor="middle" x="616.5" y="-314.62" font-family="Courier,monospace" font-size="14.00" fill="#b6ecf3">cv_depot.core.image</text>
</g>
<!-- cv_depot\.core\.enum&#45;&gt;cv_depot\.core\.image -->
<g id="edge1" class="edge">
<title>cv_depot\.core\.enum&#45;&gt;cv_depot\.core\.image</title>
<path fill="none" stroke="#b6ecf3" d="M481.44,-599.16C485.92,-596.59 490.15,-593.66 494,-590.32 569.96,-524.34 600.63,-401.58 610.99,-346.42"/>
<polygon fill="#b6ecf3" stroke="#b6ecf3" points="614.48,-346.79 612.79,-336.33 607.59,-345.56 614.48,-346.79"/>
</g>
<!-- cv_depot\.core\.video -->
<g id="node9" class="node">
<title>cv_depot\.core\.video</title>
<polygon fill="#343434" stroke="#343434" points="703,-635.32 530,-635.32 530,-599.32 703,-599.32 703,-635.32"/>
<text text-anchor="middle" x="616.5" y="-613.62" font-family="Courier,monospace" font-size="14.00" fill="#b6ecf3">cv_depot.core.video</text>
</g>
<!-- cv_depot\.core\.enum&#45;&gt;cv_depot\.core\.video -->
<g id="edge2" class="edge">
<title>cv_depot\.core\.enum&#45;&gt;cv_depot\.core\.video</title>
<path fill="none" stroke="#b6ecf3" d="M481.78,-617.32C494.18,-617.32 507.07,-617.32 519.74,-617.32"/>
<polygon fill="#b6ecf3" stroke="#b6ecf3" points="519.83,-620.82 529.83,-617.32 519.83,-613.82 519.83,-620.82"/>
</g>
<!-- cv_depot\.core\.image&#45;&gt;cv_depot\.core\.color -->
<g id="edge3" class="edge">
<title>cv_depot\.core\.image&#45;&gt;cv_depot\.core\.color</title>
<path fill="none" stroke="#b6ecf3" d="M671.62,-336.36C698.95,-345.47 732.29,-356.59 760.85,-366.11"/>
<polygon fill="#b6ecf3" stroke="#b6ecf3" points="759.75,-369.43 770.34,-369.27 761.96,-362.79 759.75,-369.43"/>
</g>
<!-- cv_depot\.core\.tools -->
<g id="node7" class="node">
<title>cv_depot\.core\.tools</title>
<polygon fill="#343434" stroke="#343434" points="485.5,-213.32 312.5,-213.32 312.5,-177.32 485.5,-177.32 485.5,-213.32"/>
<text text-anchor="middle" x="399" y="-191.62" font-family="Courier,monospace" font-size="14.00" fill="#b6ecf3">cv_depot.core.tools</text>
</g>
<!-- cv_depot\.core\.tools&#45;&gt;cv_depot\.core\.image -->
<g id="edge4" class="edge">
<title>cv_depot\.core\.tools&#45;&gt;cv_depot\.core\.image</title>
<path fill="none" stroke="#b6ecf3" d="M473.44,-213.37C480.54,-216.01 487.5,-218.99 494,-222.32 530.53,-241.07 566.72,-271.62 589.97,-293.21"/>
<polygon fill="#b6ecf3" stroke="#b6ecf3" points="587.67,-295.85 597.34,-300.16 592.47,-290.76 587.67,-295.85"/>
</g>
<!-- cv_depot\.core\.types -->
<g id="node8" class="node">
<title>cv_depot\.core\.types</title>
<polygon fill="#343434" stroke="#343434" points="485.5,-489.32 312.5,-489.32 312.5,-453.32 485.5,-453.32 485.5,-489.32"/>
<text text-anchor="middle" x="399" y="-467.62" font-family="Courier,monospace" font-size="14.00" fill="#b6ecf3">cv_depot.core.types</text>
</g>
<!-- cv_depot\.core\.types&#45;&gt;cv_depot\.core\.image -->
<g id="edge5" class="edge">
<title>cv_depot\.core\.types&#45;&gt;cv_depot\.core\.image</title>
<path fill="none" stroke="#b6ecf3" d="M465.97,-453.17C475.71,-449.28 485.36,-444.69 494,-439.32 535.25,-413.7 573.27,-371.6 595.42,-344.43"/>
<polygon fill="#b6ecf3" stroke="#b6ecf3" points="598.24,-346.5 601.77,-336.51 592.78,-342.12 598.24,-346.5"/>
</g>
<!-- cv_depot\.core\.types&#45;&gt;cv_depot\.core\.video -->
<g id="edge6" class="edge">
<title>cv_depot\.core\.types&#45;&gt;cv_depot\.core\.video</title>
<path fill="none" stroke="#b6ecf3" d="M465.34,-489.51C475.26,-493.41 485.13,-498 494,-503.32 533.6,-527.11 571.08,-565.59 593.67,-591.17"/>
<polygon fill="#b6ecf3" stroke="#b6ecf3" points="591.27,-593.73 600.47,-598.98 596.55,-589.14 591.27,-593.73"/>
</g>
<!-- cv_depot\.core\.viewer -->
<g id="node10" class="node">
<title>cv_depot\.core\.viewer</title>
<polygon fill="#343434" stroke="#343434" points="490,-267.32 308,-267.32 308,-231.32 490,-231.32 490,-267.32"/>
<text text-anchor="middle" x="399" y="-245.62" font-family="Courier,monospace" font-size="14.00" fill="#b6ecf3">cv_depot.core.viewer</text>
</g>
<!-- cv_depot\.core\.viewer&#45;&gt;cv_depot\.core\.image -->
<g id="edge7" class="edge">
<title>cv_depot\.core\.viewer&#45;&gt;cv_depot\.core\.image</title>
<path fill="none" stroke="#b6ecf3" d="M456.34,-267.36C484.8,-276.47 519.51,-287.59 549.24,-297.11"/>
<polygon fill="#b6ecf3" stroke="#b6ecf3" points="548.53,-300.55 559.12,-300.27 550.66,-293.89 548.53,-300.55"/>
</g>
<!-- click -->
<g id="node11" class="node">
<title>click</title>
<polygon fill="#343434" stroke="#343434" points="70.5,-735.32 12.5,-735.32 12.5,-699.32 70.5,-699.32 70.5,-735.32"/>
<text text-anchor="middle" x="41.5" y="-713.62" font-family="Courier,monospace" font-size="14.00" fill="#de958e">click</text>
</g>
<!-- click&#45;&gt;cv_depot\.command -->
<g id="edge8" class="edge">
<title>click&#45;&gt;cv_depot\.command</title>
<path fill="none" stroke="#de958e" d="M70.71,-717.32C81.78,-717.32 95.1,-717.32 108.82,-717.32"/>
<polygon fill="#de958e" stroke="#de958e" points="108.85,-720.82 118.85,-717.32 108.85,-713.82 108.85,-720.82"/>
</g>
<!-- ffmpeg -->
<g id="node12" class="node">
<title>ffmpeg</title>
<polygon fill="#343434" stroke="#343434" points="432,-727.32 366,-727.32 366,-691.32 432,-691.32 432,-727.32"/>
<text text-anchor="middle" x="399" y="-705.62" font-family="Courier,monospace" font-size="14.00" fill="#de958e">ffmpeg</text>
</g>
<!-- ffmpeg&#45;&gt;cv_depot\.core\.video -->
<g id="edge9" class="edge">
<title>ffmpeg&#45;&gt;cv_depot\.core\.video</title>
<path fill="none" stroke="#de958e" d="M432.15,-699.53C450.49,-693.66 473.78,-685.71 494,-677.32 520.74,-666.22 549.84,-651.93 572.86,-640.08"/>
<polygon fill="#de958e" stroke="#de958e" points="574.74,-643.05 582.01,-635.34 571.52,-636.84 574.74,-643.05"/>
</g>
<!-- cv_depot -->
<g id="node13" class="node">
<title>cv_depot</title>
<polygon fill="#343434" stroke="#343434" points="83,-585.32 0,-585.32 0,-549.32 83,-549.32 83,-585.32"/>
<text text-anchor="middle" x="41.5" y="-563.62" font-family="Courier,monospace" font-size="14.00" fill="#a0d17b">cv_depot</text>
</g>
<!-- cv_depot&#45;&gt;cv_depot\.command -->
<g id="edge10" class="edge">
<title>cv_depot&#45;&gt;cv_depot\.command</title>
<path fill="none" stroke="#a0d17b" d="M49.26,-585.41C60.07,-612 83.7,-661.59 119,-690.32 120.54,-691.58 122.15,-692.78 123.8,-693.92"/>
<polygon fill="#a0d17b" stroke="#a0d17b" points="122.11,-696.99 132.46,-699.22 125.76,-691.02 122.11,-696.99"/>
</g>
<!-- cv_depot\.core -->
<g id="node14" class="node">
<title>cv_depot\.core</title>
<polygon fill="#343434" stroke="#343434" points="255.5,-489.32 131.5,-489.32 131.5,-453.32 255.5,-453.32 255.5,-489.32"/>
<text text-anchor="middle" x="193.5" y="-467.62" font-family="Courier,monospace" font-size="14.00" fill="#a0d17b">cv_depot.core</text>
</g>
<!-- cv_depot&#45;&gt;cv_depot\.core -->
<g id="edge11" class="edge">
<title>cv_depot&#45;&gt;cv_depot\.core</title>
<path fill="none" stroke="#a0d17b" d="M70.71,-549.26C94.73,-533.89 129.41,-511.7 155.62,-494.92"/>
<polygon fill="#a0d17b" stroke="#a0d17b" points="157.62,-497.8 164.16,-489.46 153.85,-491.9 157.62,-497.8"/>
</g>
<!-- cv_depot\.core&#45;&gt;cv_depot\.core\.channel -->
<g id="edge12" class="edge">
<title>cv_depot\.core&#45;&gt;cv_depot\.core\.channel</title>
<path fill="none" stroke="#a0d17b" d="M224.46,-489.58C246.08,-502.3 276.22,-519.09 304,-531.32 312.34,-534.99 321.25,-538.51 330.13,-541.79"/>
<polygon fill="#a0d17b" stroke="#a0d17b" points="329.14,-545.15 339.73,-545.24 331.5,-538.56 329.14,-545.15"/>
</g>
<!-- cv_depot\.core&#45;&gt;cv_depot\.core\.color -->
<g id="edge13" class="edge">
<title>cv_depot\.core&#45;&gt;cv_depot\.core\.color</title>
<path fill="none" stroke="#a0d17b" d="M255.58,-454.74C271.27,-450.9 288.19,-447.12 304,-444.32 451.05,-418.26 623.71,-402.17 728.56,-393.99"/>
<polygon fill="#a0d17b" stroke="#a0d17b" points="729.1,-397.46 738.81,-393.2 728.57,-390.48 729.1,-397.46"/>
</g>
<!-- cv_depot\.core&#45;&gt;cv_depot\.core\.enum -->
<g id="edge14" class="edge">
<title>cv_depot\.core&#45;&gt;cv_depot\.core\.enum</title>
<path fill="none" stroke="#a0d17b" d="M206.35,-489.54C224.34,-515.72 261.01,-563.76 304,-590.32 306.66,-591.96 309.42,-593.51 312.26,-594.96"/>
<polygon fill="#a0d17b" stroke="#a0d17b" points="311,-598.24 321.54,-599.31 313.97,-591.9 311,-598.24"/>
</g>
<!-- cv_depot\.core&#45;&gt;cv_depot\.core\.image -->
<g id="edge15" class="edge">
<title>cv_depot\.core&#45;&gt;cv_depot\.core\.image</title>
<path fill="none" stroke="#a0d17b" d="M200.7,-453.14C213.6,-418.54 246.99,-344.07 304,-314.32 377.2,-276.13 473.87,-284.91 539.99,-298.22"/>
<polygon fill="#a0d17b" stroke="#a0d17b" points="539.42,-301.68 549.92,-300.3 540.85,-294.83 539.42,-301.68"/>
</g>
<!-- cv_depot\.core&#45;&gt;cv_depot\.core\.tools -->
<g id="edge16" class="edge">
<title>cv_depot\.core&#45;&gt;cv_depot\.core\.tools</title>
<path fill="none" stroke="#a0d17b" d="M202.45,-453.1C227.45,-395.85 302.81,-223.36 304,-222.32 305.32,-221.17 306.68,-220.07 308.09,-219.01"/>
<polygon fill="#a0d17b" stroke="#a0d17b" points="310.1,-221.88 316.54,-213.46 306.26,-216.02 310.1,-221.88"/>
</g>
<!-- cv_depot\.core&#45;&gt;cv_depot\.core\.types -->
<g id="edge17" class="edge">
<title>cv_depot\.core&#45;&gt;cv_depot\.core\.types</title>
<path fill="none" stroke="#a0d17b" d="M255.56,-471.32C270.15,-471.32 286.09,-471.32 301.85,-471.32"/>
<polygon fill="#a0d17b" stroke="#a0d17b" points="302.16,-474.82 312.16,-471.32 302.16,-467.82 302.16,-474.82"/>
</g>
<!-- cv_depot\.core&#45;&gt;cv_depot\.core\.video -->
<g id="edge18" class="edge">
<title>cv_depot\.core&#45;&gt;cv_depot\.core\.video</title>
<path fill="none" stroke="#a0d17b" d="M255.78,-486.94C271.46,-490.8 288.33,-494.82 304,-498.32 388.05,-517.08 414.44,-503.37 494,-536.32 528,-550.41 562.51,-574.56 586.02,-592.84"/>
<polygon fill="#a0d17b" stroke="#a0d17b" points="584.15,-595.82 594.16,-599.28 588.49,-590.33 584.15,-595.82"/>
</g>
<!-- cv_depot\.core&#45;&gt;cv_depot\.core\.viewer -->
<g id="edge19" class="edge">
<title>cv_depot\.core&#45;&gt;cv_depot\.core\.viewer</title>
<path fill="none" stroke="#a0d17b" d="M200.04,-453.29C212.45,-415.79 246.06,-328.95 304,-281.32 308.06,-277.99 312.48,-274.99 317.13,-272.3"/>
<polygon fill="#a0d17b" stroke="#a0d17b" points="319.06,-275.24 326.29,-267.5 315.81,-269.04 319.06,-275.24"/>
</g>
<!-- lunchbox\.enforce -->
<g id="node15" class="node">
<title>lunchbox\.enforce</title>
<polygon fill="#343434" stroke="#343434" points="268,-681.32 119,-681.32 119,-645.32 268,-645.32 268,-681.32"/>
<text text-anchor="middle" x="193.5" y="-659.62" font-family="Courier,monospace" font-size="14.00" fill="#de958e">lunchbox.enforce</text>
</g>
<!-- lunchbox\.enforce&#45;&gt;cv_depot\.core\.channel -->
<g id="edge20" class="edge">
<title>lunchbox\.enforce&#45;&gt;cv_depot\.core\.channel</title>
<path fill="none" stroke="#de958e" d="M253.04,-645.31C258.31,-642.67 263.38,-639.68 268,-636.32 288.99,-621.04 282.47,-604.83 304,-590.32 306.16,-588.87 308.39,-587.49 310.69,-586.19"/>
<polygon fill="#de958e" stroke="#de958e" points="312.5,-589.19 319.81,-581.52 309.31,-582.96 312.5,-589.19"/>
</g>
<!-- lunchbox\.enforce&#45;&gt;cv_depot\.core\.color -->
<g id="edge21" class="edge">
<title>lunchbox\.enforce&#45;&gt;cv_depot\.core\.color</title>
<path fill="none" stroke="#de958e" d="M255.61,-681.43C260.05,-684.02 264.25,-686.97 268,-690.32 294.67,-714.17 273.57,-743.51 304,-762.32 456.66,-856.67 571.01,-821.92 703,-700.32 788.13,-621.89 814.3,-476.8 821.75,-415.66"/>
<polygon fill="#de958e" stroke="#de958e" points="825.25,-415.92 822.9,-405.59 818.29,-415.13 825.25,-415.92"/>
</g>
<!-- lunchbox\.enforce&#45;&gt;cv_depot\.core\.enum -->
<g id="edge22" class="edge">
<title>lunchbox\.enforce&#45;&gt;cv_depot\.core\.enum</title>
<path fill="none" stroke="#de958e" d="M268.26,-646.65C281.22,-643.72 294.84,-640.64 308.18,-637.62"/>
<polygon fill="#de958e" stroke="#de958e" points="309.33,-640.95 318.31,-635.33 307.79,-634.13 309.33,-640.95"/>
</g>
<!-- lunchbox\.enforce&#45;&gt;cv_depot\.core\.image -->
<g id="edge23" class="edge">
<title>lunchbox\.enforce&#45;&gt;cv_depot\.core\.image</title>
<path fill="none" stroke="#de958e" d="M268.05,-667.54C345.05,-670.43 459.49,-669.95 494,-644.32 519.24,-625.58 583.79,-421.68 607.02,-346.21"/>
<polygon fill="#de958e" stroke="#de958e" points="610.43,-347.03 610.01,-336.44 603.73,-344.98 610.43,-347.03"/>
</g>
<!-- lunchbox\.enforce&#45;&gt;cv_depot\.core\.video -->
<g id="edge24" class="edge">
<title>lunchbox\.enforce&#45;&gt;cv_depot\.core\.video</title>
<path fill="none" stroke="#de958e" d="M253.04,-681.33C258.31,-683.98 263.38,-686.96 268,-690.32 288.99,-705.6 280.66,-724.95 304,-736.32 379.91,-773.31 415.82,-768.23 494,-736.32 539.58,-717.72 577.33,-672.86 598.12,-643.84"/>
<polygon fill="#de958e" stroke="#de958e" points="601.16,-645.6 604.01,-635.39 595.42,-641.59 601.16,-645.6"/>
</g>
<!-- numpy -->
<g id="node16" class="node">
<title>numpy</title>
<polygon fill="#343434" stroke="#343434" points="222.5,-627.32 164.5,-627.32 164.5,-591.32 222.5,-591.32 222.5,-627.32"/>
<text text-anchor="middle" x="193.5" y="-605.62" font-family="Courier,monospace" font-size="14.00" fill="#de958e">numpy</text>
</g>
<!-- numpy&#45;&gt;cv_depot\.core\.color -->
<g id="edge25" class="edge">
<title>numpy&#45;&gt;cv_depot\.core\.color</title>
<path fill="none" stroke="#de958e" d="M222.77,-613.74C237.93,-617.44 255.93,-624.17 268,-636.32 301.29,-669.83 265.35,-709.16 304,-736.32 373.09,-784.88 411.36,-753.7 494,-736.32 593.32,-715.43 630.28,-715.11 703,-644.32 770.83,-578.3 805.22,-466.96 818.2,-415.26"/>
<polygon fill="#de958e" stroke="#de958e" points="821.63,-416 820.59,-405.45 814.82,-414.34 821.63,-416"/>
</g>
<!-- numpy&#45;&gt;cv_depot\.core\.enum -->
<g id="edge26" class="edge">
<title>numpy&#45;&gt;cv_depot\.core\.enum</title>
<path fill="none" stroke="#de958e" d="M222.8,-610.43C244.58,-611.29 275.98,-612.52 306.2,-613.71"/>
<polygon fill="#de958e" stroke="#de958e" points="306.25,-617.22 316.38,-614.11 306.53,-610.22 306.25,-617.22"/>
</g>
<!-- numpy&#45;&gt;cv_depot\.core\.image -->
<g id="edge27" class="edge">
<title>numpy&#45;&gt;cv_depot\.core\.image</title>
<path fill="none" stroke="#de958e" d="M206.58,-591.08C234.97,-548.22 303.58,-444.67 304,-444.32 374.57,-386.94 409.72,-402.52 494,-368.32 516.45,-359.21 541.19,-349.05 562.46,-340.28"/>
<polygon fill="#de958e" stroke="#de958e" points="564.05,-343.41 571.96,-336.36 561.38,-336.94 564.05,-343.41"/>
</g>
<!-- IPython\.display -->
<g id="node17" class="node">
<title>IPython\.display</title>
<polygon fill="#343434" stroke="#343434" points="263.5,-240.32 123.5,-240.32 123.5,-204.32 263.5,-204.32 263.5,-240.32"/>
<text text-anchor="middle" x="193.5" y="-218.62" font-family="Courier,monospace" font-size="14.00" fill="#de958e">IPython.display</text>
</g>
<!-- IPython\.display&#45;&gt;cv_depot\.core\.viewer -->
<g id="edge28" class="edge">
<title>IPython\.display&#45;&gt;cv_depot\.core\.viewer</title>
<path fill="none" stroke="#de958e" d="M263.68,-231.5C274.64,-232.95 286.17,-234.48 297.67,-236.01"/>
<polygon fill="#de958e" stroke="#de958e" points="297.38,-239.5 307.75,-237.35 298.3,-232.56 297.38,-239.5"/>
</g>
<!-- PIL\.Image -->
<g id="node18" class="node">
<title>PIL\.Image</title>
<polygon fill="#343434" stroke="#343434" points="444.5,-159.32 353.5,-159.32 353.5,-123.32 444.5,-123.32 444.5,-159.32"/>
<text text-anchor="middle" x="399" y="-137.62" font-family="Courier,monospace" font-size="14.00" fill="#de958e">PIL.Image</text>
</g>
<!-- PIL\.Image&#45;&gt;cv_depot\.core\.image -->
<g id="edge29" class="edge">
<title>PIL\.Image&#45;&gt;cv_depot\.core\.image</title>
<path fill="none" stroke="#de958e" d="M444.97,-148.38C461.35,-152.41 479.42,-158.67 494,-168.32 542.4,-200.37 580.93,-257.72 600.78,-291.46"/>
<polygon fill="#de958e" stroke="#de958e" points="597.86,-293.39 605.88,-300.31 603.92,-289.9 597.86,-293.39"/>
</g>
<!-- ipywidgets -->
<g id="node19" class="node">
<title>ipywidgets</title>
<polygon fill="#343434" stroke="#343434" points="243,-294.32 144,-294.32 144,-258.32 243,-258.32 243,-294.32"/>
<text text-anchor="middle" x="193.5" y="-272.62" font-family="Courier,monospace" font-size="14.00" fill="#de958e">ipywidgets</text>
</g>
<!-- ipywidgets&#45;&gt;cv_depot\.core\.viewer -->
<g id="edge30" class="edge">
<title>ipywidgets&#45;&gt;cv_depot\.core\.viewer</title>
<path fill="none" stroke="#de958e" d="M243.24,-269.85C259.76,-267.66 278.87,-265.13 297.9,-262.6"/>
<polygon fill="#de958e" stroke="#de958e" points="298.38,-266.07 307.84,-261.28 297.46,-259.13 298.38,-266.07"/>
</g>
<!-- numpy\.typing -->
<g id="node20" class="node">
<title>numpy\.typing</title>
<polygon fill="#343434" stroke="#343434" points="251.5,-113.32 135.5,-113.32 135.5,-77.32 251.5,-77.32 251.5,-113.32"/>
<text text-anchor="middle" x="193.5" y="-91.62" font-family="Courier,monospace" font-size="14.00" fill="#de958e">numpy.typing</text>
</g>
<!-- numpy\.typing&#45;&gt;cv_depot\.core\.color -->
<g id="edge31" class="edge">
<title>numpy\.typing&#45;&gt;cv_depot\.core\.color</title>
<path fill="none" stroke="#de958e" d="M214,-77.03C234.56,-59.11 268.79,-32.98 304,-22.32 384.82,2.15 416.81,11.92 494,-22.32 655.91,-94.14 772.23,-288.8 810.7,-360.41"/>
<polygon fill="#de958e" stroke="#de958e" points="807.63,-362.1 815.41,-369.29 813.81,-358.82 807.63,-362.1"/>
</g>
<!-- numpy\.typing&#45;&gt;cv_depot\.core\.image -->
<g id="edge32" class="edge">
<title>numpy\.typing&#45;&gt;cv_depot\.core\.image</title>
<path fill="none" stroke="#de958e" d="M251.58,-84.08C315.55,-74.66 419.98,-69.09 494,-114.32 559.59,-154.4 594.1,-244.33 608,-290.22"/>
<polygon fill="#de958e" stroke="#de958e" points="604.72,-291.48 610.88,-300.1 611.44,-289.52 604.72,-291.48"/>
</g>
<!-- numpy\.typing&#45;&gt;cv_depot\.core\.tools -->
<g id="edge33" class="edge">
<title>numpy\.typing&#45;&gt;cv_depot\.core\.tools</title>
<path fill="none" stroke="#de958e" d="M217.18,-113.49C238.5,-129.81 271.87,-153.43 304,-168.32 308.1,-170.22 312.36,-172.01 316.7,-173.71"/>
<polygon fill="#de958e" stroke="#de958e" points="315.73,-177.08 326.32,-177.25 318.15,-170.51 315.73,-177.08"/>
</g>
<!-- openexr_tools\.enum -->
<g id="node21" class="node">
<title>openexr_tools\.enum</title>
<polygon fill="#343434" stroke="#343434" points="481.5,-67.32 316.5,-67.32 316.5,-31.32 481.5,-31.32 481.5,-67.32"/>
<text text-anchor="middle" x="399" y="-45.62" font-family="Courier,monospace" font-size="14.00" fill="#de958e">openexr_tools.enum</text>
</g>
<!-- openexr_tools\.enum&#45;&gt;cv_depot\.core\.image -->
<g id="edge34" class="edge">
<title>openexr_tools\.enum&#45;&gt;cv_depot\.core\.image</title>
<path fill="none" stroke="#de958e" d="M472.45,-67.42C480.22,-71.22 487.61,-75.8 494,-81.32 560.33,-138.63 595.05,-241.04 608.6,-290.32"/>
<polygon fill="#de958e" stroke="#de958e" points="605.3,-291.5 611.25,-300.27 612.06,-289.71 605.3,-291.5"/>
</g>
<!-- openexr_tools\.tools -->
<g id="node22" class="node">
<title>openexr_tools\.tools</title>
<polygon fill="#343434" stroke="#343434" points="485.5,-359.32 312.5,-359.32 312.5,-323.32 485.5,-323.32 485.5,-359.32"/>
<text text-anchor="middle" x="399" y="-337.62" font-family="Courier,monospace" font-size="14.00" fill="#de958e">openexr_tools.tools</text>
</g>
<!-- openexr_tools\.tools&#45;&gt;cv_depot\.core\.image -->
<g id="edge35" class="edge">
<title>openexr_tools\.tools&#45;&gt;cv_depot\.core\.image</title>
<path fill="none" stroke="#de958e" d="M485.79,-332.16C496.84,-330.99 508.22,-329.77 519.42,-328.58"/>
<polygon fill="#de958e" stroke="#de958e" points="520.08,-332.03 529.65,-327.48 519.34,-325.06 520.08,-332.03"/>
</g>
</g>
</svg>
